<?xml version="1.0" encoding="utf-8" standalone="no"?>
<!DOCTYPE svg PUBLIC "-//W3C//DTD SVG 1.1//EN"
  "http://www.w3.org/Graphics/SVG/1.1/DTD/svg11.dtd">
<!-- Created with matplotlib (https://matplotlib.org/) -->
<svg height="360pt" version="1.1" viewBox="0 0 980.725 360" width="980.725pt" xmlns="http://www.w3.org/2000/svg" xmlns:xlink="http://www.w3.org/1999/xlink">
 <metadata>
  <rdf:RDF xmlns:cc="http://creativecommons.org/ns#" xmlns:dc="http://purl.org/dc/elements/1.1/" xmlns:rdf="http://www.w3.org/1999/02/22-rdf-syntax-ns#">
   <cc:Work>
    <dc:type rdf:resource="http://purl.org/dc/dcmitype/StillImage"/>
    <dc:date>2021-06-19T22:26:31.412758</dc:date>
    <dc:format>image/svg+xml</dc:format>
    <dc:creator>
     <cc:Agent>
      <dc:title>Matplotlib v3.3.2, https://matplotlib.org/</dc:title>
     </cc:Agent>
    </dc:creator>
   </cc:Work>
  </rdf:RDF>
 </metadata>
 <defs>
  <style type="text/css">*{stroke-linecap:butt;stroke-linejoin:round;}</style>
 </defs>
 <g id="figure_1">
  <g id="patch_1">
   <path d="M 0 360 
L 980.725 360 
L 980.725 0 
L 0 0 
z
" style="fill:#ffffff;"/>
  </g>
  <g id="axes_1">
   <g id="patch_2">
    <path d="M 68.732477 327.54 
L 383.131835 327.54 
L 383.131835 28.96 
L 68.732477 28.96 
z
" style="fill:#ffffff;"/>
   </g>
   <g id="matplotlib.axis_1">
    <g id="xtick_1">
     <g id="text_1">
      <!-- 1 -->
      <g style="fill:#262626;" transform="translate(222.432781 345.398281)scale(0.11 -0.11)">
       <defs>
        <path d="M 12.40625 8.296875 
L 28.515625 8.296875 
L 28.515625 63.921875 
L 10.984375 60.40625 
L 10.984375 69.390625 
L 28.421875 72.90625 
L 38.28125 72.90625 
L 38.28125 8.296875 
L 54.390625 8.296875 
L 54.390625 0 
L 12.40625 0 
z
" id="DejaVuSans-49"/>
       </defs>
       <use xlink:href="#DejaVuSans-49"/>
      </g>
     </g>
    </g>
    <g id="text_2">
     <!-- offer_completed -->
     <g style="fill:#262626;" transform="translate(177.042469 360.804062)scale(0.12 -0.12)">
      <defs>
       <path d="M 30.609375 48.390625 
Q 23.390625 48.390625 19.1875 42.75 
Q 14.984375 37.109375 14.984375 27.296875 
Q 14.984375 17.484375 19.15625 11.84375 
Q 23.34375 6.203125 30.609375 6.203125 
Q 37.796875 6.203125 41.984375 11.859375 
Q 46.1875 17.53125 46.1875 27.296875 
Q 46.1875 37.015625 41.984375 42.703125 
Q 37.796875 48.390625 30.609375 48.390625 
z
M 30.609375 56 
Q 42.328125 56 49.015625 48.375 
Q 55.71875 40.765625 55.71875 27.296875 
Q 55.71875 13.875 49.015625 6.21875 
Q 42.328125 -1.421875 30.609375 -1.421875 
Q 18.84375 -1.421875 12.171875 6.21875 
Q 5.515625 13.875 5.515625 27.296875 
Q 5.515625 40.765625 12.171875 48.375 
Q 18.84375 56 30.609375 56 
z
" id="DejaVuSans-111"/>
       <path d="M 37.109375 75.984375 
L 37.109375 68.5 
L 28.515625 68.5 
Q 23.6875 68.5 21.796875 66.546875 
Q 19.921875 64.59375 19.921875 59.515625 
L 19.921875 54.6875 
L 34.71875 54.6875 
L 34.71875 47.703125 
L 19.921875 47.703125 
L 19.921875 0 
L 10.890625 0 
L 10.890625 47.703125 
L 2.296875 47.703125 
L 2.296875 54.6875 
L 10.890625 54.6875 
L 10.890625 58.5 
Q 10.890625 67.625 15.140625 71.796875 
Q 19.390625 75.984375 28.609375 75.984375 
z
" id="DejaVuSans-102"/>
       <path d="M 56.203125 29.59375 
L 56.203125 25.203125 
L 14.890625 25.203125 
Q 15.484375 15.921875 20.484375 11.0625 
Q 25.484375 6.203125 34.421875 6.203125 
Q 39.59375 6.203125 44.453125 7.46875 
Q 49.3125 8.734375 54.109375 11.28125 
L 54.109375 2.78125 
Q 49.265625 0.734375 44.1875 -0.34375 
Q 39.109375 -1.421875 33.890625 -1.421875 
Q 20.796875 -1.421875 13.15625 6.1875 
Q 5.515625 13.8125 5.515625 26.8125 
Q 5.515625 40.234375 12.765625 48.109375 
Q 20.015625 56 32.328125 56 
Q 43.359375 56 49.78125 48.890625 
Q 56.203125 41.796875 56.203125 29.59375 
z
M 47.21875 32.234375 
Q 47.125 39.59375 43.09375 43.984375 
Q 39.0625 48.390625 32.421875 48.390625 
Q 24.90625 48.390625 20.390625 44.140625 
Q 15.875 39.890625 15.1875 32.171875 
z
" id="DejaVuSans-101"/>
       <path d="M 41.109375 46.296875 
Q 39.59375 47.171875 37.8125 47.578125 
Q 36.03125 48 33.890625 48 
Q 26.265625 48 22.1875 43.046875 
Q 18.109375 38.09375 18.109375 28.8125 
L 18.109375 0 
L 9.078125 0 
L 9.078125 54.6875 
L 18.109375 54.6875 
L 18.109375 46.1875 
Q 20.953125 51.171875 25.484375 53.578125 
Q 30.03125 56 36.53125 56 
Q 37.453125 56 38.578125 55.875 
Q 39.703125 55.765625 41.0625 55.515625 
z
" id="DejaVuSans-114"/>
       <path d="M 50.984375 -16.609375 
L 50.984375 -23.578125 
L -0.984375 -23.578125 
L -0.984375 -16.609375 
z
" id="DejaVuSans-95"/>
       <path d="M 48.78125 52.59375 
L 48.78125 44.1875 
Q 44.96875 46.296875 41.140625 47.34375 
Q 37.3125 48.390625 33.40625 48.390625 
Q 24.65625 48.390625 19.8125 42.84375 
Q 14.984375 37.3125 14.984375 27.296875 
Q 14.984375 17.28125 19.8125 11.734375 
Q 24.65625 6.203125 33.40625 6.203125 
Q 37.3125 6.203125 41.140625 7.25 
Q 44.96875 8.296875 48.78125 10.40625 
L 48.78125 2.09375 
Q 45.015625 0.34375 40.984375 -0.53125 
Q 36.96875 -1.421875 32.421875 -1.421875 
Q 20.0625 -1.421875 12.78125 6.34375 
Q 5.515625 14.109375 5.515625 27.296875 
Q 5.515625 40.671875 12.859375 48.328125 
Q 20.21875 56 33.015625 56 
Q 37.15625 56 41.109375 55.140625 
Q 45.0625 54.296875 48.78125 52.59375 
z
" id="DejaVuSans-99"/>
       <path d="M 52 44.1875 
Q 55.375 50.25 60.0625 53.125 
Q 64.75 56 71.09375 56 
Q 79.640625 56 84.28125 50.015625 
Q 88.921875 44.046875 88.921875 33.015625 
L 88.921875 0 
L 79.890625 0 
L 79.890625 32.71875 
Q 79.890625 40.578125 77.09375 44.375 
Q 74.3125 48.1875 68.609375 48.1875 
Q 61.625 48.1875 57.5625 43.546875 
Q 53.515625 38.921875 53.515625 30.90625 
L 53.515625 0 
L 44.484375 0 
L 44.484375 32.71875 
Q 44.484375 40.625 41.703125 44.40625 
Q 38.921875 48.1875 33.109375 48.1875 
Q 26.21875 48.1875 22.15625 43.53125 
Q 18.109375 38.875 18.109375 30.90625 
L 18.109375 0 
L 9.078125 0 
L 9.078125 54.6875 
L 18.109375 54.6875 
L 18.109375 46.1875 
Q 21.1875 51.21875 25.484375 53.609375 
Q 29.78125 56 35.6875 56 
Q 41.65625 56 45.828125 52.96875 
Q 50 49.953125 52 44.1875 
z
" id="DejaVuSans-109"/>
       <path d="M 18.109375 8.203125 
L 18.109375 -20.796875 
L 9.078125 -20.796875 
L 9.078125 54.6875 
L 18.109375 54.6875 
L 18.109375 46.390625 
Q 20.953125 51.265625 25.265625 53.625 
Q 29.59375 56 35.59375 56 
Q 45.5625 56 51.78125 48.09375 
Q 58.015625 40.1875 58.015625 27.296875 
Q 58.015625 14.40625 51.78125 6.484375 
Q 45.5625 -1.421875 35.59375 -1.421875 
Q 29.59375 -1.421875 25.265625 0.953125 
Q 20.953125 3.328125 18.109375 8.203125 
z
M 48.6875 27.296875 
Q 48.6875 37.203125 44.609375 42.84375 
Q 40.53125 48.484375 33.40625 48.484375 
Q 26.265625 48.484375 22.1875 42.84375 
Q 18.109375 37.203125 18.109375 27.296875 
Q 18.109375 17.390625 22.1875 11.75 
Q 26.265625 6.109375 33.40625 6.109375 
Q 40.53125 6.109375 44.609375 11.75 
Q 48.6875 17.390625 48.6875 27.296875 
z
" id="DejaVuSans-112"/>
       <path d="M 9.421875 75.984375 
L 18.40625 75.984375 
L 18.40625 0 
L 9.421875 0 
z
" id="DejaVuSans-108"/>
       <path d="M 18.3125 70.21875 
L 18.3125 54.6875 
L 36.8125 54.6875 
L 36.8125 47.703125 
L 18.3125 47.703125 
L 18.3125 18.015625 
Q 18.3125 11.328125 20.140625 9.421875 
Q 21.96875 7.515625 27.59375 7.515625 
L 36.8125 7.515625 
L 36.8125 0 
L 27.59375 0 
Q 17.1875 0 13.234375 3.875 
Q 9.28125 7.765625 9.28125 18.015625 
L 9.28125 47.703125 
L 2.6875 47.703125 
L 2.6875 54.6875 
L 9.28125 54.6875 
L 9.28125 70.21875 
z
" id="DejaVuSans-116"/>
       <path d="M 45.40625 46.390625 
L 45.40625 75.984375 
L 54.390625 75.984375 
L 54.390625 0 
L 45.40625 0 
L 45.40625 8.203125 
Q 42.578125 3.328125 38.25 0.953125 
Q 33.9375 -1.421875 27.875 -1.421875 
Q 17.96875 -1.421875 11.734375 6.484375 
Q 5.515625 14.40625 5.515625 27.296875 
Q 5.515625 40.1875 11.734375 48.09375 
Q 17.96875 56 27.875 56 
Q 33.9375 56 38.25 53.625 
Q 42.578125 51.265625 45.40625 46.390625 
z
M 14.796875 27.296875 
Q 14.796875 17.390625 18.875 11.75 
Q 22.953125 6.109375 30.078125 6.109375 
Q 37.203125 6.109375 41.296875 11.75 
Q 45.40625 17.390625 45.40625 27.296875 
Q 45.40625 37.203125 41.296875 42.84375 
Q 37.203125 48.484375 30.078125 48.484375 
Q 22.953125 48.484375 18.875 42.84375 
Q 14.796875 37.203125 14.796875 27.296875 
z
" id="DejaVuSans-100"/>
      </defs>
      <use xlink:href="#DejaVuSans-111"/>
      <use x="61.181641" xlink:href="#DejaVuSans-102"/>
      <use x="96.386719" xlink:href="#DejaVuSans-102"/>
      <use x="131.591797" xlink:href="#DejaVuSans-101"/>
      <use x="193.115234" xlink:href="#DejaVuSans-114"/>
      <use x="234.228516" xlink:href="#DejaVuSans-95"/>
      <use x="284.228516" xlink:href="#DejaVuSans-99"/>
      <use x="339.208984" xlink:href="#DejaVuSans-111"/>
      <use x="400.390625" xlink:href="#DejaVuSans-109"/>
      <use x="497.802734" xlink:href="#DejaVuSans-112"/>
      <use x="561.279297" xlink:href="#DejaVuSans-108"/>
      <use x="589.0625" xlink:href="#DejaVuSans-101"/>
      <use x="650.585938" xlink:href="#DejaVuSans-116"/>
      <use x="689.794922" xlink:href="#DejaVuSans-101"/>
      <use x="751.318359" xlink:href="#DejaVuSans-100"/>
     </g>
    </g>
   </g>
   <g id="matplotlib.axis_2">
    <g id="ytick_1">
     <g id="line2d_1">
      <path clip-path="url(#pa09f077e3f)" d="M 68.732477 327.54 
L 383.131835 327.54 
" style="fill:none;stroke:#cccccc;stroke-linecap:round;"/>
     </g>
     <g id="text_3">
      <!-- 0 -->
      <g style="fill:#262626;" transform="translate(52.233727 331.719141)scale(0.11 -0.11)">
       <defs>
        <path d="M 31.78125 66.40625 
Q 24.171875 66.40625 20.328125 58.90625 
Q 16.5 51.421875 16.5 36.375 
Q 16.5 21.390625 20.328125 13.890625 
Q 24.171875 6.390625 31.78125 6.390625 
Q 39.453125 6.390625 43.28125 13.890625 
Q 47.125 21.390625 47.125 36.375 
Q 47.125 51.421875 43.28125 58.90625 
Q 39.453125 66.40625 31.78125 66.40625 
z
M 31.78125 74.21875 
Q 44.046875 74.21875 50.515625 64.515625 
Q 56.984375 54.828125 56.984375 36.375 
Q 56.984375 17.96875 50.515625 8.265625 
Q 44.046875 -1.421875 31.78125 -1.421875 
Q 19.53125 -1.421875 13.0625 8.265625 
Q 6.59375 17.96875 6.59375 36.375 
Q 6.59375 54.828125 13.0625 64.515625 
Q 19.53125 74.21875 31.78125 74.21875 
z
" id="DejaVuSans-48"/>
       </defs>
       <use xlink:href="#DejaVuSans-48"/>
      </g>
     </g>
    </g>
    <g id="ytick_2">
     <g id="line2d_2">
      <path clip-path="url(#pa09f077e3f)" d="M 68.732477 275.535262 
L 383.131835 275.535262 
" style="fill:none;stroke:#cccccc;stroke-linecap:round;"/>
     </g>
     <g id="text_4">
      <!-- 500 -->
      <g style="fill:#262626;" transform="translate(38.236227 279.714403)scale(0.11 -0.11)">
       <defs>
        <path d="M 10.796875 72.90625 
L 49.515625 72.90625 
L 49.515625 64.59375 
L 19.828125 64.59375 
L 19.828125 46.734375 
Q 21.96875 47.46875 24.109375 47.828125 
Q 26.265625 48.1875 28.421875 48.1875 
Q 40.625 48.1875 47.75 41.5 
Q 54.890625 34.8125 54.890625 23.390625 
Q 54.890625 11.625 47.5625 5.09375 
Q 40.234375 -1.421875 26.90625 -1.421875 
Q 22.3125 -1.421875 17.546875 -0.640625 
Q 12.796875 0.140625 7.71875 1.703125 
L 7.71875 11.625 
Q 12.109375 9.234375 16.796875 8.0625 
Q 21.484375 6.890625 26.703125 6.890625 
Q 35.15625 6.890625 40.078125 11.328125 
Q 45.015625 15.765625 45.015625 23.390625 
Q 45.015625 31 40.078125 35.4375 
Q 35.15625 39.890625 26.703125 39.890625 
Q 22.75 39.890625 18.8125 39.015625 
Q 14.890625 38.140625 10.796875 36.28125 
z
" id="DejaVuSans-53"/>
       </defs>
       <use xlink:href="#DejaVuSans-53"/>
       <use x="63.623047" xlink:href="#DejaVuSans-48"/>
       <use x="127.246094" xlink:href="#DejaVuSans-48"/>
      </g>
     </g>
    </g>
    <g id="ytick_3">
     <g id="line2d_3">
      <path clip-path="url(#pa09f077e3f)" d="M 68.732477 223.530525 
L 383.131835 223.530525 
" style="fill:none;stroke:#cccccc;stroke-linecap:round;"/>
     </g>
     <g id="text_5">
      <!-- 1000 -->
      <g style="fill:#262626;" transform="translate(31.237477 227.709666)scale(0.11 -0.11)">
       <use xlink:href="#DejaVuSans-49"/>
       <use x="63.623047" xlink:href="#DejaVuSans-48"/>
       <use x="127.246094" xlink:href="#DejaVuSans-48"/>
       <use x="190.869141" xlink:href="#DejaVuSans-48"/>
      </g>
     </g>
    </g>
    <g id="ytick_4">
     <g id="line2d_4">
      <path clip-path="url(#pa09f077e3f)" d="M 68.732477 171.525787 
L 383.131835 171.525787 
" style="fill:none;stroke:#cccccc;stroke-linecap:round;"/>
     </g>
     <g id="text_6">
      <!-- 1500 -->
      <g style="fill:#262626;" transform="translate(31.237477 175.704928)scale(0.11 -0.11)">
       <use xlink:href="#DejaVuSans-49"/>
       <use x="63.623047" xlink:href="#DejaVuSans-53"/>
       <use x="127.246094" xlink:href="#DejaVuSans-48"/>
       <use x="190.869141" xlink:href="#DejaVuSans-48"/>
      </g>
     </g>
    </g>
    <g id="ytick_5">
     <g id="line2d_5">
      <path clip-path="url(#pa09f077e3f)" d="M 68.732477 119.52105 
L 383.131835 119.52105 
" style="fill:none;stroke:#cccccc;stroke-linecap:round;"/>
     </g>
     <g id="text_7">
      <!-- 2000 -->
      <g style="fill:#262626;" transform="translate(31.237477 123.700191)scale(0.11 -0.11)">
       <defs>
        <path d="M 19.1875 8.296875 
L 53.609375 8.296875 
L 53.609375 0 
L 7.328125 0 
L 7.328125 8.296875 
Q 12.9375 14.109375 22.625 23.890625 
Q 32.328125 33.6875 34.8125 36.53125 
Q 39.546875 41.84375 41.421875 45.53125 
Q 43.3125 49.21875 43.3125 52.78125 
Q 43.3125 58.59375 39.234375 62.25 
Q 35.15625 65.921875 28.609375 65.921875 
Q 23.96875 65.921875 18.8125 64.3125 
Q 13.671875 62.703125 7.8125 59.421875 
L 7.8125 69.390625 
Q 13.765625 71.78125 18.9375 73 
Q 24.125 74.21875 28.421875 74.21875 
Q 39.75 74.21875 46.484375 68.546875 
Q 53.21875 62.890625 53.21875 53.421875 
Q 53.21875 48.921875 51.53125 44.890625 
Q 49.859375 40.875 45.40625 35.40625 
Q 44.1875 33.984375 37.640625 27.21875 
Q 31.109375 20.453125 19.1875 8.296875 
z
" id="DejaVuSans-50"/>
       </defs>
       <use xlink:href="#DejaVuSans-50"/>
       <use x="63.623047" xlink:href="#DejaVuSans-48"/>
       <use x="127.246094" xlink:href="#DejaVuSans-48"/>
       <use x="190.869141" xlink:href="#DejaVuSans-48"/>
      </g>
     </g>
    </g>
    <g id="ytick_6">
     <g id="line2d_6">
      <path clip-path="url(#pa09f077e3f)" d="M 68.732477 67.516312 
L 383.131835 67.516312 
" style="fill:none;stroke:#cccccc;stroke-linecap:round;"/>
     </g>
     <g id="text_8">
      <!-- 2500 -->
      <g style="fill:#262626;" transform="translate(31.237477 71.695453)scale(0.11 -0.11)">
       <use xlink:href="#DejaVuSans-50"/>
       <use x="63.623047" xlink:href="#DejaVuSans-53"/>
       <use x="127.246094" xlink:href="#DejaVuSans-48"/>
       <use x="190.869141" xlink:href="#DejaVuSans-48"/>
      </g>
     </g>
    </g>
    <g id="text_9">
     <!-- count -->
     <g style="fill:#262626;" transform="translate(24.741852 195.1775)rotate(-90)scale(0.12 -0.12)">
      <defs>
       <path d="M 8.5 21.578125 
L 8.5 54.6875 
L 17.484375 54.6875 
L 17.484375 21.921875 
Q 17.484375 14.15625 20.5 10.265625 
Q 23.53125 6.390625 29.59375 6.390625 
Q 36.859375 6.390625 41.078125 11.03125 
Q 45.3125 15.671875 45.3125 23.6875 
L 45.3125 54.6875 
L 54.296875 54.6875 
L 54.296875 0 
L 45.3125 0 
L 45.3125 8.40625 
Q 42.046875 3.421875 37.71875 1 
Q 33.40625 -1.421875 27.6875 -1.421875 
Q 18.265625 -1.421875 13.375 4.4375 
Q 8.5 10.296875 8.5 21.578125 
z
M 31.109375 56 
z
" id="DejaVuSans-117"/>
       <path d="M 54.890625 33.015625 
L 54.890625 0 
L 45.90625 0 
L 45.90625 32.71875 
Q 45.90625 40.484375 42.875 44.328125 
Q 39.84375 48.1875 33.796875 48.1875 
Q 26.515625 48.1875 22.3125 43.546875 
Q 18.109375 38.921875 18.109375 30.90625 
L 18.109375 0 
L 9.078125 0 
L 9.078125 54.6875 
L 18.109375 54.6875 
L 18.109375 46.1875 
Q 21.34375 51.125 25.703125 53.5625 
Q 30.078125 56 35.796875 56 
Q 45.21875 56 50.046875 50.171875 
Q 54.890625 44.34375 54.890625 33.015625 
z
" id="DejaVuSans-110"/>
      </defs>
      <use xlink:href="#DejaVuSans-99"/>
      <use x="54.980469" xlink:href="#DejaVuSans-111"/>
      <use x="116.162109" xlink:href="#DejaVuSans-117"/>
      <use x="179.541016" xlink:href="#DejaVuSans-110"/>
      <use x="242.919922" xlink:href="#DejaVuSans-116"/>
     </g>
    </g>
   </g>
   <g id="patch_3">
    <path clip-path="url(#pa09f077e3f)" d="M 100.172413 327.54 
L 125.324362 327.54 
L 125.324362 170.693712 
L 100.172413 170.693712 
z
" style="fill:#5875a4;stroke:#ffffff;stroke-linejoin:miter;"/>
   </g>
   <g id="patch_4">
    <path clip-path="url(#pa09f077e3f)" d="M 125.324362 327.54 
L 150.47631 327.54 
L 150.47631 142.507144 
L 125.324362 142.507144 
z
" style="fill:#cc8963;stroke:#ffffff;stroke-linejoin:miter;"/>
   </g>
   <g id="patch_5">
    <path clip-path="url(#pa09f077e3f)" d="M 150.47631 327.54 
L 175.628259 327.54 
L 175.628259 133.250301 
L 150.47631 133.250301 
z
" style="fill:#5f9e6e;stroke:#ffffff;stroke-linejoin:miter;"/>
   </g>
   <g id="patch_6">
    <path clip-path="url(#pa09f077e3f)" d="M 175.628259 327.54 
L 200.780207 327.54 
L 200.780207 97.887079 
L 175.628259 97.887079 
z
" style="fill:#b55d60;stroke:#ffffff;stroke-linejoin:miter;"/>
   </g>
   <g id="patch_7">
    <path clip-path="url(#pa09f077e3f)" d="M 200.780207 327.54 
L 225.932156 327.54 
L 225.932156 176.830271 
L 200.780207 176.830271 
z
" style="fill:#857aab;stroke:#ffffff;stroke-linejoin:miter;"/>
   </g>
   <g id="patch_8">
    <path clip-path="url(#pa09f077e3f)" d="M 225.932156 327.54 
L 251.084105 327.54 
L 251.084105 177.974375 
L 225.932156 177.974375 
z
" style="fill:#8d7866;stroke:#ffffff;stroke-linejoin:miter;"/>
   </g>
   <g id="patch_9">
    <path clip-path="url(#pa09f077e3f)" d="M 251.084105 327.54 
L 276.236053 327.54 
L 276.236053 146.355494 
L 251.084105 146.355494 
z
" style="fill:#d095bf;stroke:#ffffff;stroke-linejoin:miter;"/>
   </g>
   <g id="patch_10">
    <path clip-path="url(#pa09f077e3f)" d="M 276.236053 327.54 
L 301.388002 327.54 
L 301.388002 100.903354 
L 276.236053 100.903354 
z
" style="fill:#8c8c8c;stroke:#ffffff;stroke-linejoin:miter;"/>
   </g>
   <g id="patch_11">
    <path clip-path="url(#pa09f077e3f)" d="M 301.388002 327.54 
L 326.539951 327.54 
L 326.539951 302.577726 
L 301.388002 302.577726 
z
" style="fill:#c1b37f;stroke:#ffffff;stroke-linejoin:miter;"/>
   </g>
   <g id="patch_12">
    <path clip-path="url(#pa09f077e3f)" d="M 326.539951 327.54 
L 351.691899 327.54 
L 351.691899 309.65037 
L 326.539951 309.65037 
z
" style="fill:#71aec0;stroke:#ffffff;stroke-linejoin:miter;"/>
   </g>
   <g id="patch_13">
    <path d="M 68.732477 327.54 
L 68.732477 28.96 
" style="fill:none;stroke:#cccccc;stroke-linecap:square;stroke-linejoin:miter;stroke-width:1.25;"/>
   </g>
   <g id="patch_14">
    <path d="M 68.732477 327.54 
L 383.131835 327.54 
" style="fill:none;stroke:#cccccc;stroke-linecap:square;stroke-linejoin:miter;stroke-width:1.25;"/>
   </g>
   <g id="text_10">
    <!-- gender = F -->
    <g style="fill:#262626;" transform="translate(192.368719 22.96)scale(0.12 -0.12)">
     <defs>
      <path d="M 45.40625 27.984375 
Q 45.40625 37.75 41.375 43.109375 
Q 37.359375 48.484375 30.078125 48.484375 
Q 22.859375 48.484375 18.828125 43.109375 
Q 14.796875 37.75 14.796875 27.984375 
Q 14.796875 18.265625 18.828125 12.890625 
Q 22.859375 7.515625 30.078125 7.515625 
Q 37.359375 7.515625 41.375 12.890625 
Q 45.40625 18.265625 45.40625 27.984375 
z
M 54.390625 6.78125 
Q 54.390625 -7.171875 48.1875 -13.984375 
Q 42 -20.796875 29.203125 -20.796875 
Q 24.46875 -20.796875 20.265625 -20.09375 
Q 16.0625 -19.390625 12.109375 -17.921875 
L 12.109375 -9.1875 
Q 16.0625 -11.328125 19.921875 -12.34375 
Q 23.78125 -13.375 27.78125 -13.375 
Q 36.625 -13.375 41.015625 -8.765625 
Q 45.40625 -4.15625 45.40625 5.171875 
L 45.40625 9.625 
Q 42.625 4.78125 38.28125 2.390625 
Q 33.9375 0 27.875 0 
Q 17.828125 0 11.671875 7.65625 
Q 5.515625 15.328125 5.515625 27.984375 
Q 5.515625 40.671875 11.671875 48.328125 
Q 17.828125 56 27.875 56 
Q 33.9375 56 38.28125 53.609375 
Q 42.625 51.21875 45.40625 46.390625 
L 45.40625 54.6875 
L 54.390625 54.6875 
z
" id="DejaVuSans-103"/>
      <path id="DejaVuSans-32"/>
      <path d="M 10.59375 45.40625 
L 73.1875 45.40625 
L 73.1875 37.203125 
L 10.59375 37.203125 
z
M 10.59375 25.484375 
L 73.1875 25.484375 
L 73.1875 17.1875 
L 10.59375 17.1875 
z
" id="DejaVuSans-61"/>
      <path d="M 9.8125 72.90625 
L 51.703125 72.90625 
L 51.703125 64.59375 
L 19.671875 64.59375 
L 19.671875 43.109375 
L 48.578125 43.109375 
L 48.578125 34.8125 
L 19.671875 34.8125 
L 19.671875 0 
L 9.8125 0 
z
" id="DejaVuSans-70"/>
     </defs>
     <use xlink:href="#DejaVuSans-103"/>
     <use x="63.476562" xlink:href="#DejaVuSans-101"/>
     <use x="125" xlink:href="#DejaVuSans-110"/>
     <use x="188.378906" xlink:href="#DejaVuSans-100"/>
     <use x="251.855469" xlink:href="#DejaVuSans-101"/>
     <use x="313.378906" xlink:href="#DejaVuSans-114"/>
     <use x="354.492188" xlink:href="#DejaVuSans-32"/>
     <use x="386.279297" xlink:href="#DejaVuSans-61"/>
     <use x="470.068359" xlink:href="#DejaVuSans-32"/>
     <use x="501.855469" xlink:href="#DejaVuSans-70"/>
    </g>
   </g>
  </g>
  <g id="axes_2">
   <g id="patch_15">
    <path d="M 395.793392 327.54 
L 710.19275 327.54 
L 710.19275 28.96 
L 395.793392 28.96 
z
" style="fill:#ffffff;"/>
   </g>
   <g id="matplotlib.axis_3">
    <g id="xtick_2">
     <g id="text_11">
      <!-- 1 -->
      <g style="fill:#262626;" transform="translate(549.493696 345.398281)scale(0.11 -0.11)">
       <use xlink:href="#DejaVuSans-49"/>
      </g>
     </g>
    </g>
    <g id="text_12">
     <!-- offer_completed -->
     <g style="fill:#262626;" transform="translate(504.103384 360.804062)scale(0.12 -0.12)">
      <use xlink:href="#DejaVuSans-111"/>
      <use x="61.181641" xlink:href="#DejaVuSans-102"/>
      <use x="96.386719" xlink:href="#DejaVuSans-102"/>
      <use x="131.591797" xlink:href="#DejaVuSans-101"/>
      <use x="193.115234" xlink:href="#DejaVuSans-114"/>
      <use x="234.228516" xlink:href="#DejaVuSans-95"/>
      <use x="284.228516" xlink:href="#DejaVuSans-99"/>
      <use x="339.208984" xlink:href="#DejaVuSans-111"/>
      <use x="400.390625" xlink:href="#DejaVuSans-109"/>
      <use x="497.802734" xlink:href="#DejaVuSans-112"/>
      <use x="561.279297" xlink:href="#DejaVuSans-108"/>
      <use x="589.0625" xlink:href="#DejaVuSans-101"/>
      <use x="650.585938" xlink:href="#DejaVuSans-116"/>
      <use x="689.794922" xlink:href="#DejaVuSans-101"/>
      <use x="751.318359" xlink:href="#DejaVuSans-100"/>
     </g>
    </g>
   </g>
   <g id="matplotlib.axis_4">
    <g id="ytick_7">
     <g id="line2d_7">
      <path clip-path="url(#pff3d399159)" d="M 395.793392 327.54 
L 710.19275 327.54 
" style="fill:none;stroke:#cccccc;stroke-linecap:round;"/>
     </g>
    </g>
    <g id="ytick_8">
     <g id="line2d_8">
      <path clip-path="url(#pff3d399159)" d="M 395.793392 275.535262 
L 710.19275 275.535262 
" style="fill:none;stroke:#cccccc;stroke-linecap:round;"/>
     </g>
    </g>
    <g id="ytick_9">
     <g id="line2d_9">
      <path clip-path="url(#pff3d399159)" d="M 395.793392 223.530525 
L 710.19275 223.530525 
" style="fill:none;stroke:#cccccc;stroke-linecap:round;"/>
     </g>
    </g>
    <g id="ytick_10">
     <g id="line2d_10">
      <path clip-path="url(#pff3d399159)" d="M 395.793392 171.525787 
L 710.19275 171.525787 
" style="fill:none;stroke:#cccccc;stroke-linecap:round;"/>
     </g>
    </g>
    <g id="ytick_11">
     <g id="line2d_11">
      <path clip-path="url(#pff3d399159)" d="M 395.793392 119.52105 
L 710.19275 119.52105 
" style="fill:none;stroke:#cccccc;stroke-linecap:round;"/>
     </g>
    </g>
    <g id="ytick_12">
     <g id="line2d_12">
      <path clip-path="url(#pff3d399159)" d="M 395.793392 67.516312 
L 710.19275 67.516312 
" style="fill:none;stroke:#cccccc;stroke-linecap:round;"/>
     </g>
    </g>
   </g>
   <g id="patch_16">
    <path clip-path="url(#pff3d399159)" d="M 427.233328 327.54 
L 452.385277 327.54 
L 452.385277 155.716347 
L 427.233328 155.716347 
z
" style="fill:#5875a4;stroke:#ffffff;stroke-linejoin:miter;"/>
   </g>
   <g id="patch_17">
    <path clip-path="url(#pff3d399159)" d="M 452.385277 327.54 
L 477.537225 327.54 
L 477.537225 138.866812 
L 452.385277 138.866812 
z
" style="fill:#cc8963;stroke:#ffffff;stroke-linejoin:miter;"/>
   </g>
   <g id="patch_18">
    <path clip-path="url(#pff3d399159)" d="M 477.537225 327.54 
L 502.689174 327.54 
L 502.689174 107.143922 
L 477.537225 107.143922 
z
" style="fill:#5f9e6e;stroke:#ffffff;stroke-linejoin:miter;"/>
   </g>
   <g id="patch_19">
    <path clip-path="url(#pff3d399159)" d="M 502.689174 327.54 
L 527.841122 327.54 
L 527.841122 43.178095 
L 502.689174 43.178095 
z
" style="fill:#b55d60;stroke:#ffffff;stroke-linejoin:miter;"/>
   </g>
   <g id="patch_20">
    <path clip-path="url(#pff3d399159)" d="M 527.841122 327.54 
L 552.993071 327.54 
L 552.993071 154.780262 
L 527.841122 154.780262 
z
" style="fill:#857aab;stroke:#ffffff;stroke-linejoin:miter;"/>
   </g>
   <g id="patch_21">
    <path clip-path="url(#pff3d399159)" d="M 552.993071 327.54 
L 578.14502 327.54 
L 578.14502 163.413048 
L 552.993071 163.413048 
z
" style="fill:#8d7866;stroke:#ffffff;stroke-linejoin:miter;"/>
   </g>
   <g id="patch_22">
    <path clip-path="url(#pff3d399159)" d="M 578.14502 327.54 
L 603.296968 327.54 
L 603.296968 158.732622 
L 578.14502 158.732622 
z
" style="fill:#d095bf;stroke:#ffffff;stroke-linejoin:miter;"/>
   </g>
   <g id="patch_23">
    <path clip-path="url(#pff3d399159)" d="M 603.296968 327.54 
L 628.448917 327.54 
L 628.448917 57.635412 
L 603.296968 57.635412 
z
" style="fill:#8c8c8c;stroke:#ffffff;stroke-linejoin:miter;"/>
   </g>
   <g id="patch_24">
    <path clip-path="url(#pff3d399159)" d="M 628.448917 327.54 
L 653.600866 327.54 
L 653.600866 299.665461 
L 628.448917 299.665461 
z
" style="fill:#c1b37f;stroke:#ffffff;stroke-linejoin:miter;"/>
   </g>
   <g id="patch_25">
    <path clip-path="url(#pff3d399159)" d="M 653.600866 327.54 
L 678.752814 327.54 
L 678.752814 303.72183 
L 653.600866 303.72183 
z
" style="fill:#71aec0;stroke:#ffffff;stroke-linejoin:miter;"/>
   </g>
   <g id="patch_26">
    <path d="M 395.793392 327.54 
L 395.793392 28.96 
" style="fill:none;stroke:#cccccc;stroke-linecap:square;stroke-linejoin:miter;stroke-width:1.25;"/>
   </g>
   <g id="patch_27">
    <path d="M 395.793392 327.54 
L 710.19275 327.54 
" style="fill:none;stroke:#cccccc;stroke-linecap:square;stroke-linejoin:miter;stroke-width:1.25;"/>
   </g>
   <g id="text_13">
    <!-- gender = M -->
    <g style="fill:#262626;" transform="translate(517.703696 22.96)scale(0.12 -0.12)">
     <defs>
      <path d="M 9.8125 72.90625 
L 24.515625 72.90625 
L 43.109375 23.296875 
L 61.8125 72.90625 
L 76.515625 72.90625 
L 76.515625 0 
L 66.890625 0 
L 66.890625 64.015625 
L 48.09375 14.015625 
L 38.1875 14.015625 
L 19.390625 64.015625 
L 19.390625 0 
L 9.8125 0 
z
" id="DejaVuSans-77"/>
     </defs>
     <use xlink:href="#DejaVuSans-103"/>
     <use x="63.476562" xlink:href="#DejaVuSans-101"/>
     <use x="125" xlink:href="#DejaVuSans-110"/>
     <use x="188.378906" xlink:href="#DejaVuSans-100"/>
     <use x="251.855469" xlink:href="#DejaVuSans-101"/>
     <use x="313.378906" xlink:href="#DejaVuSans-114"/>
     <use x="354.492188" xlink:href="#DejaVuSans-32"/>
     <use x="386.279297" xlink:href="#DejaVuSans-61"/>
     <use x="470.068359" xlink:href="#DejaVuSans-32"/>
     <use x="501.855469" xlink:href="#DejaVuSans-77"/>
    </g>
   </g>
  </g>
  <g id="legend_1">
   <g id="text_14">
    <!-- offer_id -->
    <g style="fill:#262626;" transform="translate(822.305469 102.414688)scale(0.12 -0.12)">
     <defs>
      <path d="M 9.421875 54.6875 
L 18.40625 54.6875 
L 18.40625 0 
L 9.421875 0 
z
M 9.421875 75.984375 
L 18.40625 75.984375 
L 18.40625 64.59375 
L 9.421875 64.59375 
z
" id="DejaVuSans-105"/>
     </defs>
     <use xlink:href="#DejaVuSans-111"/>
     <use x="61.181641" xlink:href="#DejaVuSans-102"/>
     <use x="96.386719" xlink:href="#DejaVuSans-102"/>
     <use x="131.591797" xlink:href="#DejaVuSans-101"/>
     <use x="193.115234" xlink:href="#DejaVuSans-114"/>
     <use x="234.228516" xlink:href="#DejaVuSans-95"/>
     <use x="284.228516" xlink:href="#DejaVuSans-105"/>
     <use x="312.011719" xlink:href="#DejaVuSans-100"/>
    </g>
   </g>
   <g id="patch_28">
    <path d="M 718.845937 119.102344 
L 740.845937 119.102344 
L 740.845937 111.402344 
L 718.845937 111.402344 
z
" style="fill:#5875a4;stroke:#ffffff;stroke-linejoin:miter;"/>
   </g>
   <g id="text_15">
    <!-- 9b98b8c7a33c4b65b9aebfe6a799e6d9 -->
    <g style="fill:#262626;" transform="translate(749.645937 119.102344)scale(0.11 -0.11)">
     <defs>
      <path d="M 10.984375 1.515625 
L 10.984375 10.5 
Q 14.703125 8.734375 18.5 7.8125 
Q 22.3125 6.890625 25.984375 6.890625 
Q 35.75 6.890625 40.890625 13.453125 
Q 46.046875 20.015625 46.78125 33.40625 
Q 43.953125 29.203125 39.59375 26.953125 
Q 35.25 24.703125 29.984375 24.703125 
Q 19.046875 24.703125 12.671875 31.3125 
Q 6.296875 37.9375 6.296875 49.421875 
Q 6.296875 60.640625 12.9375 67.421875 
Q 19.578125 74.21875 30.609375 74.21875 
Q 43.265625 74.21875 49.921875 64.515625 
Q 56.59375 54.828125 56.59375 36.375 
Q 56.59375 19.140625 48.40625 8.859375 
Q 40.234375 -1.421875 26.421875 -1.421875 
Q 22.703125 -1.421875 18.890625 -0.6875 
Q 15.09375 0.046875 10.984375 1.515625 
z
M 30.609375 32.421875 
Q 37.25 32.421875 41.125 36.953125 
Q 45.015625 41.5 45.015625 49.421875 
Q 45.015625 57.28125 41.125 61.84375 
Q 37.25 66.40625 30.609375 66.40625 
Q 23.96875 66.40625 20.09375 61.84375 
Q 16.21875 57.28125 16.21875 49.421875 
Q 16.21875 41.5 20.09375 36.953125 
Q 23.96875 32.421875 30.609375 32.421875 
z
" id="DejaVuSans-57"/>
      <path d="M 48.6875 27.296875 
Q 48.6875 37.203125 44.609375 42.84375 
Q 40.53125 48.484375 33.40625 48.484375 
Q 26.265625 48.484375 22.1875 42.84375 
Q 18.109375 37.203125 18.109375 27.296875 
Q 18.109375 17.390625 22.1875 11.75 
Q 26.265625 6.109375 33.40625 6.109375 
Q 40.53125 6.109375 44.609375 11.75 
Q 48.6875 17.390625 48.6875 27.296875 
z
M 18.109375 46.390625 
Q 20.953125 51.265625 25.265625 53.625 
Q 29.59375 56 35.59375 56 
Q 45.5625 56 51.78125 48.09375 
Q 58.015625 40.1875 58.015625 27.296875 
Q 58.015625 14.40625 51.78125 6.484375 
Q 45.5625 -1.421875 35.59375 -1.421875 
Q 29.59375 -1.421875 25.265625 0.953125 
Q 20.953125 3.328125 18.109375 8.203125 
L 18.109375 0 
L 9.078125 0 
L 9.078125 75.984375 
L 18.109375 75.984375 
z
" id="DejaVuSans-98"/>
      <path d="M 31.78125 34.625 
Q 24.75 34.625 20.71875 30.859375 
Q 16.703125 27.09375 16.703125 20.515625 
Q 16.703125 13.921875 20.71875 10.15625 
Q 24.75 6.390625 31.78125 6.390625 
Q 38.8125 6.390625 42.859375 10.171875 
Q 46.921875 13.96875 46.921875 20.515625 
Q 46.921875 27.09375 42.890625 30.859375 
Q 38.875 34.625 31.78125 34.625 
z
M 21.921875 38.8125 
Q 15.578125 40.375 12.03125 44.71875 
Q 8.5 49.078125 8.5 55.328125 
Q 8.5 64.0625 14.71875 69.140625 
Q 20.953125 74.21875 31.78125 74.21875 
Q 42.671875 74.21875 48.875 69.140625 
Q 55.078125 64.0625 55.078125 55.328125 
Q 55.078125 49.078125 51.53125 44.71875 
Q 48 40.375 41.703125 38.8125 
Q 48.828125 37.15625 52.796875 32.3125 
Q 56.78125 27.484375 56.78125 20.515625 
Q 56.78125 9.90625 50.3125 4.234375 
Q 43.84375 -1.421875 31.78125 -1.421875 
Q 19.734375 -1.421875 13.25 4.234375 
Q 6.78125 9.90625 6.78125 20.515625 
Q 6.78125 27.484375 10.78125 32.3125 
Q 14.796875 37.15625 21.921875 38.8125 
z
M 18.3125 54.390625 
Q 18.3125 48.734375 21.84375 45.5625 
Q 25.390625 42.390625 31.78125 42.390625 
Q 38.140625 42.390625 41.71875 45.5625 
Q 45.3125 48.734375 45.3125 54.390625 
Q 45.3125 60.0625 41.71875 63.234375 
Q 38.140625 66.40625 31.78125 66.40625 
Q 25.390625 66.40625 21.84375 63.234375 
Q 18.3125 60.0625 18.3125 54.390625 
z
" id="DejaVuSans-56"/>
      <path d="M 8.203125 72.90625 
L 55.078125 72.90625 
L 55.078125 68.703125 
L 28.609375 0 
L 18.3125 0 
L 43.21875 64.59375 
L 8.203125 64.59375 
z
" id="DejaVuSans-55"/>
      <path d="M 34.28125 27.484375 
Q 23.390625 27.484375 19.1875 25 
Q 14.984375 22.515625 14.984375 16.5 
Q 14.984375 11.71875 18.140625 8.90625 
Q 21.296875 6.109375 26.703125 6.109375 
Q 34.1875 6.109375 38.703125 11.40625 
Q 43.21875 16.703125 43.21875 25.484375 
L 43.21875 27.484375 
z
M 52.203125 31.203125 
L 52.203125 0 
L 43.21875 0 
L 43.21875 8.296875 
Q 40.140625 3.328125 35.546875 0.953125 
Q 30.953125 -1.421875 24.3125 -1.421875 
Q 15.921875 -1.421875 10.953125 3.296875 
Q 6 8.015625 6 15.921875 
Q 6 25.140625 12.171875 29.828125 
Q 18.359375 34.515625 30.609375 34.515625 
L 43.21875 34.515625 
L 43.21875 35.40625 
Q 43.21875 41.609375 39.140625 45 
Q 35.0625 48.390625 27.6875 48.390625 
Q 23 48.390625 18.546875 47.265625 
Q 14.109375 46.140625 10.015625 43.890625 
L 10.015625 52.203125 
Q 14.9375 54.109375 19.578125 55.046875 
Q 24.21875 56 28.609375 56 
Q 40.484375 56 46.34375 49.84375 
Q 52.203125 43.703125 52.203125 31.203125 
z
" id="DejaVuSans-97"/>
      <path d="M 40.578125 39.3125 
Q 47.65625 37.796875 51.625 33 
Q 55.609375 28.21875 55.609375 21.1875 
Q 55.609375 10.40625 48.1875 4.484375 
Q 40.765625 -1.421875 27.09375 -1.421875 
Q 22.515625 -1.421875 17.65625 -0.515625 
Q 12.796875 0.390625 7.625 2.203125 
L 7.625 11.71875 
Q 11.71875 9.328125 16.59375 8.109375 
Q 21.484375 6.890625 26.8125 6.890625 
Q 36.078125 6.890625 40.9375 10.546875 
Q 45.796875 14.203125 45.796875 21.1875 
Q 45.796875 27.640625 41.28125 31.265625 
Q 36.765625 34.90625 28.71875 34.90625 
L 20.21875 34.90625 
L 20.21875 43.015625 
L 29.109375 43.015625 
Q 36.375 43.015625 40.234375 45.921875 
Q 44.09375 48.828125 44.09375 54.296875 
Q 44.09375 59.90625 40.109375 62.90625 
Q 36.140625 65.921875 28.71875 65.921875 
Q 24.65625 65.921875 20.015625 65.03125 
Q 15.375 64.15625 9.8125 62.3125 
L 9.8125 71.09375 
Q 15.4375 72.65625 20.34375 73.4375 
Q 25.25 74.21875 29.59375 74.21875 
Q 40.828125 74.21875 47.359375 69.109375 
Q 53.90625 64.015625 53.90625 55.328125 
Q 53.90625 49.265625 50.4375 45.09375 
Q 46.96875 40.921875 40.578125 39.3125 
z
" id="DejaVuSans-51"/>
      <path d="M 37.796875 64.3125 
L 12.890625 25.390625 
L 37.796875 25.390625 
z
M 35.203125 72.90625 
L 47.609375 72.90625 
L 47.609375 25.390625 
L 58.015625 25.390625 
L 58.015625 17.1875 
L 47.609375 17.1875 
L 47.609375 0 
L 37.796875 0 
L 37.796875 17.1875 
L 4.890625 17.1875 
L 4.890625 26.703125 
z
" id="DejaVuSans-52"/>
      <path d="M 33.015625 40.375 
Q 26.375 40.375 22.484375 35.828125 
Q 18.609375 31.296875 18.609375 23.390625 
Q 18.609375 15.53125 22.484375 10.953125 
Q 26.375 6.390625 33.015625 6.390625 
Q 39.65625 6.390625 43.53125 10.953125 
Q 47.40625 15.53125 47.40625 23.390625 
Q 47.40625 31.296875 43.53125 35.828125 
Q 39.65625 40.375 33.015625 40.375 
z
M 52.59375 71.296875 
L 52.59375 62.3125 
Q 48.875 64.0625 45.09375 64.984375 
Q 41.3125 65.921875 37.59375 65.921875 
Q 27.828125 65.921875 22.671875 59.328125 
Q 17.53125 52.734375 16.796875 39.40625 
Q 19.671875 43.65625 24.015625 45.921875 
Q 28.375 48.1875 33.59375 48.1875 
Q 44.578125 48.1875 50.953125 41.515625 
Q 57.328125 34.859375 57.328125 23.390625 
Q 57.328125 12.15625 50.6875 5.359375 
Q 44.046875 -1.421875 33.015625 -1.421875 
Q 20.359375 -1.421875 13.671875 8.265625 
Q 6.984375 17.96875 6.984375 36.375 
Q 6.984375 53.65625 15.1875 63.9375 
Q 23.390625 74.21875 37.203125 74.21875 
Q 40.921875 74.21875 44.703125 73.484375 
Q 48.484375 72.75 52.59375 71.296875 
z
" id="DejaVuSans-54"/>
     </defs>
     <use xlink:href="#DejaVuSans-57"/>
     <use x="63.623047" xlink:href="#DejaVuSans-98"/>
     <use x="127.099609" xlink:href="#DejaVuSans-57"/>
     <use x="190.722656" xlink:href="#DejaVuSans-56"/>
     <use x="254.345703" xlink:href="#DejaVuSans-98"/>
     <use x="317.822266" xlink:href="#DejaVuSans-56"/>
     <use x="381.445312" xlink:href="#DejaVuSans-99"/>
     <use x="436.425781" xlink:href="#DejaVuSans-55"/>
     <use x="500.048828" xlink:href="#DejaVuSans-97"/>
     <use x="561.328125" xlink:href="#DejaVuSans-51"/>
     <use x="624.951172" xlink:href="#DejaVuSans-51"/>
     <use x="688.574219" xlink:href="#DejaVuSans-99"/>
     <use x="743.554688" xlink:href="#DejaVuSans-52"/>
     <use x="807.177734" xlink:href="#DejaVuSans-98"/>
     <use x="870.654297" xlink:href="#DejaVuSans-54"/>
     <use x="934.277344" xlink:href="#DejaVuSans-53"/>
     <use x="997.900391" xlink:href="#DejaVuSans-98"/>
     <use x="1061.376953" xlink:href="#DejaVuSans-57"/>
     <use x="1125" xlink:href="#DejaVuSans-97"/>
     <use x="1186.279297" xlink:href="#DejaVuSans-101"/>
     <use x="1247.802734" xlink:href="#DejaVuSans-98"/>
     <use x="1311.279297" xlink:href="#DejaVuSans-102"/>
     <use x="1346.484375" xlink:href="#DejaVuSans-101"/>
     <use x="1408.007812" xlink:href="#DejaVuSans-54"/>
     <use x="1471.630859" xlink:href="#DejaVuSans-97"/>
     <use x="1532.910156" xlink:href="#DejaVuSans-55"/>
     <use x="1596.533203" xlink:href="#DejaVuSans-57"/>
     <use x="1660.15625" xlink:href="#DejaVuSans-57"/>
     <use x="1723.779297" xlink:href="#DejaVuSans-101"/>
     <use x="1785.302734" xlink:href="#DejaVuSans-54"/>
     <use x="1848.925781" xlink:href="#DejaVuSans-100"/>
     <use x="1912.402344" xlink:href="#DejaVuSans-57"/>
    </g>
   </g>
   <g id="patch_29">
    <path d="M 718.845937 135.248281 
L 740.845937 135.248281 
L 740.845937 127.548281 
L 718.845937 127.548281 
z
" style="fill:#cc8963;stroke:#ffffff;stroke-linejoin:miter;"/>
   </g>
   <g id="text_16">
    <!-- ae264e3637204a6fb9bb56bc8210ddfd -->
    <g style="fill:#262626;" transform="translate(749.645937 135.248281)scale(0.11 -0.11)">
     <use xlink:href="#DejaVuSans-97"/>
     <use x="61.279297" xlink:href="#DejaVuSans-101"/>
     <use x="122.802734" xlink:href="#DejaVuSans-50"/>
     <use x="186.425781" xlink:href="#DejaVuSans-54"/>
     <use x="250.048828" xlink:href="#DejaVuSans-52"/>
     <use x="313.671875" xlink:href="#DejaVuSans-101"/>
     <use x="375.195312" xlink:href="#DejaVuSans-51"/>
     <use x="438.818359" xlink:href="#DejaVuSans-54"/>
     <use x="502.441406" xlink:href="#DejaVuSans-51"/>
     <use x="566.064453" xlink:href="#DejaVuSans-55"/>
     <use x="629.6875" xlink:href="#DejaVuSans-50"/>
     <use x="693.310547" xlink:href="#DejaVuSans-48"/>
     <use x="756.933594" xlink:href="#DejaVuSans-52"/>
     <use x="820.556641" xlink:href="#DejaVuSans-97"/>
     <use x="881.835938" xlink:href="#DejaVuSans-54"/>
     <use x="945.458984" xlink:href="#DejaVuSans-102"/>
     <use x="980.664062" xlink:href="#DejaVuSans-98"/>
     <use x="1044.140625" xlink:href="#DejaVuSans-57"/>
     <use x="1107.763672" xlink:href="#DejaVuSans-98"/>
     <use x="1171.240234" xlink:href="#DejaVuSans-98"/>
     <use x="1234.716797" xlink:href="#DejaVuSans-53"/>
     <use x="1298.339844" xlink:href="#DejaVuSans-54"/>
     <use x="1361.962891" xlink:href="#DejaVuSans-98"/>
     <use x="1425.439453" xlink:href="#DejaVuSans-99"/>
     <use x="1480.419922" xlink:href="#DejaVuSans-56"/>
     <use x="1544.042969" xlink:href="#DejaVuSans-50"/>
     <use x="1607.666016" xlink:href="#DejaVuSans-49"/>
     <use x="1671.289062" xlink:href="#DejaVuSans-48"/>
     <use x="1734.912109" xlink:href="#DejaVuSans-100"/>
     <use x="1798.388672" xlink:href="#DejaVuSans-100"/>
     <use x="1861.865234" xlink:href="#DejaVuSans-102"/>
     <use x="1897.070312" xlink:href="#DejaVuSans-100"/>
    </g>
   </g>
   <g id="patch_30">
    <path d="M 718.845937 151.394219 
L 740.845937 151.394219 
L 740.845937 143.694219 
L 718.845937 143.694219 
z
" style="fill:#5f9e6e;stroke:#ffffff;stroke-linejoin:miter;"/>
   </g>
   <g id="text_17">
    <!-- f19421c1d4aa40978ebb69ca19b0e20d -->
    <g style="fill:#262626;" transform="translate(749.645937 151.394219)scale(0.11 -0.11)">
     <use xlink:href="#DejaVuSans-102"/>
     <use x="35.205078" xlink:href="#DejaVuSans-49"/>
     <use x="98.828125" xlink:href="#DejaVuSans-57"/>
     <use x="162.451172" xlink:href="#DejaVuSans-52"/>
     <use x="226.074219" xlink:href="#DejaVuSans-50"/>
     <use x="289.697266" xlink:href="#DejaVuSans-49"/>
     <use x="353.320312" xlink:href="#DejaVuSans-99"/>
     <use x="408.300781" xlink:href="#DejaVuSans-49"/>
     <use x="471.923828" xlink:href="#DejaVuSans-100"/>
     <use x="535.400391" xlink:href="#DejaVuSans-52"/>
     <use x="599.023438" xlink:href="#DejaVuSans-97"/>
     <use x="660.302734" xlink:href="#DejaVuSans-97"/>
     <use x="721.582031" xlink:href="#DejaVuSans-52"/>
     <use x="785.205078" xlink:href="#DejaVuSans-48"/>
     <use x="848.828125" xlink:href="#DejaVuSans-57"/>
     <use x="912.451172" xlink:href="#DejaVuSans-55"/>
     <use x="976.074219" xlink:href="#DejaVuSans-56"/>
     <use x="1039.697266" xlink:href="#DejaVuSans-101"/>
     <use x="1101.220703" xlink:href="#DejaVuSans-98"/>
     <use x="1164.697266" xlink:href="#DejaVuSans-98"/>
     <use x="1228.173828" xlink:href="#DejaVuSans-54"/>
     <use x="1291.796875" xlink:href="#DejaVuSans-57"/>
     <use x="1355.419922" xlink:href="#DejaVuSans-99"/>
     <use x="1410.400391" xlink:href="#DejaVuSans-97"/>
     <use x="1471.679688" xlink:href="#DejaVuSans-49"/>
     <use x="1535.302734" xlink:href="#DejaVuSans-57"/>
     <use x="1598.925781" xlink:href="#DejaVuSans-98"/>
     <use x="1662.402344" xlink:href="#DejaVuSans-48"/>
     <use x="1726.025391" xlink:href="#DejaVuSans-101"/>
     <use x="1787.548828" xlink:href="#DejaVuSans-50"/>
     <use x="1851.171875" xlink:href="#DejaVuSans-48"/>
     <use x="1914.794922" xlink:href="#DejaVuSans-100"/>
    </g>
   </g>
   <g id="patch_31">
    <path d="M 718.845937 167.540156 
L 740.845937 167.540156 
L 740.845937 159.840156 
L 718.845937 159.840156 
z
" style="fill:#b55d60;stroke:#ffffff;stroke-linejoin:miter;"/>
   </g>
   <g id="text_18">
    <!-- fafdcd668e3743c1bb461111dcafc2a4 -->
    <g style="fill:#262626;" transform="translate(749.645937 167.540156)scale(0.11 -0.11)">
     <use xlink:href="#DejaVuSans-102"/>
     <use x="35.205078" xlink:href="#DejaVuSans-97"/>
     <use x="96.484375" xlink:href="#DejaVuSans-102"/>
     <use x="131.689453" xlink:href="#DejaVuSans-100"/>
     <use x="195.166016" xlink:href="#DejaVuSans-99"/>
     <use x="250.146484" xlink:href="#DejaVuSans-100"/>
     <use x="313.623047" xlink:href="#DejaVuSans-54"/>
     <use x="377.246094" xlink:href="#DejaVuSans-54"/>
     <use x="440.869141" xlink:href="#DejaVuSans-56"/>
     <use x="504.492188" xlink:href="#DejaVuSans-101"/>
     <use x="566.015625" xlink:href="#DejaVuSans-51"/>
     <use x="629.638672" xlink:href="#DejaVuSans-55"/>
     <use x="693.261719" xlink:href="#DejaVuSans-52"/>
     <use x="756.884766" xlink:href="#DejaVuSans-51"/>
     <use x="820.507812" xlink:href="#DejaVuSans-99"/>
     <use x="875.488281" xlink:href="#DejaVuSans-49"/>
     <use x="939.111328" xlink:href="#DejaVuSans-98"/>
     <use x="1002.587891" xlink:href="#DejaVuSans-98"/>
     <use x="1066.064453" xlink:href="#DejaVuSans-52"/>
     <use x="1129.6875" xlink:href="#DejaVuSans-54"/>
     <use x="1193.310547" xlink:href="#DejaVuSans-49"/>
     <use x="1256.933594" xlink:href="#DejaVuSans-49"/>
     <use x="1320.556641" xlink:href="#DejaVuSans-49"/>
     <use x="1384.179688" xlink:href="#DejaVuSans-49"/>
     <use x="1447.802734" xlink:href="#DejaVuSans-100"/>
     <use x="1511.279297" xlink:href="#DejaVuSans-99"/>
     <use x="1566.259766" xlink:href="#DejaVuSans-97"/>
     <use x="1627.539062" xlink:href="#DejaVuSans-102"/>
     <use x="1662.744141" xlink:href="#DejaVuSans-99"/>
     <use x="1717.724609" xlink:href="#DejaVuSans-50"/>
     <use x="1781.347656" xlink:href="#DejaVuSans-97"/>
     <use x="1842.626953" xlink:href="#DejaVuSans-52"/>
    </g>
   </g>
   <g id="patch_32">
    <path d="M 718.845937 183.686094 
L 740.845937 183.686094 
L 740.845937 175.986094 
L 718.845937 175.986094 
z
" style="fill:#857aab;stroke:#ffffff;stroke-linejoin:miter;"/>
   </g>
   <g id="text_19">
    <!-- 2906b810c7d4411798c6938adc9daaa5 -->
    <g style="fill:#262626;" transform="translate(749.645937 183.686094)scale(0.11 -0.11)">
     <use xlink:href="#DejaVuSans-50"/>
     <use x="63.623047" xlink:href="#DejaVuSans-57"/>
     <use x="127.246094" xlink:href="#DejaVuSans-48"/>
     <use x="190.869141" xlink:href="#DejaVuSans-54"/>
     <use x="254.492188" xlink:href="#DejaVuSans-98"/>
     <use x="317.96875" xlink:href="#DejaVuSans-56"/>
     <use x="381.591797" xlink:href="#DejaVuSans-49"/>
     <use x="445.214844" xlink:href="#DejaVuSans-48"/>
     <use x="508.837891" xlink:href="#DejaVuSans-99"/>
     <use x="563.818359" xlink:href="#DejaVuSans-55"/>
     <use x="627.441406" xlink:href="#DejaVuSans-100"/>
     <use x="690.917969" xlink:href="#DejaVuSans-52"/>
     <use x="754.541016" xlink:href="#DejaVuSans-52"/>
     <use x="818.164062" xlink:href="#DejaVuSans-49"/>
     <use x="881.787109" xlink:href="#DejaVuSans-49"/>
     <use x="945.410156" xlink:href="#DejaVuSans-55"/>
     <use x="1009.033203" xlink:href="#DejaVuSans-57"/>
     <use x="1072.65625" xlink:href="#DejaVuSans-56"/>
     <use x="1136.279297" xlink:href="#DejaVuSans-99"/>
     <use x="1191.259766" xlink:href="#DejaVuSans-54"/>
     <use x="1254.882812" xlink:href="#DejaVuSans-57"/>
     <use x="1318.505859" xlink:href="#DejaVuSans-51"/>
     <use x="1382.128906" xlink:href="#DejaVuSans-56"/>
     <use x="1445.751953" xlink:href="#DejaVuSans-97"/>
     <use x="1507.03125" xlink:href="#DejaVuSans-100"/>
     <use x="1570.507812" xlink:href="#DejaVuSans-99"/>
     <use x="1625.488281" xlink:href="#DejaVuSans-57"/>
     <use x="1689.111328" xlink:href="#DejaVuSans-100"/>
     <use x="1752.587891" xlink:href="#DejaVuSans-97"/>
     <use x="1813.867188" xlink:href="#DejaVuSans-97"/>
     <use x="1875.146484" xlink:href="#DejaVuSans-97"/>
     <use x="1936.425781" xlink:href="#DejaVuSans-53"/>
    </g>
   </g>
   <g id="patch_33">
    <path d="M 718.845937 199.832031 
L 740.845937 199.832031 
L 740.845937 192.132031 
L 718.845937 192.132031 
z
" style="fill:#8d7866;stroke:#ffffff;stroke-linejoin:miter;"/>
   </g>
   <g id="text_20">
    <!-- 0b1e1539f2cc45b7b9fa7c272da2e1d7 -->
    <g style="fill:#262626;" transform="translate(749.645937 199.832031)scale(0.11 -0.11)">
     <use xlink:href="#DejaVuSans-48"/>
     <use x="63.623047" xlink:href="#DejaVuSans-98"/>
     <use x="127.099609" xlink:href="#DejaVuSans-49"/>
     <use x="190.722656" xlink:href="#DejaVuSans-101"/>
     <use x="252.246094" xlink:href="#DejaVuSans-49"/>
     <use x="315.869141" xlink:href="#DejaVuSans-53"/>
     <use x="379.492188" xlink:href="#DejaVuSans-51"/>
     <use x="443.115234" xlink:href="#DejaVuSans-57"/>
     <use x="506.738281" xlink:href="#DejaVuSans-102"/>
     <use x="541.943359" xlink:href="#DejaVuSans-50"/>
     <use x="605.566406" xlink:href="#DejaVuSans-99"/>
     <use x="660.546875" xlink:href="#DejaVuSans-99"/>
     <use x="715.527344" xlink:href="#DejaVuSans-52"/>
     <use x="779.150391" xlink:href="#DejaVuSans-53"/>
     <use x="842.773438" xlink:href="#DejaVuSans-98"/>
     <use x="906.25" xlink:href="#DejaVuSans-55"/>
     <use x="969.873047" xlink:href="#DejaVuSans-98"/>
     <use x="1033.349609" xlink:href="#DejaVuSans-57"/>
     <use x="1096.972656" xlink:href="#DejaVuSans-102"/>
     <use x="1132.177734" xlink:href="#DejaVuSans-97"/>
     <use x="1193.457031" xlink:href="#DejaVuSans-55"/>
     <use x="1257.080078" xlink:href="#DejaVuSans-99"/>
     <use x="1312.060547" xlink:href="#DejaVuSans-50"/>
     <use x="1375.683594" xlink:href="#DejaVuSans-55"/>
     <use x="1439.306641" xlink:href="#DejaVuSans-50"/>
     <use x="1502.929688" xlink:href="#DejaVuSans-100"/>
     <use x="1566.40625" xlink:href="#DejaVuSans-97"/>
     <use x="1627.685547" xlink:href="#DejaVuSans-50"/>
     <use x="1691.308594" xlink:href="#DejaVuSans-101"/>
     <use x="1752.832031" xlink:href="#DejaVuSans-49"/>
     <use x="1816.455078" xlink:href="#DejaVuSans-100"/>
     <use x="1879.931641" xlink:href="#DejaVuSans-55"/>
    </g>
   </g>
   <g id="patch_34">
    <path d="M 718.845937 215.977969 
L 740.845937 215.977969 
L 740.845937 208.277969 
L 718.845937 208.277969 
z
" style="fill:#d095bf;stroke:#ffffff;stroke-linejoin:miter;"/>
   </g>
   <g id="text_21">
    <!-- 4d5c57ea9a6940dd891ad53e9dbe8da0 -->
    <g style="fill:#262626;" transform="translate(749.645937 215.977969)scale(0.11 -0.11)">
     <use xlink:href="#DejaVuSans-52"/>
     <use x="63.623047" xlink:href="#DejaVuSans-100"/>
     <use x="127.099609" xlink:href="#DejaVuSans-53"/>
     <use x="190.722656" xlink:href="#DejaVuSans-99"/>
     <use x="245.703125" xlink:href="#DejaVuSans-53"/>
     <use x="309.326172" xlink:href="#DejaVuSans-55"/>
     <use x="372.949219" xlink:href="#DejaVuSans-101"/>
     <use x="434.472656" xlink:href="#DejaVuSans-97"/>
     <use x="495.751953" xlink:href="#DejaVuSans-57"/>
     <use x="559.375" xlink:href="#DejaVuSans-97"/>
     <use x="620.654297" xlink:href="#DejaVuSans-54"/>
     <use x="684.277344" xlink:href="#DejaVuSans-57"/>
     <use x="747.900391" xlink:href="#DejaVuSans-52"/>
     <use x="811.523438" xlink:href="#DejaVuSans-48"/>
     <use x="875.146484" xlink:href="#DejaVuSans-100"/>
     <use x="938.623047" xlink:href="#DejaVuSans-100"/>
     <use x="1002.099609" xlink:href="#DejaVuSans-56"/>
     <use x="1065.722656" xlink:href="#DejaVuSans-57"/>
     <use x="1129.345703" xlink:href="#DejaVuSans-49"/>
     <use x="1192.96875" xlink:href="#DejaVuSans-97"/>
     <use x="1254.248047" xlink:href="#DejaVuSans-100"/>
     <use x="1317.724609" xlink:href="#DejaVuSans-53"/>
     <use x="1381.347656" xlink:href="#DejaVuSans-51"/>
     <use x="1444.970703" xlink:href="#DejaVuSans-101"/>
     <use x="1506.494141" xlink:href="#DejaVuSans-57"/>
     <use x="1570.117188" xlink:href="#DejaVuSans-100"/>
     <use x="1633.59375" xlink:href="#DejaVuSans-98"/>
     <use x="1697.070312" xlink:href="#DejaVuSans-101"/>
     <use x="1758.59375" xlink:href="#DejaVuSans-56"/>
     <use x="1822.216797" xlink:href="#DejaVuSans-100"/>
     <use x="1885.693359" xlink:href="#DejaVuSans-97"/>
     <use x="1946.972656" xlink:href="#DejaVuSans-48"/>
    </g>
   </g>
   <g id="patch_35">
    <path d="M 718.845937 232.123906 
L 740.845937 232.123906 
L 740.845937 224.423906 
L 718.845937 224.423906 
z
" style="fill:#8c8c8c;stroke:#ffffff;stroke-linejoin:miter;"/>
   </g>
   <g id="text_22">
    <!-- 2298d6c36e964ae4a3e7e9706d1fb8c2 -->
    <g style="fill:#262626;" transform="translate(749.645937 232.123906)scale(0.11 -0.11)">
     <use xlink:href="#DejaVuSans-50"/>
     <use x="63.623047" xlink:href="#DejaVuSans-50"/>
     <use x="127.246094" xlink:href="#DejaVuSans-57"/>
     <use x="190.869141" xlink:href="#DejaVuSans-56"/>
     <use x="254.492188" xlink:href="#DejaVuSans-100"/>
     <use x="317.96875" xlink:href="#DejaVuSans-54"/>
     <use x="381.591797" xlink:href="#DejaVuSans-99"/>
     <use x="436.572266" xlink:href="#DejaVuSans-51"/>
     <use x="500.195312" xlink:href="#DejaVuSans-54"/>
     <use x="563.818359" xlink:href="#DejaVuSans-101"/>
     <use x="625.341797" xlink:href="#DejaVuSans-57"/>
     <use x="688.964844" xlink:href="#DejaVuSans-54"/>
     <use x="752.587891" xlink:href="#DejaVuSans-52"/>
     <use x="816.210938" xlink:href="#DejaVuSans-97"/>
     <use x="877.490234" xlink:href="#DejaVuSans-101"/>
     <use x="939.013672" xlink:href="#DejaVuSans-52"/>
     <use x="1002.636719" xlink:href="#DejaVuSans-97"/>
     <use x="1063.916016" xlink:href="#DejaVuSans-51"/>
     <use x="1127.539062" xlink:href="#DejaVuSans-101"/>
     <use x="1189.0625" xlink:href="#DejaVuSans-55"/>
     <use x="1252.685547" xlink:href="#DejaVuSans-101"/>
     <use x="1314.208984" xlink:href="#DejaVuSans-57"/>
     <use x="1377.832031" xlink:href="#DejaVuSans-55"/>
     <use x="1441.455078" xlink:href="#DejaVuSans-48"/>
     <use x="1505.078125" xlink:href="#DejaVuSans-54"/>
     <use x="1568.701172" xlink:href="#DejaVuSans-100"/>
     <use x="1632.177734" xlink:href="#DejaVuSans-49"/>
     <use x="1695.800781" xlink:href="#DejaVuSans-102"/>
     <use x="1731.005859" xlink:href="#DejaVuSans-98"/>
     <use x="1794.482422" xlink:href="#DejaVuSans-56"/>
     <use x="1858.105469" xlink:href="#DejaVuSans-99"/>
     <use x="1913.085938" xlink:href="#DejaVuSans-50"/>
    </g>
   </g>
   <g id="patch_36">
    <path d="M 718.845937 248.269844 
L 740.845937 248.269844 
L 740.845937 240.569844 
L 718.845937 240.569844 
z
" style="fill:#c1b37f;stroke:#ffffff;stroke-linejoin:miter;"/>
   </g>
   <g id="text_23">
    <!-- 3f207df678b143eea3cee63160fa8bed -->
    <g style="fill:#262626;" transform="translate(749.645937 248.269844)scale(0.11 -0.11)">
     <use xlink:href="#DejaVuSans-51"/>
     <use x="63.623047" xlink:href="#DejaVuSans-102"/>
     <use x="98.828125" xlink:href="#DejaVuSans-50"/>
     <use x="162.451172" xlink:href="#DejaVuSans-48"/>
     <use x="226.074219" xlink:href="#DejaVuSans-55"/>
     <use x="289.697266" xlink:href="#DejaVuSans-100"/>
     <use x="353.173828" xlink:href="#DejaVuSans-102"/>
     <use x="388.378906" xlink:href="#DejaVuSans-54"/>
     <use x="452.001953" xlink:href="#DejaVuSans-55"/>
     <use x="515.625" xlink:href="#DejaVuSans-56"/>
     <use x="579.248047" xlink:href="#DejaVuSans-98"/>
     <use x="642.724609" xlink:href="#DejaVuSans-49"/>
     <use x="706.347656" xlink:href="#DejaVuSans-52"/>
     <use x="769.970703" xlink:href="#DejaVuSans-51"/>
     <use x="833.59375" xlink:href="#DejaVuSans-101"/>
     <use x="895.117188" xlink:href="#DejaVuSans-101"/>
     <use x="956.640625" xlink:href="#DejaVuSans-97"/>
     <use x="1017.919922" xlink:href="#DejaVuSans-51"/>
     <use x="1081.542969" xlink:href="#DejaVuSans-99"/>
     <use x="1136.523438" xlink:href="#DejaVuSans-101"/>
     <use x="1198.046875" xlink:href="#DejaVuSans-101"/>
     <use x="1259.570312" xlink:href="#DejaVuSans-54"/>
     <use x="1323.193359" xlink:href="#DejaVuSans-51"/>
     <use x="1386.816406" xlink:href="#DejaVuSans-49"/>
     <use x="1450.439453" xlink:href="#DejaVuSans-54"/>
     <use x="1514.0625" xlink:href="#DejaVuSans-48"/>
     <use x="1577.685547" xlink:href="#DejaVuSans-102"/>
     <use x="1612.890625" xlink:href="#DejaVuSans-97"/>
     <use x="1674.169922" xlink:href="#DejaVuSans-56"/>
     <use x="1737.792969" xlink:href="#DejaVuSans-98"/>
     <use x="1801.269531" xlink:href="#DejaVuSans-101"/>
     <use x="1862.792969" xlink:href="#DejaVuSans-100"/>
    </g>
   </g>
   <g id="patch_37">
    <path d="M 718.845937 264.415781 
L 740.845937 264.415781 
L 740.845937 256.715781 
L 718.845937 256.715781 
z
" style="fill:#71aec0;stroke:#ffffff;stroke-linejoin:miter;"/>
   </g>
   <g id="text_24">
    <!-- 5a8bc65990b245e5a138643cd4eb9837 -->
    <g style="fill:#262626;" transform="translate(749.645937 264.415781)scale(0.11 -0.11)">
     <use xlink:href="#DejaVuSans-53"/>
     <use x="63.623047" xlink:href="#DejaVuSans-97"/>
     <use x="124.902344" xlink:href="#DejaVuSans-56"/>
     <use x="188.525391" xlink:href="#DejaVuSans-98"/>
     <use x="252.001953" xlink:href="#DejaVuSans-99"/>
     <use x="306.982422" xlink:href="#DejaVuSans-54"/>
     <use x="370.605469" xlink:href="#DejaVuSans-53"/>
     <use x="434.228516" xlink:href="#DejaVuSans-57"/>
     <use x="497.851562" xlink:href="#DejaVuSans-57"/>
     <use x="561.474609" xlink:href="#DejaVuSans-48"/>
     <use x="625.097656" xlink:href="#DejaVuSans-98"/>
     <use x="688.574219" xlink:href="#DejaVuSans-50"/>
     <use x="752.197266" xlink:href="#DejaVuSans-52"/>
     <use x="815.820312" xlink:href="#DejaVuSans-53"/>
     <use x="879.443359" xlink:href="#DejaVuSans-101"/>
     <use x="940.966797" xlink:href="#DejaVuSans-53"/>
     <use x="1004.589844" xlink:href="#DejaVuSans-97"/>
     <use x="1065.869141" xlink:href="#DejaVuSans-49"/>
     <use x="1129.492188" xlink:href="#DejaVuSans-51"/>
     <use x="1193.115234" xlink:href="#DejaVuSans-56"/>
     <use x="1256.738281" xlink:href="#DejaVuSans-54"/>
     <use x="1320.361328" xlink:href="#DejaVuSans-52"/>
     <use x="1383.984375" xlink:href="#DejaVuSans-51"/>
     <use x="1447.607422" xlink:href="#DejaVuSans-99"/>
     <use x="1502.587891" xlink:href="#DejaVuSans-100"/>
     <use x="1566.064453" xlink:href="#DejaVuSans-52"/>
     <use x="1629.6875" xlink:href="#DejaVuSans-101"/>
     <use x="1691.210938" xlink:href="#DejaVuSans-98"/>
     <use x="1754.6875" xlink:href="#DejaVuSans-57"/>
     <use x="1818.310547" xlink:href="#DejaVuSans-56"/>
     <use x="1881.933594" xlink:href="#DejaVuSans-51"/>
     <use x="1945.556641" xlink:href="#DejaVuSans-55"/>
    </g>
   </g>
  </g>
 </g>
 <defs>
  <clipPath id="pa09f077e3f">
   <rect height="298.58" width="314.399358" x="68.732477" y="28.96"/>
  </clipPath>
  <clipPath id="pff3d399159">
   <rect height="298.58" width="314.399358" x="395.793392" y="28.96"/>
  </clipPath>
 </defs>
</svg>
