<?xml version="1.0" encoding="utf-8" standalone="no"?>
<!DOCTYPE svg PUBLIC "-//W3C//DTD SVG 1.1//EN"
  "http://www.w3.org/Graphics/SVG/1.1/DTD/svg11.dtd">
<!-- Created with matplotlib (https://matplotlib.org/) -->
<svg height="288pt" version="1.1" viewBox="0 0 1440 288" width="1440pt" xmlns="http://www.w3.org/2000/svg" xmlns:xlink="http://www.w3.org/1999/xlink">
 <metadata>
  <rdf:RDF xmlns:cc="http://creativecommons.org/ns#" xmlns:dc="http://purl.org/dc/elements/1.1/" xmlns:rdf="http://www.w3.org/1999/02/22-rdf-syntax-ns#">
   <cc:Work>
    <dc:type rdf:resource="http://purl.org/dc/dcmitype/StillImage"/>
    <dc:date>2021-06-20T11:33:10.023265</dc:date>
    <dc:format>image/svg+xml</dc:format>
    <dc:creator>
     <cc:Agent>
      <dc:title>Matplotlib v3.3.2, https://matplotlib.org/</dc:title>
     </cc:Agent>
    </dc:creator>
   </cc:Work>
  </rdf:RDF>
 </metadata>
 <defs>
  <style type="text/css">*{stroke-linecap:butt;stroke-linejoin:round;}</style>
 </defs>
 <g id="figure_1">
  <g id="patch_1">
   <path d="M 0 288 
L 1440 288 
L 1440 0 
L 0 0 
z
" style="fill:#ffffff;"/>
  </g>
  <g id="axes_1">
   <g id="patch_2">
    <path d="M 180 252 
L 508.235294 252 
L 508.235294 34.56 
L 180 34.56 
z
" style="fill:#ffffff;"/>
   </g>
   <g id="matplotlib.axis_1">
    <g id="xtick_1">
     <g id="text_1">
      <!-- 20000 -->
      <g style="fill:#262626;" transform="translate(196.35037 271.947852)scale(0.1375 -0.1375)">
       <defs>
        <path d="M 19.1875 8.296875 
L 53.609375 8.296875 
L 53.609375 0 
L 7.328125 0 
L 7.328125 8.296875 
Q 12.9375 14.109375 22.625 23.890625 
Q 32.328125 33.6875 34.8125 36.53125 
Q 39.546875 41.84375 41.421875 45.53125 
Q 43.3125 49.21875 43.3125 52.78125 
Q 43.3125 58.59375 39.234375 62.25 
Q 35.15625 65.921875 28.609375 65.921875 
Q 23.96875 65.921875 18.8125 64.3125 
Q 13.671875 62.703125 7.8125 59.421875 
L 7.8125 69.390625 
Q 13.765625 71.78125 18.9375 73 
Q 24.125 74.21875 28.421875 74.21875 
Q 39.75 74.21875 46.484375 68.546875 
Q 53.21875 62.890625 53.21875 53.421875 
Q 53.21875 48.921875 51.53125 44.890625 
Q 49.859375 40.875 45.40625 35.40625 
Q 44.1875 33.984375 37.640625 27.21875 
Q 31.109375 20.453125 19.1875 8.296875 
z
" id="DejaVuSans-50"/>
        <path d="M 31.78125 66.40625 
Q 24.171875 66.40625 20.328125 58.90625 
Q 16.5 51.421875 16.5 36.375 
Q 16.5 21.390625 20.328125 13.890625 
Q 24.171875 6.390625 31.78125 6.390625 
Q 39.453125 6.390625 43.28125 13.890625 
Q 47.125 21.390625 47.125 36.375 
Q 47.125 51.421875 43.28125 58.90625 
Q 39.453125 66.40625 31.78125 66.40625 
z
M 31.78125 74.21875 
Q 44.046875 74.21875 50.515625 64.515625 
Q 56.984375 54.828125 56.984375 36.375 
Q 56.984375 17.96875 50.515625 8.265625 
Q 44.046875 -1.421875 31.78125 -1.421875 
Q 19.53125 -1.421875 13.0625 8.265625 
Q 6.59375 17.96875 6.59375 36.375 
Q 6.59375 54.828125 13.0625 64.515625 
Q 19.53125 74.21875 31.78125 74.21875 
z
" id="DejaVuSans-48"/>
       </defs>
       <use xlink:href="#DejaVuSans-50"/>
       <use x="63.623047" xlink:href="#DejaVuSans-48"/>
       <use x="127.246094" xlink:href="#DejaVuSans-48"/>
       <use x="190.869141" xlink:href="#DejaVuSans-48"/>
       <use x="254.492188" xlink:href="#DejaVuSans-48"/>
      </g>
     </g>
    </g>
    <g id="xtick_2">
     <g id="text_2">
      <!-- 40000 -->
      <g style="fill:#262626;" transform="translate(245.600197 271.947852)scale(0.1375 -0.1375)">
       <defs>
        <path d="M 37.796875 64.3125 
L 12.890625 25.390625 
L 37.796875 25.390625 
z
M 35.203125 72.90625 
L 47.609375 72.90625 
L 47.609375 25.390625 
L 58.015625 25.390625 
L 58.015625 17.1875 
L 47.609375 17.1875 
L 47.609375 0 
L 37.796875 0 
L 37.796875 17.1875 
L 4.890625 17.1875 
L 4.890625 26.703125 
z
" id="DejaVuSans-52"/>
       </defs>
       <use xlink:href="#DejaVuSans-52"/>
       <use x="63.623047" xlink:href="#DejaVuSans-48"/>
       <use x="127.246094" xlink:href="#DejaVuSans-48"/>
       <use x="190.869141" xlink:href="#DejaVuSans-48"/>
       <use x="254.492188" xlink:href="#DejaVuSans-48"/>
      </g>
     </g>
    </g>
    <g id="xtick_3">
     <g id="text_3">
      <!-- 60000 -->
      <g style="fill:#262626;" transform="translate(294.850024 271.947852)scale(0.1375 -0.1375)">
       <defs>
        <path d="M 33.015625 40.375 
Q 26.375 40.375 22.484375 35.828125 
Q 18.609375 31.296875 18.609375 23.390625 
Q 18.609375 15.53125 22.484375 10.953125 
Q 26.375 6.390625 33.015625 6.390625 
Q 39.65625 6.390625 43.53125 10.953125 
Q 47.40625 15.53125 47.40625 23.390625 
Q 47.40625 31.296875 43.53125 35.828125 
Q 39.65625 40.375 33.015625 40.375 
z
M 52.59375 71.296875 
L 52.59375 62.3125 
Q 48.875 64.0625 45.09375 64.984375 
Q 41.3125 65.921875 37.59375 65.921875 
Q 27.828125 65.921875 22.671875 59.328125 
Q 17.53125 52.734375 16.796875 39.40625 
Q 19.671875 43.65625 24.015625 45.921875 
Q 28.375 48.1875 33.59375 48.1875 
Q 44.578125 48.1875 50.953125 41.515625 
Q 57.328125 34.859375 57.328125 23.390625 
Q 57.328125 12.15625 50.6875 5.359375 
Q 44.046875 -1.421875 33.015625 -1.421875 
Q 20.359375 -1.421875 13.671875 8.265625 
Q 6.984375 17.96875 6.984375 36.375 
Q 6.984375 53.65625 15.1875 63.9375 
Q 23.390625 74.21875 37.203125 74.21875 
Q 40.921875 74.21875 44.703125 73.484375 
Q 48.484375 72.75 52.59375 71.296875 
z
" id="DejaVuSans-54"/>
       </defs>
       <use xlink:href="#DejaVuSans-54"/>
       <use x="63.623047" xlink:href="#DejaVuSans-48"/>
       <use x="127.246094" xlink:href="#DejaVuSans-48"/>
       <use x="190.869141" xlink:href="#DejaVuSans-48"/>
       <use x="254.492188" xlink:href="#DejaVuSans-48"/>
      </g>
     </g>
    </g>
    <g id="xtick_4">
     <g id="text_4">
      <!-- 80000 -->
      <g style="fill:#262626;" transform="translate(344.09985 271.947852)scale(0.1375 -0.1375)">
       <defs>
        <path d="M 31.78125 34.625 
Q 24.75 34.625 20.71875 30.859375 
Q 16.703125 27.09375 16.703125 20.515625 
Q 16.703125 13.921875 20.71875 10.15625 
Q 24.75 6.390625 31.78125 6.390625 
Q 38.8125 6.390625 42.859375 10.171875 
Q 46.921875 13.96875 46.921875 20.515625 
Q 46.921875 27.09375 42.890625 30.859375 
Q 38.875 34.625 31.78125 34.625 
z
M 21.921875 38.8125 
Q 15.578125 40.375 12.03125 44.71875 
Q 8.5 49.078125 8.5 55.328125 
Q 8.5 64.0625 14.71875 69.140625 
Q 20.953125 74.21875 31.78125 74.21875 
Q 42.671875 74.21875 48.875 69.140625 
Q 55.078125 64.0625 55.078125 55.328125 
Q 55.078125 49.078125 51.53125 44.71875 
Q 48 40.375 41.703125 38.8125 
Q 48.828125 37.15625 52.796875 32.3125 
Q 56.78125 27.484375 56.78125 20.515625 
Q 56.78125 9.90625 50.3125 4.234375 
Q 43.84375 -1.421875 31.78125 -1.421875 
Q 19.734375 -1.421875 13.25 4.234375 
Q 6.78125 9.90625 6.78125 20.515625 
Q 6.78125 27.484375 10.78125 32.3125 
Q 14.796875 37.15625 21.921875 38.8125 
z
M 18.3125 54.390625 
Q 18.3125 48.734375 21.84375 45.5625 
Q 25.390625 42.390625 31.78125 42.390625 
Q 38.140625 42.390625 41.71875 45.5625 
Q 45.3125 48.734375 45.3125 54.390625 
Q 45.3125 60.0625 41.71875 63.234375 
Q 38.140625 66.40625 31.78125 66.40625 
Q 25.390625 66.40625 21.84375 63.234375 
Q 18.3125 60.0625 18.3125 54.390625 
z
" id="DejaVuSans-56"/>
       </defs>
       <use xlink:href="#DejaVuSans-56"/>
       <use x="63.623047" xlink:href="#DejaVuSans-48"/>
       <use x="127.246094" xlink:href="#DejaVuSans-48"/>
       <use x="190.869141" xlink:href="#DejaVuSans-48"/>
       <use x="254.492188" xlink:href="#DejaVuSans-48"/>
      </g>
     </g>
    </g>
    <g id="xtick_5">
     <g id="text_5">
      <!-- 100000 -->
      <g style="fill:#262626;" transform="translate(388.975458 271.947852)scale(0.1375 -0.1375)">
       <defs>
        <path d="M 12.40625 8.296875 
L 28.515625 8.296875 
L 28.515625 63.921875 
L 10.984375 60.40625 
L 10.984375 69.390625 
L 28.421875 72.90625 
L 38.28125 72.90625 
L 38.28125 8.296875 
L 54.390625 8.296875 
L 54.390625 0 
L 12.40625 0 
z
" id="DejaVuSans-49"/>
       </defs>
       <use xlink:href="#DejaVuSans-49"/>
       <use x="63.623047" xlink:href="#DejaVuSans-48"/>
       <use x="127.246094" xlink:href="#DejaVuSans-48"/>
       <use x="190.869141" xlink:href="#DejaVuSans-48"/>
       <use x="254.492188" xlink:href="#DejaVuSans-48"/>
       <use x="318.115234" xlink:href="#DejaVuSans-48"/>
      </g>
     </g>
    </g>
    <g id="xtick_6">
     <g id="text_6">
      <!-- 120000 -->
      <g style="fill:#262626;" transform="translate(438.225284 271.947852)scale(0.1375 -0.1375)">
       <use xlink:href="#DejaVuSans-49"/>
       <use x="63.623047" xlink:href="#DejaVuSans-50"/>
       <use x="127.246094" xlink:href="#DejaVuSans-48"/>
       <use x="190.869141" xlink:href="#DejaVuSans-48"/>
       <use x="254.492188" xlink:href="#DejaVuSans-48"/>
       <use x="318.115234" xlink:href="#DejaVuSans-48"/>
      </g>
     </g>
    </g>
    <g id="text_7">
     <!-- Income($) -->
     <g style="fill:#262626;" transform="translate(305.8946 290.205078)scale(0.15 -0.15)">
      <defs>
       <path d="M 9.8125 72.90625 
L 19.671875 72.90625 
L 19.671875 0 
L 9.8125 0 
z
" id="DejaVuSans-73"/>
       <path d="M 54.890625 33.015625 
L 54.890625 0 
L 45.90625 0 
L 45.90625 32.71875 
Q 45.90625 40.484375 42.875 44.328125 
Q 39.84375 48.1875 33.796875 48.1875 
Q 26.515625 48.1875 22.3125 43.546875 
Q 18.109375 38.921875 18.109375 30.90625 
L 18.109375 0 
L 9.078125 0 
L 9.078125 54.6875 
L 18.109375 54.6875 
L 18.109375 46.1875 
Q 21.34375 51.125 25.703125 53.5625 
Q 30.078125 56 35.796875 56 
Q 45.21875 56 50.046875 50.171875 
Q 54.890625 44.34375 54.890625 33.015625 
z
" id="DejaVuSans-110"/>
       <path d="M 48.78125 52.59375 
L 48.78125 44.1875 
Q 44.96875 46.296875 41.140625 47.34375 
Q 37.3125 48.390625 33.40625 48.390625 
Q 24.65625 48.390625 19.8125 42.84375 
Q 14.984375 37.3125 14.984375 27.296875 
Q 14.984375 17.28125 19.8125 11.734375 
Q 24.65625 6.203125 33.40625 6.203125 
Q 37.3125 6.203125 41.140625 7.25 
Q 44.96875 8.296875 48.78125 10.40625 
L 48.78125 2.09375 
Q 45.015625 0.34375 40.984375 -0.53125 
Q 36.96875 -1.421875 32.421875 -1.421875 
Q 20.0625 -1.421875 12.78125 6.34375 
Q 5.515625 14.109375 5.515625 27.296875 
Q 5.515625 40.671875 12.859375 48.328125 
Q 20.21875 56 33.015625 56 
Q 37.15625 56 41.109375 55.140625 
Q 45.0625 54.296875 48.78125 52.59375 
z
" id="DejaVuSans-99"/>
       <path d="M 30.609375 48.390625 
Q 23.390625 48.390625 19.1875 42.75 
Q 14.984375 37.109375 14.984375 27.296875 
Q 14.984375 17.484375 19.15625 11.84375 
Q 23.34375 6.203125 30.609375 6.203125 
Q 37.796875 6.203125 41.984375 11.859375 
Q 46.1875 17.53125 46.1875 27.296875 
Q 46.1875 37.015625 41.984375 42.703125 
Q 37.796875 48.390625 30.609375 48.390625 
z
M 30.609375 56 
Q 42.328125 56 49.015625 48.375 
Q 55.71875 40.765625 55.71875 27.296875 
Q 55.71875 13.875 49.015625 6.21875 
Q 42.328125 -1.421875 30.609375 -1.421875 
Q 18.84375 -1.421875 12.171875 6.21875 
Q 5.515625 13.875 5.515625 27.296875 
Q 5.515625 40.765625 12.171875 48.375 
Q 18.84375 56 30.609375 56 
z
" id="DejaVuSans-111"/>
       <path d="M 52 44.1875 
Q 55.375 50.25 60.0625 53.125 
Q 64.75 56 71.09375 56 
Q 79.640625 56 84.28125 50.015625 
Q 88.921875 44.046875 88.921875 33.015625 
L 88.921875 0 
L 79.890625 0 
L 79.890625 32.71875 
Q 79.890625 40.578125 77.09375 44.375 
Q 74.3125 48.1875 68.609375 48.1875 
Q 61.625 48.1875 57.5625 43.546875 
Q 53.515625 38.921875 53.515625 30.90625 
L 53.515625 0 
L 44.484375 0 
L 44.484375 32.71875 
Q 44.484375 40.625 41.703125 44.40625 
Q 38.921875 48.1875 33.109375 48.1875 
Q 26.21875 48.1875 22.15625 43.53125 
Q 18.109375 38.875 18.109375 30.90625 
L 18.109375 0 
L 9.078125 0 
L 9.078125 54.6875 
L 18.109375 54.6875 
L 18.109375 46.1875 
Q 21.1875 51.21875 25.484375 53.609375 
Q 29.78125 56 35.6875 56 
Q 41.65625 56 45.828125 52.96875 
Q 50 49.953125 52 44.1875 
z
" id="DejaVuSans-109"/>
       <path d="M 56.203125 29.59375 
L 56.203125 25.203125 
L 14.890625 25.203125 
Q 15.484375 15.921875 20.484375 11.0625 
Q 25.484375 6.203125 34.421875 6.203125 
Q 39.59375 6.203125 44.453125 7.46875 
Q 49.3125 8.734375 54.109375 11.28125 
L 54.109375 2.78125 
Q 49.265625 0.734375 44.1875 -0.34375 
Q 39.109375 -1.421875 33.890625 -1.421875 
Q 20.796875 -1.421875 13.15625 6.1875 
Q 5.515625 13.8125 5.515625 26.8125 
Q 5.515625 40.234375 12.765625 48.109375 
Q 20.015625 56 32.328125 56 
Q 43.359375 56 49.78125 48.890625 
Q 56.203125 41.796875 56.203125 29.59375 
z
M 47.21875 32.234375 
Q 47.125 39.59375 43.09375 43.984375 
Q 39.0625 48.390625 32.421875 48.390625 
Q 24.90625 48.390625 20.390625 44.140625 
Q 15.875 39.890625 15.1875 32.171875 
z
" id="DejaVuSans-101"/>
       <path d="M 31 75.875 
Q 24.46875 64.65625 21.28125 53.65625 
Q 18.109375 42.671875 18.109375 31.390625 
Q 18.109375 20.125 21.3125 9.0625 
Q 24.515625 -2 31 -13.1875 
L 23.1875 -13.1875 
Q 15.875 -1.703125 12.234375 9.375 
Q 8.59375 20.453125 8.59375 31.390625 
Q 8.59375 42.28125 12.203125 53.3125 
Q 15.828125 64.359375 23.1875 75.875 
z
" id="DejaVuSans-40"/>
       <path d="M 33.796875 -14.703125 
L 28.90625 -14.703125 
L 28.859375 0 
Q 23.734375 0.09375 18.609375 1.1875 
Q 13.484375 2.296875 8.296875 4.5 
L 8.296875 13.28125 
Q 13.28125 10.15625 18.375 8.5625 
Q 23.484375 6.984375 28.90625 6.9375 
L 28.90625 29.203125 
Q 18.109375 30.953125 13.203125 35.15625 
Q 8.296875 39.359375 8.296875 46.6875 
Q 8.296875 54.640625 13.625 59.21875 
Q 18.953125 63.8125 28.90625 64.5 
L 28.90625 75.984375 
L 33.796875 75.984375 
L 33.796875 64.65625 
Q 38.328125 64.453125 42.578125 63.6875 
Q 46.828125 62.9375 50.875 61.625 
L 50.875 53.078125 
Q 46.828125 55.125 42.546875 56.25 
Q 38.28125 57.375 33.796875 57.5625 
L 33.796875 36.71875 
Q 44.875 35.015625 50.09375 30.609375 
Q 55.328125 26.21875 55.328125 18.609375 
Q 55.328125 10.359375 49.78125 5.59375 
Q 44.234375 0.828125 33.796875 0.09375 
z
M 28.90625 37.59375 
L 28.90625 57.625 
Q 23.25 56.984375 20.265625 54.390625 
Q 17.28125 51.8125 17.28125 47.515625 
Q 17.28125 43.3125 20.03125 40.96875 
Q 22.796875 38.625 28.90625 37.59375 
z
M 33.796875 28.21875 
L 33.796875 7.078125 
Q 39.984375 7.90625 43.140625 10.59375 
Q 46.296875 13.28125 46.296875 17.671875 
Q 46.296875 21.96875 43.28125 24.5 
Q 40.28125 27.046875 33.796875 28.21875 
z
" id="DejaVuSans-36"/>
       <path d="M 8.015625 75.875 
L 15.828125 75.875 
Q 23.140625 64.359375 26.78125 53.3125 
Q 30.421875 42.28125 30.421875 31.390625 
Q 30.421875 20.453125 26.78125 9.375 
Q 23.140625 -1.703125 15.828125 -13.1875 
L 8.015625 -13.1875 
Q 14.5 -2 17.703125 9.0625 
Q 20.90625 20.125 20.90625 31.390625 
Q 20.90625 42.671875 17.703125 53.65625 
Q 14.5 64.65625 8.015625 75.875 
z
" id="DejaVuSans-41"/>
      </defs>
      <use xlink:href="#DejaVuSans-73"/>
      <use x="29.492188" xlink:href="#DejaVuSans-110"/>
      <use x="92.871094" xlink:href="#DejaVuSans-99"/>
      <use x="147.851562" xlink:href="#DejaVuSans-111"/>
      <use x="209.033203" xlink:href="#DejaVuSans-109"/>
      <use x="306.445312" xlink:href="#DejaVuSans-101"/>
      <use x="367.96875" xlink:href="#DejaVuSans-40"/>
      <use x="406.982422" xlink:href="#DejaVuSans-36"/>
      <use x="470.605469" xlink:href="#DejaVuSans-41"/>
     </g>
    </g>
   </g>
   <g id="matplotlib.axis_2">
    <g id="ytick_1">
     <g id="text_8">
      <!-- 0.0 -->
      <g style="fill:#262626;" transform="translate(148.633203 257.223926)scale(0.1375 -0.1375)">
       <defs>
        <path d="M 10.6875 12.40625 
L 21 12.40625 
L 21 0 
L 10.6875 0 
z
" id="DejaVuSans-46"/>
       </defs>
       <use xlink:href="#DejaVuSans-48"/>
       <use x="63.623047" xlink:href="#DejaVuSans-46"/>
       <use x="95.410156" xlink:href="#DejaVuSans-48"/>
      </g>
     </g>
    </g>
    <g id="ytick_2">
     <g id="text_9">
      <!-- 0.5 -->
      <g style="fill:#262626;" transform="translate(148.633203 215.694845)scale(0.1375 -0.1375)">
       <defs>
        <path d="M 10.796875 72.90625 
L 49.515625 72.90625 
L 49.515625 64.59375 
L 19.828125 64.59375 
L 19.828125 46.734375 
Q 21.96875 47.46875 24.109375 47.828125 
Q 26.265625 48.1875 28.421875 48.1875 
Q 40.625 48.1875 47.75 41.5 
Q 54.890625 34.8125 54.890625 23.390625 
Q 54.890625 11.625 47.5625 5.09375 
Q 40.234375 -1.421875 26.90625 -1.421875 
Q 22.3125 -1.421875 17.546875 -0.640625 
Q 12.796875 0.140625 7.71875 1.703125 
L 7.71875 11.625 
Q 12.109375 9.234375 16.796875 8.0625 
Q 21.484375 6.890625 26.703125 6.890625 
Q 35.15625 6.890625 40.078125 11.328125 
Q 45.015625 15.765625 45.015625 23.390625 
Q 45.015625 31 40.078125 35.4375 
Q 35.15625 39.890625 26.703125 39.890625 
Q 22.75 39.890625 18.8125 39.015625 
Q 14.890625 38.140625 10.796875 36.28125 
z
" id="DejaVuSans-53"/>
       </defs>
       <use xlink:href="#DejaVuSans-48"/>
       <use x="63.623047" xlink:href="#DejaVuSans-46"/>
       <use x="95.410156" xlink:href="#DejaVuSans-53"/>
      </g>
     </g>
    </g>
    <g id="ytick_3">
     <g id="text_10">
      <!-- 1.0 -->
      <g style="fill:#262626;" transform="translate(148.633203 174.165764)scale(0.1375 -0.1375)">
       <use xlink:href="#DejaVuSans-49"/>
       <use x="63.623047" xlink:href="#DejaVuSans-46"/>
       <use x="95.410156" xlink:href="#DejaVuSans-48"/>
      </g>
     </g>
    </g>
    <g id="ytick_4">
     <g id="text_11">
      <!-- 1.5 -->
      <g style="fill:#262626;" transform="translate(148.633203 132.636683)scale(0.1375 -0.1375)">
       <use xlink:href="#DejaVuSans-49"/>
       <use x="63.623047" xlink:href="#DejaVuSans-46"/>
       <use x="95.410156" xlink:href="#DejaVuSans-53"/>
      </g>
     </g>
    </g>
    <g id="ytick_5">
     <g id="text_12">
      <!-- 2.0 -->
      <g style="fill:#262626;" transform="translate(148.633203 91.107601)scale(0.1375 -0.1375)">
       <use xlink:href="#DejaVuSans-50"/>
       <use x="63.623047" xlink:href="#DejaVuSans-46"/>
       <use x="95.410156" xlink:href="#DejaVuSans-48"/>
      </g>
     </g>
    </g>
    <g id="ytick_6">
     <g id="text_13">
      <!-- 2.5 -->
      <g style="fill:#262626;" transform="translate(148.633203 49.57852)scale(0.1375 -0.1375)">
       <use xlink:href="#DejaVuSans-50"/>
       <use x="63.623047" xlink:href="#DejaVuSans-46"/>
       <use x="95.410156" xlink:href="#DejaVuSans-53"/>
      </g>
     </g>
    </g>
    <g id="text_14">
     <!-- Distribution -->
     <g style="fill:#262626;" transform="translate(141.513672 187.033125)rotate(-90)scale(0.15 -0.15)">
      <defs>
       <path d="M 19.671875 64.796875 
L 19.671875 8.109375 
L 31.59375 8.109375 
Q 46.6875 8.109375 53.6875 14.9375 
Q 60.6875 21.78125 60.6875 36.53125 
Q 60.6875 51.171875 53.6875 57.984375 
Q 46.6875 64.796875 31.59375 64.796875 
z
M 9.8125 72.90625 
L 30.078125 72.90625 
Q 51.265625 72.90625 61.171875 64.09375 
Q 71.09375 55.28125 71.09375 36.53125 
Q 71.09375 17.671875 61.125 8.828125 
Q 51.171875 0 30.078125 0 
L 9.8125 0 
z
" id="DejaVuSans-68"/>
       <path d="M 9.421875 54.6875 
L 18.40625 54.6875 
L 18.40625 0 
L 9.421875 0 
z
M 9.421875 75.984375 
L 18.40625 75.984375 
L 18.40625 64.59375 
L 9.421875 64.59375 
z
" id="DejaVuSans-105"/>
       <path d="M 44.28125 53.078125 
L 44.28125 44.578125 
Q 40.484375 46.53125 36.375 47.5 
Q 32.28125 48.484375 27.875 48.484375 
Q 21.1875 48.484375 17.84375 46.4375 
Q 14.5 44.390625 14.5 40.28125 
Q 14.5 37.15625 16.890625 35.375 
Q 19.28125 33.59375 26.515625 31.984375 
L 29.59375 31.296875 
Q 39.15625 29.25 43.1875 25.515625 
Q 47.21875 21.78125 47.21875 15.09375 
Q 47.21875 7.46875 41.1875 3.015625 
Q 35.15625 -1.421875 24.609375 -1.421875 
Q 20.21875 -1.421875 15.453125 -0.5625 
Q 10.6875 0.296875 5.421875 2 
L 5.421875 11.28125 
Q 10.40625 8.6875 15.234375 7.390625 
Q 20.0625 6.109375 24.8125 6.109375 
Q 31.15625 6.109375 34.5625 8.28125 
Q 37.984375 10.453125 37.984375 14.40625 
Q 37.984375 18.0625 35.515625 20.015625 
Q 33.0625 21.96875 24.703125 23.78125 
L 21.578125 24.515625 
Q 13.234375 26.265625 9.515625 29.90625 
Q 5.8125 33.546875 5.8125 39.890625 
Q 5.8125 47.609375 11.28125 51.796875 
Q 16.75 56 26.8125 56 
Q 31.78125 56 36.171875 55.265625 
Q 40.578125 54.546875 44.28125 53.078125 
z
" id="DejaVuSans-115"/>
       <path d="M 18.3125 70.21875 
L 18.3125 54.6875 
L 36.8125 54.6875 
L 36.8125 47.703125 
L 18.3125 47.703125 
L 18.3125 18.015625 
Q 18.3125 11.328125 20.140625 9.421875 
Q 21.96875 7.515625 27.59375 7.515625 
L 36.8125 7.515625 
L 36.8125 0 
L 27.59375 0 
Q 17.1875 0 13.234375 3.875 
Q 9.28125 7.765625 9.28125 18.015625 
L 9.28125 47.703125 
L 2.6875 47.703125 
L 2.6875 54.6875 
L 9.28125 54.6875 
L 9.28125 70.21875 
z
" id="DejaVuSans-116"/>
       <path d="M 41.109375 46.296875 
Q 39.59375 47.171875 37.8125 47.578125 
Q 36.03125 48 33.890625 48 
Q 26.265625 48 22.1875 43.046875 
Q 18.109375 38.09375 18.109375 28.8125 
L 18.109375 0 
L 9.078125 0 
L 9.078125 54.6875 
L 18.109375 54.6875 
L 18.109375 46.1875 
Q 20.953125 51.171875 25.484375 53.578125 
Q 30.03125 56 36.53125 56 
Q 37.453125 56 38.578125 55.875 
Q 39.703125 55.765625 41.0625 55.515625 
z
" id="DejaVuSans-114"/>
       <path d="M 48.6875 27.296875 
Q 48.6875 37.203125 44.609375 42.84375 
Q 40.53125 48.484375 33.40625 48.484375 
Q 26.265625 48.484375 22.1875 42.84375 
Q 18.109375 37.203125 18.109375 27.296875 
Q 18.109375 17.390625 22.1875 11.75 
Q 26.265625 6.109375 33.40625 6.109375 
Q 40.53125 6.109375 44.609375 11.75 
Q 48.6875 17.390625 48.6875 27.296875 
z
M 18.109375 46.390625 
Q 20.953125 51.265625 25.265625 53.625 
Q 29.59375 56 35.59375 56 
Q 45.5625 56 51.78125 48.09375 
Q 58.015625 40.1875 58.015625 27.296875 
Q 58.015625 14.40625 51.78125 6.484375 
Q 45.5625 -1.421875 35.59375 -1.421875 
Q 29.59375 -1.421875 25.265625 0.953125 
Q 20.953125 3.328125 18.109375 8.203125 
L 18.109375 0 
L 9.078125 0 
L 9.078125 75.984375 
L 18.109375 75.984375 
z
" id="DejaVuSans-98"/>
       <path d="M 8.5 21.578125 
L 8.5 54.6875 
L 17.484375 54.6875 
L 17.484375 21.921875 
Q 17.484375 14.15625 20.5 10.265625 
Q 23.53125 6.390625 29.59375 6.390625 
Q 36.859375 6.390625 41.078125 11.03125 
Q 45.3125 15.671875 45.3125 23.6875 
L 45.3125 54.6875 
L 54.296875 54.6875 
L 54.296875 0 
L 45.3125 0 
L 45.3125 8.40625 
Q 42.046875 3.421875 37.71875 1 
Q 33.40625 -1.421875 27.6875 -1.421875 
Q 18.265625 -1.421875 13.375 4.4375 
Q 8.5 10.296875 8.5 21.578125 
z
M 31.109375 56 
z
" id="DejaVuSans-117"/>
      </defs>
      <use xlink:href="#DejaVuSans-68"/>
      <use x="77.001953" xlink:href="#DejaVuSans-105"/>
      <use x="104.785156" xlink:href="#DejaVuSans-115"/>
      <use x="156.884766" xlink:href="#DejaVuSans-116"/>
      <use x="196.09375" xlink:href="#DejaVuSans-114"/>
      <use x="237.207031" xlink:href="#DejaVuSans-105"/>
      <use x="264.990234" xlink:href="#DejaVuSans-98"/>
      <use x="328.466797" xlink:href="#DejaVuSans-117"/>
      <use x="391.845703" xlink:href="#DejaVuSans-116"/>
      <use x="431.054688" xlink:href="#DejaVuSans-105"/>
      <use x="458.837891" xlink:href="#DejaVuSans-111"/>
      <use x="520.019531" xlink:href="#DejaVuSans-110"/>
     </g>
    </g>
    <g id="text_15">
     <!-- 1e−5 -->
     <g style="fill:#262626;" transform="translate(180 31.56)scale(0.1375 -0.1375)">
      <defs>
       <path d="M 10.59375 35.5 
L 73.1875 35.5 
L 73.1875 27.203125 
L 10.59375 27.203125 
z
" id="DejaVuSans-8722"/>
      </defs>
      <use xlink:href="#DejaVuSans-49"/>
      <use x="63.623047" xlink:href="#DejaVuSans-101"/>
      <use x="125.146484" xlink:href="#DejaVuSans-8722"/>
      <use x="208.935547" xlink:href="#DejaVuSans-53"/>
     </g>
    </g>
   </g>
   <g id="patch_3">
    <path clip-path="url(#pe1be396e49)" d="M 242.846378 252 
L 265.008799 252 
L 265.008799 177.014114 
L 242.846378 177.014114 
z
" style="fill:#c44e52;opacity:0.4;stroke:#ffffff;stroke-linejoin:miter;"/>
   </g>
   <g id="patch_4">
    <path clip-path="url(#pe1be396e49)" d="M 265.008799 252 
L 287.171221 252 
L 287.171221 178.971577 
L 265.008799 178.971577 
z
" style="fill:#c44e52;opacity:0.4;stroke:#ffffff;stroke-linejoin:miter;"/>
   </g>
   <g id="patch_5">
    <path clip-path="url(#pe1be396e49)" d="M 287.171221 252 
L 309.333643 252 
L 309.333643 138.01543 
L 287.171221 138.01543 
z
" style="fill:#c44e52;opacity:0.4;stroke:#ffffff;stroke-linejoin:miter;"/>
   </g>
   <g id="patch_6">
    <path clip-path="url(#pe1be396e49)" d="M 309.333643 252 
L 331.496065 252 
L 331.496065 127.926967 
L 309.333643 127.926967 
z
" style="fill:#c44e52;opacity:0.4;stroke:#ffffff;stroke-linejoin:miter;"/>
   </g>
   <g id="patch_7">
    <path clip-path="url(#pe1be396e49)" d="M 331.496065 252 
L 353.658487 252 
L 353.658487 111.664968 
L 331.496065 111.664968 
z
" style="fill:#c44e52;opacity:0.4;stroke:#ffffff;stroke-linejoin:miter;"/>
   </g>
   <g id="patch_8">
    <path clip-path="url(#pe1be396e49)" d="M 353.658487 252 
L 375.820909 252 
L 375.820909 135.154523 
L 353.658487 135.154523 
z
" style="fill:#c44e52;opacity:0.4;stroke:#ffffff;stroke-linejoin:miter;"/>
   </g>
   <g id="patch_9">
    <path clip-path="url(#pe1be396e49)" d="M 375.820909 252 
L 397.983331 252 
L 397.983331 154.277429 
L 375.820909 154.277429 
z
" style="fill:#c44e52;opacity:0.4;stroke:#ffffff;stroke-linejoin:miter;"/>
   </g>
   <g id="patch_10">
    <path clip-path="url(#pe1be396e49)" d="M 397.983331 252 
L 420.145753 252 
L 420.145753 167.527947 
L 397.983331 167.527947 
z
" style="fill:#c44e52;opacity:0.4;stroke:#ffffff;stroke-linejoin:miter;"/>
   </g>
   <g id="patch_11">
    <path clip-path="url(#pe1be396e49)" d="M 420.145753 252 
L 442.308175 252 
L 442.308175 200.051946 
L 420.145753 200.051946 
z
" style="fill:#c44e52;opacity:0.4;stroke:#ffffff;stroke-linejoin:miter;"/>
   </g>
   <g id="patch_12">
    <path clip-path="url(#pe1be396e49)" d="M 442.308175 252 
L 464.470597 252 
L 464.470597 206.526631 
L 442.308175 206.526631 
z
" style="fill:#c44e52;opacity:0.4;stroke:#ffffff;stroke-linejoin:miter;"/>
   </g>
   <g id="line2d_1">
    <path clip-path="url(#pe1be396e49)" d="M 214.001466 251.888625 
L 216.808643 251.721162 
L 219.615819 251.354453 
L 221.019407 251.045899 
L 222.422995 250.616677 
L 223.826583 250.032202 
L 225.230172 249.253135 
L 226.63376 248.236652 
L 228.037348 246.938483 
L 229.440936 245.315709 
L 230.844524 243.330209 
L 232.248112 240.952523 
L 233.651701 238.165766 
L 235.055289 234.969152 
L 236.458877 231.380662 
L 239.266053 223.200292 
L 243.476818 209.53276 
L 246.283994 200.596722 
L 249.09117 192.664602 
L 250.494758 189.245745 
L 251.898346 186.245711 
L 253.301935 183.680416 
L 254.705523 181.547695 
L 256.109111 179.830057 
L 257.512699 178.498114 
L 258.916287 177.514199 
L 260.319875 176.83571 
L 261.723463 176.417843 
L 263.127052 176.21552 
L 264.53064 176.184432 
L 267.337816 176.463464 
L 271.548581 177.08926 
L 272.952169 177.173205 
L 274.355757 177.11516 
L 275.759345 176.866096 
L 277.162933 176.378256 
L 278.566521 175.607492 
L 279.970109 174.516027 
L 281.373698 173.075394 
L 282.777286 171.269254 
L 284.180874 169.095744 
L 285.584462 166.569083 
L 286.98805 163.720144 
L 289.795226 157.257366 
L 296.813167 140.055416 
L 298.216755 137.059362 
L 299.620343 134.361262 
L 301.023932 132.0008 
L 302.42752 130.002977 
L 303.831108 128.378493 
L 305.234696 127.124952 
L 306.638284 126.228641 
L 308.041872 125.666601 
L 309.445461 125.408765 
L 310.849049 125.419934 
L 312.252637 125.661443 
L 313.656225 126.092458 
L 316.463401 127.353671 
L 322.077754 130.247093 
L 323.481342 130.78349 
L 324.88493 131.151886 
L 326.288518 131.30636 
L 327.692106 131.20383 
L 329.095695 130.806677 
L 330.499283 130.086039 
L 331.902871 129.02554 
L 333.306459 127.625072 
L 334.710047 125.904115 
L 336.113635 123.904015 
L 338.920812 119.343204 
L 341.727988 114.685048 
L 343.131576 112.606465 
L 344.535164 110.850075 
L 345.938752 109.518735 
L 347.342341 108.694852 
L 348.745929 108.434168 
L 350.149517 108.761856 
L 351.553105 109.67134 
L 352.956693 111.12586 
L 354.360281 113.062481 
L 355.763869 115.397978 
L 358.571046 120.873696 
L 362.78181 129.61403 
L 365.588986 134.854003 
L 366.992575 137.148017 
L 368.396163 139.198201 
L 369.799751 141.004806 
L 371.203339 142.582058 
L 372.606927 143.955765 
L 375.414104 146.236577 
L 385.239221 153.218017 
L 393.660749 159.934039 
L 397.871514 162.748812 
L 402.082278 165.556706 
L 404.889455 167.861995 
L 406.293043 169.236094 
L 407.696631 170.781095 
L 410.503807 174.385666 
L 413.310984 178.558862 
L 418.925336 187.389622 
L 421.732512 191.316645 
L 423.136101 193.029814 
L 424.539689 194.551417 
L 425.943277 195.876908 
L 427.346865 197.01247 
L 428.750453 197.97368 
L 431.557629 199.470242 
L 434.364806 200.59771 
L 439.979158 202.668875 
L 442.786335 203.961436 
L 445.593511 205.587086 
L 448.400687 207.651144 
L 449.804275 208.882491 
L 451.207864 210.265402 
L 452.611452 211.812084 
L 454.01504 213.531372 
L 456.822216 217.495513 
L 459.629392 222.097273 
L 463.840157 229.730362 
L 466.647333 234.818801 
L 469.454509 239.479436 
L 470.858098 241.553902 
L 472.261686 243.422969 
L 473.665274 245.072669 
L 475.068862 246.498844 
L 476.47245 247.706292 
L 477.876038 248.707317 
L 479.279627 249.519896 
L 480.683215 250.165699 
L 482.086803 250.668189 
L 484.893979 251.336378 
L 487.701155 251.693633 
L 491.91192 251.916933 
L 493.315508 251.94831 
L 493.315508 251.94831 
" style="fill:none;stroke:#c44e52;stroke-linecap:round;stroke-width:1.5;"/>
   </g>
   <g id="patch_13">
    <path d="M 180 252 
L 180 34.56 
" style="fill:none;stroke:#262626;stroke-linecap:square;stroke-linejoin:miter;stroke-width:1.25;"/>
   </g>
   <g id="patch_14">
    <path d="M 508.235294 252 
L 508.235294 34.56 
" style="fill:none;stroke:#262626;stroke-linecap:square;stroke-linejoin:miter;stroke-width:1.25;"/>
   </g>
   <g id="patch_15">
    <path d="M 180 252 
L 508.235294 252 
" style="fill:none;stroke:#262626;stroke-linecap:square;stroke-linejoin:miter;stroke-width:1.25;"/>
   </g>
   <g id="patch_16">
    <path d="M 180 34.56 
L 508.235294 34.56 
" style="fill:none;stroke:#262626;stroke-linecap:square;stroke-linejoin:miter;stroke-width:1.25;"/>
   </g>
   <g id="text_16">
    <!-- Female's Income Distribution -->
    <g style="fill:#262626;" transform="translate(234.914131 28.56)scale(0.15 -0.15)">
     <defs>
      <path d="M 9.8125 72.90625 
L 51.703125 72.90625 
L 51.703125 64.59375 
L 19.671875 64.59375 
L 19.671875 43.109375 
L 48.578125 43.109375 
L 48.578125 34.8125 
L 19.671875 34.8125 
L 19.671875 0 
L 9.8125 0 
z
" id="DejaVuSans-70"/>
      <path d="M 34.28125 27.484375 
Q 23.390625 27.484375 19.1875 25 
Q 14.984375 22.515625 14.984375 16.5 
Q 14.984375 11.71875 18.140625 8.90625 
Q 21.296875 6.109375 26.703125 6.109375 
Q 34.1875 6.109375 38.703125 11.40625 
Q 43.21875 16.703125 43.21875 25.484375 
L 43.21875 27.484375 
z
M 52.203125 31.203125 
L 52.203125 0 
L 43.21875 0 
L 43.21875 8.296875 
Q 40.140625 3.328125 35.546875 0.953125 
Q 30.953125 -1.421875 24.3125 -1.421875 
Q 15.921875 -1.421875 10.953125 3.296875 
Q 6 8.015625 6 15.921875 
Q 6 25.140625 12.171875 29.828125 
Q 18.359375 34.515625 30.609375 34.515625 
L 43.21875 34.515625 
L 43.21875 35.40625 
Q 43.21875 41.609375 39.140625 45 
Q 35.0625 48.390625 27.6875 48.390625 
Q 23 48.390625 18.546875 47.265625 
Q 14.109375 46.140625 10.015625 43.890625 
L 10.015625 52.203125 
Q 14.9375 54.109375 19.578125 55.046875 
Q 24.21875 56 28.609375 56 
Q 40.484375 56 46.34375 49.84375 
Q 52.203125 43.703125 52.203125 31.203125 
z
" id="DejaVuSans-97"/>
      <path d="M 9.421875 75.984375 
L 18.40625 75.984375 
L 18.40625 0 
L 9.421875 0 
z
" id="DejaVuSans-108"/>
      <path d="M 17.921875 72.90625 
L 17.921875 45.796875 
L 9.625 45.796875 
L 9.625 72.90625 
z
" id="DejaVuSans-39"/>
      <path id="DejaVuSans-32"/>
     </defs>
     <use xlink:href="#DejaVuSans-70"/>
     <use x="52.019531" xlink:href="#DejaVuSans-101"/>
     <use x="113.542969" xlink:href="#DejaVuSans-109"/>
     <use x="210.955078" xlink:href="#DejaVuSans-97"/>
     <use x="272.234375" xlink:href="#DejaVuSans-108"/>
     <use x="300.017578" xlink:href="#DejaVuSans-101"/>
     <use x="361.541016" xlink:href="#DejaVuSans-39"/>
     <use x="389.03125" xlink:href="#DejaVuSans-115"/>
     <use x="441.130859" xlink:href="#DejaVuSans-32"/>
     <use x="472.917969" xlink:href="#DejaVuSans-73"/>
     <use x="502.410156" xlink:href="#DejaVuSans-110"/>
     <use x="565.789062" xlink:href="#DejaVuSans-99"/>
     <use x="620.769531" xlink:href="#DejaVuSans-111"/>
     <use x="681.951172" xlink:href="#DejaVuSans-109"/>
     <use x="779.363281" xlink:href="#DejaVuSans-101"/>
     <use x="840.886719" xlink:href="#DejaVuSans-32"/>
     <use x="872.673828" xlink:href="#DejaVuSans-68"/>
     <use x="949.675781" xlink:href="#DejaVuSans-105"/>
     <use x="977.458984" xlink:href="#DejaVuSans-115"/>
     <use x="1029.558594" xlink:href="#DejaVuSans-116"/>
     <use x="1068.767578" xlink:href="#DejaVuSans-114"/>
     <use x="1109.880859" xlink:href="#DejaVuSans-105"/>
     <use x="1137.664062" xlink:href="#DejaVuSans-98"/>
     <use x="1201.140625" xlink:href="#DejaVuSans-117"/>
     <use x="1264.519531" xlink:href="#DejaVuSans-116"/>
     <use x="1303.728516" xlink:href="#DejaVuSans-105"/>
     <use x="1331.511719" xlink:href="#DejaVuSans-111"/>
     <use x="1392.693359" xlink:href="#DejaVuSans-110"/>
    </g>
   </g>
  </g>
  <g id="axes_2">
   <g id="patch_17">
    <path d="M 573.882353 252 
L 902.117647 252 
L 902.117647 34.56 
L 573.882353 34.56 
z
" style="fill:#ffffff;"/>
   </g>
   <g id="matplotlib.axis_3">
    <g id="xtick_7">
     <g id="text_17">
      <!-- 20000 -->
      <g style="fill:#262626;" transform="translate(590.232723 271.947852)scale(0.1375 -0.1375)">
       <use xlink:href="#DejaVuSans-50"/>
       <use x="63.623047" xlink:href="#DejaVuSans-48"/>
       <use x="127.246094" xlink:href="#DejaVuSans-48"/>
       <use x="190.869141" xlink:href="#DejaVuSans-48"/>
       <use x="254.492188" xlink:href="#DejaVuSans-48"/>
      </g>
     </g>
    </g>
    <g id="xtick_8">
     <g id="text_18">
      <!-- 40000 -->
      <g style="fill:#262626;" transform="translate(639.48255 271.947852)scale(0.1375 -0.1375)">
       <use xlink:href="#DejaVuSans-52"/>
       <use x="63.623047" xlink:href="#DejaVuSans-48"/>
       <use x="127.246094" xlink:href="#DejaVuSans-48"/>
       <use x="190.869141" xlink:href="#DejaVuSans-48"/>
       <use x="254.492188" xlink:href="#DejaVuSans-48"/>
      </g>
     </g>
    </g>
    <g id="xtick_9">
     <g id="text_19">
      <!-- 60000 -->
      <g style="fill:#262626;" transform="translate(688.732377 271.947852)scale(0.1375 -0.1375)">
       <use xlink:href="#DejaVuSans-54"/>
       <use x="63.623047" xlink:href="#DejaVuSans-48"/>
       <use x="127.246094" xlink:href="#DejaVuSans-48"/>
       <use x="190.869141" xlink:href="#DejaVuSans-48"/>
       <use x="254.492188" xlink:href="#DejaVuSans-48"/>
      </g>
     </g>
    </g>
    <g id="xtick_10">
     <g id="text_20">
      <!-- 80000 -->
      <g style="fill:#262626;" transform="translate(737.982203 271.947852)scale(0.1375 -0.1375)">
       <use xlink:href="#DejaVuSans-56"/>
       <use x="63.623047" xlink:href="#DejaVuSans-48"/>
       <use x="127.246094" xlink:href="#DejaVuSans-48"/>
       <use x="190.869141" xlink:href="#DejaVuSans-48"/>
       <use x="254.492188" xlink:href="#DejaVuSans-48"/>
      </g>
     </g>
    </g>
    <g id="xtick_11">
     <g id="text_21">
      <!-- 100000 -->
      <g style="fill:#262626;" transform="translate(782.857811 271.947852)scale(0.1375 -0.1375)">
       <use xlink:href="#DejaVuSans-49"/>
       <use x="63.623047" xlink:href="#DejaVuSans-48"/>
       <use x="127.246094" xlink:href="#DejaVuSans-48"/>
       <use x="190.869141" xlink:href="#DejaVuSans-48"/>
       <use x="254.492188" xlink:href="#DejaVuSans-48"/>
       <use x="318.115234" xlink:href="#DejaVuSans-48"/>
      </g>
     </g>
    </g>
    <g id="xtick_12">
     <g id="text_22">
      <!-- 120000 -->
      <g style="fill:#262626;" transform="translate(832.107637 271.947852)scale(0.1375 -0.1375)">
       <use xlink:href="#DejaVuSans-49"/>
       <use x="63.623047" xlink:href="#DejaVuSans-50"/>
       <use x="127.246094" xlink:href="#DejaVuSans-48"/>
       <use x="190.869141" xlink:href="#DejaVuSans-48"/>
       <use x="254.492188" xlink:href="#DejaVuSans-48"/>
       <use x="318.115234" xlink:href="#DejaVuSans-48"/>
      </g>
     </g>
    </g>
    <g id="text_23">
     <!-- Income($) -->
     <g style="fill:#262626;" transform="translate(699.776953 290.205078)scale(0.15 -0.15)">
      <use xlink:href="#DejaVuSans-73"/>
      <use x="29.492188" xlink:href="#DejaVuSans-110"/>
      <use x="92.871094" xlink:href="#DejaVuSans-99"/>
      <use x="147.851562" xlink:href="#DejaVuSans-111"/>
      <use x="209.033203" xlink:href="#DejaVuSans-109"/>
      <use x="306.445312" xlink:href="#DejaVuSans-101"/>
      <use x="367.96875" xlink:href="#DejaVuSans-40"/>
      <use x="406.982422" xlink:href="#DejaVuSans-36"/>
      <use x="470.605469" xlink:href="#DejaVuSans-41"/>
     </g>
    </g>
   </g>
   <g id="matplotlib.axis_4">
    <g id="ytick_7"/>
    <g id="ytick_8"/>
    <g id="ytick_9"/>
    <g id="ytick_10"/>
    <g id="ytick_11"/>
    <g id="ytick_12"/>
   </g>
   <g id="patch_18">
    <path clip-path="url(#p447e150f0f)" d="M 636.72873 252 
L 658.891152 252 
L 658.891152 120.814312 
L 636.72873 120.814312 
z
" style="fill:#8172b3;opacity:0.4;stroke:#ffffff;stroke-linejoin:miter;"/>
   </g>
   <g id="patch_19">
    <path clip-path="url(#p447e150f0f)" d="M 658.891152 252 
L 681.053574 252 
L 681.053574 121.031868 
L 658.891152 121.031868 
z
" style="fill:#8172b3;opacity:0.4;stroke:#ffffff;stroke-linejoin:miter;"/>
   </g>
   <g id="patch_20">
    <path clip-path="url(#p447e150f0f)" d="M 681.053574 252 
L 703.215996 252 
L 703.215996 95.034041 
L 681.053574 95.034041 
z
" style="fill:#8172b3;opacity:0.4;stroke:#ffffff;stroke-linejoin:miter;"/>
   </g>
   <g id="patch_21">
    <path clip-path="url(#p447e150f0f)" d="M 703.215996 252 
L 725.378418 252 
L 725.378418 105.803015 
L 703.215996 105.803015 
z
" style="fill:#8172b3;opacity:0.4;stroke:#ffffff;stroke-linejoin:miter;"/>
   </g>
   <g id="patch_22">
    <path clip-path="url(#p447e150f0f)" d="M 725.378418 252 
L 747.54084 252 
L 747.54084 101.234359 
L 725.378418 101.234359 
z
" style="fill:#8172b3;opacity:0.4;stroke:#ffffff;stroke-linejoin:miter;"/>
   </g>
   <g id="patch_23">
    <path clip-path="url(#p447e150f0f)" d="M 747.54084 252 
L 769.703262 252 
L 769.703262 182.708721 
L 747.54084 182.708721 
z
" style="fill:#8172b3;opacity:0.4;stroke:#ffffff;stroke-linejoin:miter;"/>
   </g>
   <g id="patch_24">
    <path clip-path="url(#p447e150f0f)" d="M 769.703262 252 
L 791.865684 252 
L 791.865684 193.69525 
L 769.703262 193.69525 
z
" style="fill:#8172b3;opacity:0.4;stroke:#ffffff;stroke-linejoin:miter;"/>
   </g>
   <g id="patch_25">
    <path clip-path="url(#p447e150f0f)" d="M 791.865684 252 
L 814.028106 252 
L 814.028106 206.639775 
L 791.865684 206.639775 
z
" style="fill:#8172b3;opacity:0.4;stroke:#ffffff;stroke-linejoin:miter;"/>
   </g>
   <g id="patch_26">
    <path clip-path="url(#p447e150f0f)" d="M 814.028106 252 
L 836.190528 252 
L 836.190528 235.35704 
L 814.028106 235.35704 
z
" style="fill:#8172b3;opacity:0.4;stroke:#ffffff;stroke-linejoin:miter;"/>
   </g>
   <g id="patch_27">
    <path clip-path="url(#p447e150f0f)" d="M 836.190528 252 
L 858.35295 252 
L 858.35295 234.813152 
L 836.190528 234.813152 
z
" style="fill:#8172b3;opacity:0.4;stroke:#ffffff;stroke-linejoin:miter;"/>
   </g>
   <g id="line2d_2">
    <path clip-path="url(#p447e150f0f)" d="M 612.445147 251.804244 
L 615.160639 251.445183 
L 616.518384 251.101059 
L 617.87613 250.579865 
L 619.233876 249.812065 
L 620.591621 248.711895 
L 621.949367 247.178592 
L 623.307113 245.100113 
L 624.664858 242.359796 
L 626.022604 238.845969 
L 627.38035 234.464037 
L 628.738095 229.14989 
L 630.095841 222.882968 
L 631.453587 215.696913 
L 632.811332 207.685763 
L 635.526824 189.859651 
L 639.600061 162.210691 
L 640.957806 153.790962 
L 642.315552 146.137126 
L 643.673298 139.394204 
L 645.031043 133.644468 
L 646.388789 128.908234 
L 647.746534 125.151156 
L 649.10428 122.296226 
L 650.462026 120.23815 
L 651.819771 118.857723 
L 653.177517 118.034195 
L 654.535263 117.654324 
L 655.893008 117.617598 
L 657.250754 117.837901 
L 658.6085 118.242462 
L 661.323991 119.363806 
L 664.039482 120.562795 
L 666.754974 121.48469 
L 668.112719 121.745036 
L 669.470465 121.827597 
L 670.828211 121.70421 
L 672.185956 121.350172 
L 673.543702 120.743806 
L 674.901448 119.866526 
L 676.259193 118.703881 
L 677.616939 117.247803 
L 678.974685 115.49991 
L 680.33243 113.475302 
L 683.047922 108.742746 
L 688.478904 98.543669 
L 689.83665 96.377273 
L 691.194395 94.53969 
L 692.552141 93.091957 
L 693.909887 92.071891 
L 695.267632 91.492789 
L 696.625378 91.344633 
L 697.983124 91.597249 
L 699.340869 92.204737 
L 700.698615 93.110394 
L 702.056361 94.251545 
L 704.771852 96.984736 
L 708.845089 101.351979 
L 711.56058 103.930042 
L 712.918326 105.033621 
L 714.276072 105.992274 
L 715.633817 106.797268 
L 716.991563 107.444389 
L 718.349309 107.932954 
L 719.707054 108.265042 
L 721.0648 108.445105 
L 722.422546 108.480135 
L 723.780291 108.380517 
L 726.495783 107.846335 
L 730.569019 106.719939 
L 731.926765 106.491148 
L 733.284511 106.479091 
L 734.642256 106.789638 
L 736.000002 107.533993 
L 737.357748 108.819454 
L 738.715493 110.738346 
L 740.073239 113.356499 
L 741.430985 116.702959 
L 742.78873 120.762706 
L 744.146476 125.473834 
L 746.861967 136.388416 
L 752.29295 159.644559 
L 753.650696 164.833027 
L 755.008441 169.551424 
L 756.366187 173.752427 
L 757.723933 177.423218 
L 759.081678 180.579464 
L 760.439424 183.257657 
L 761.79717 185.507163 
L 763.154915 187.383073 
L 764.512661 188.940524 
L 765.870407 190.230707 
L 767.228152 191.298519 
L 768.585898 192.181546 
L 769.943643 192.91009 
L 772.659135 193.993445 
L 775.374626 194.684096 
L 778.090117 195.082128 
L 782.163354 195.37102 
L 786.236591 195.700352 
L 788.952083 196.179782 
L 791.667574 197.023248 
L 793.02532 197.625627 
L 794.383065 198.375324 
L 795.740811 199.294525 
L 797.098557 200.405489 
L 798.456302 201.728025 
L 799.814048 203.276154 
L 801.171794 205.054466 
L 802.529539 207.054844 
L 805.245031 211.614522 
L 812.033759 223.762621 
L 813.391504 225.830067 
L 814.74925 227.670847 
L 816.106996 229.268256 
L 817.464741 230.620686 
L 818.822487 231.739093 
L 820.180233 232.643485 
L 821.537978 233.359157 
L 822.895724 233.913336 
L 825.611215 234.641739 
L 828.326707 235.014834 
L 832.399944 235.231923 
L 837.830926 235.507416 
L 840.546418 235.835538 
L 843.261909 236.357583 
L 845.9774 237.111022 
L 848.692891 238.142831 
L 851.408383 239.499636 
L 854.123874 241.189577 
L 858.197111 244.168574 
L 862.270348 247.148207 
L 864.985839 248.811454 
L 867.701331 250.080158 
L 870.416822 250.945678 
L 873.132313 251.473709 
L 875.847805 251.761836 
L 879.921042 251.939944 
L 882.636533 251.978905 
L 882.636533 251.978905 
" style="fill:none;stroke:#8172b3;stroke-linecap:round;stroke-width:1.5;"/>
   </g>
   <g id="patch_28">
    <path d="M 573.882353 252 
L 573.882353 34.56 
" style="fill:none;stroke:#262626;stroke-linecap:square;stroke-linejoin:miter;stroke-width:1.25;"/>
   </g>
   <g id="patch_29">
    <path d="M 902.117647 252 
L 902.117647 34.56 
" style="fill:none;stroke:#262626;stroke-linecap:square;stroke-linejoin:miter;stroke-width:1.25;"/>
   </g>
   <g id="patch_30">
    <path d="M 573.882353 252 
L 902.117647 252 
" style="fill:none;stroke:#262626;stroke-linecap:square;stroke-linejoin:miter;stroke-width:1.25;"/>
   </g>
   <g id="patch_31">
    <path d="M 573.882353 34.56 
L 902.117647 34.56 
" style="fill:none;stroke:#262626;stroke-linecap:square;stroke-linejoin:miter;stroke-width:1.25;"/>
   </g>
   <g id="text_24">
    <!-- Male's Income Distribution -->
    <g style="fill:#262626;" transform="translate(638.146875 28.56)scale(0.15 -0.15)">
     <defs>
      <path d="M 9.8125 72.90625 
L 24.515625 72.90625 
L 43.109375 23.296875 
L 61.8125 72.90625 
L 76.515625 72.90625 
L 76.515625 0 
L 66.890625 0 
L 66.890625 64.015625 
L 48.09375 14.015625 
L 38.1875 14.015625 
L 19.390625 64.015625 
L 19.390625 0 
L 9.8125 0 
z
" id="DejaVuSans-77"/>
     </defs>
     <use xlink:href="#DejaVuSans-77"/>
     <use x="86.279297" xlink:href="#DejaVuSans-97"/>
     <use x="147.558594" xlink:href="#DejaVuSans-108"/>
     <use x="175.341797" xlink:href="#DejaVuSans-101"/>
     <use x="236.865234" xlink:href="#DejaVuSans-39"/>
     <use x="264.355469" xlink:href="#DejaVuSans-115"/>
     <use x="316.455078" xlink:href="#DejaVuSans-32"/>
     <use x="348.242188" xlink:href="#DejaVuSans-73"/>
     <use x="377.734375" xlink:href="#DejaVuSans-110"/>
     <use x="441.113281" xlink:href="#DejaVuSans-99"/>
     <use x="496.09375" xlink:href="#DejaVuSans-111"/>
     <use x="557.275391" xlink:href="#DejaVuSans-109"/>
     <use x="654.6875" xlink:href="#DejaVuSans-101"/>
     <use x="716.210938" xlink:href="#DejaVuSans-32"/>
     <use x="747.998047" xlink:href="#DejaVuSans-68"/>
     <use x="825" xlink:href="#DejaVuSans-105"/>
     <use x="852.783203" xlink:href="#DejaVuSans-115"/>
     <use x="904.882812" xlink:href="#DejaVuSans-116"/>
     <use x="944.091797" xlink:href="#DejaVuSans-114"/>
     <use x="985.205078" xlink:href="#DejaVuSans-105"/>
     <use x="1012.988281" xlink:href="#DejaVuSans-98"/>
     <use x="1076.464844" xlink:href="#DejaVuSans-117"/>
     <use x="1139.84375" xlink:href="#DejaVuSans-116"/>
     <use x="1179.052734" xlink:href="#DejaVuSans-105"/>
     <use x="1206.835938" xlink:href="#DejaVuSans-111"/>
     <use x="1268.017578" xlink:href="#DejaVuSans-110"/>
    </g>
   </g>
  </g>
  <g id="axes_3">
   <g id="patch_32">
    <path d="M 967.764706 252 
L 1296 252 
L 1296 34.56 
L 967.764706 34.56 
z
" style="fill:#ffffff;"/>
   </g>
   <g id="matplotlib.axis_5">
    <g id="xtick_13">
     <g id="text_25">
      <!-- 20000 -->
      <g style="fill:#262626;" transform="translate(984.115076 271.947852)scale(0.1375 -0.1375)">
       <use xlink:href="#DejaVuSans-50"/>
       <use x="63.623047" xlink:href="#DejaVuSans-48"/>
       <use x="127.246094" xlink:href="#DejaVuSans-48"/>
       <use x="190.869141" xlink:href="#DejaVuSans-48"/>
       <use x="254.492188" xlink:href="#DejaVuSans-48"/>
      </g>
     </g>
    </g>
    <g id="xtick_14">
     <g id="text_26">
      <!-- 40000 -->
      <g style="fill:#262626;" transform="translate(1033.364903 271.947852)scale(0.1375 -0.1375)">
       <use xlink:href="#DejaVuSans-52"/>
       <use x="63.623047" xlink:href="#DejaVuSans-48"/>
       <use x="127.246094" xlink:href="#DejaVuSans-48"/>
       <use x="190.869141" xlink:href="#DejaVuSans-48"/>
       <use x="254.492188" xlink:href="#DejaVuSans-48"/>
      </g>
     </g>
    </g>
    <g id="xtick_15">
     <g id="text_27">
      <!-- 60000 -->
      <g style="fill:#262626;" transform="translate(1082.614729 271.947852)scale(0.1375 -0.1375)">
       <use xlink:href="#DejaVuSans-54"/>
       <use x="63.623047" xlink:href="#DejaVuSans-48"/>
       <use x="127.246094" xlink:href="#DejaVuSans-48"/>
       <use x="190.869141" xlink:href="#DejaVuSans-48"/>
       <use x="254.492188" xlink:href="#DejaVuSans-48"/>
      </g>
     </g>
    </g>
    <g id="xtick_16">
     <g id="text_28">
      <!-- 80000 -->
      <g style="fill:#262626;" transform="translate(1131.864556 271.947852)scale(0.1375 -0.1375)">
       <use xlink:href="#DejaVuSans-56"/>
       <use x="63.623047" xlink:href="#DejaVuSans-48"/>
       <use x="127.246094" xlink:href="#DejaVuSans-48"/>
       <use x="190.869141" xlink:href="#DejaVuSans-48"/>
       <use x="254.492188" xlink:href="#DejaVuSans-48"/>
      </g>
     </g>
    </g>
    <g id="xtick_17">
     <g id="text_29">
      <!-- 100000 -->
      <g style="fill:#262626;" transform="translate(1176.740164 271.947852)scale(0.1375 -0.1375)">
       <use xlink:href="#DejaVuSans-49"/>
       <use x="63.623047" xlink:href="#DejaVuSans-48"/>
       <use x="127.246094" xlink:href="#DejaVuSans-48"/>
       <use x="190.869141" xlink:href="#DejaVuSans-48"/>
       <use x="254.492188" xlink:href="#DejaVuSans-48"/>
       <use x="318.115234" xlink:href="#DejaVuSans-48"/>
      </g>
     </g>
    </g>
    <g id="xtick_18">
     <g id="text_30">
      <!-- 120000 -->
      <g style="fill:#262626;" transform="translate(1225.98999 271.947852)scale(0.1375 -0.1375)">
       <use xlink:href="#DejaVuSans-49"/>
       <use x="63.623047" xlink:href="#DejaVuSans-50"/>
       <use x="127.246094" xlink:href="#DejaVuSans-48"/>
       <use x="190.869141" xlink:href="#DejaVuSans-48"/>
       <use x="254.492188" xlink:href="#DejaVuSans-48"/>
       <use x="318.115234" xlink:href="#DejaVuSans-48"/>
      </g>
     </g>
    </g>
    <g id="text_31">
     <!-- Income($) -->
     <g style="fill:#262626;" transform="translate(1093.659306 290.205078)scale(0.15 -0.15)">
      <use xlink:href="#DejaVuSans-73"/>
      <use x="29.492188" xlink:href="#DejaVuSans-110"/>
      <use x="92.871094" xlink:href="#DejaVuSans-99"/>
      <use x="147.851562" xlink:href="#DejaVuSans-111"/>
      <use x="209.033203" xlink:href="#DejaVuSans-109"/>
      <use x="306.445312" xlink:href="#DejaVuSans-101"/>
      <use x="367.96875" xlink:href="#DejaVuSans-40"/>
      <use x="406.982422" xlink:href="#DejaVuSans-36"/>
      <use x="470.605469" xlink:href="#DejaVuSans-41"/>
     </g>
    </g>
   </g>
   <g id="matplotlib.axis_6">
    <g id="ytick_13"/>
    <g id="ytick_14"/>
    <g id="ytick_15"/>
    <g id="ytick_16"/>
    <g id="ytick_17"/>
    <g id="ytick_18"/>
   </g>
   <g id="patch_33">
    <path clip-path="url(#pc107d58902)" d="M 1030.611083 252 
L 1047.848523 252 
L 1047.848523 128.867954 
L 1030.611083 128.867954 
z
" style="fill:#937860;opacity:0.4;stroke:#ffffff;stroke-linejoin:miter;"/>
   </g>
   <g id="patch_34">
    <path clip-path="url(#pc107d58902)" d="M 1047.848523 252 
L 1065.085962 252 
L 1065.085962 162.449421 
L 1047.848523 162.449421 
z
" style="fill:#937860;opacity:0.4;stroke:#ffffff;stroke-linejoin:miter;"/>
   </g>
   <g id="patch_35">
    <path clip-path="url(#pc107d58902)" d="M 1065.085962 252 
L 1082.323401 252 
L 1082.323401 173.643243 
L 1065.085962 173.643243 
z
" style="fill:#937860;opacity:0.4;stroke:#ffffff;stroke-linejoin:miter;"/>
   </g>
   <g id="patch_36">
    <path clip-path="url(#pc107d58902)" d="M 1082.323401 252 
L 1099.560841 252 
L 1099.560841 44.914286 
L 1082.323401 44.914286 
z
" style="fill:#937860;opacity:0.4;stroke:#ffffff;stroke-linejoin:miter;"/>
   </g>
   <g id="patch_37">
    <path clip-path="url(#pc107d58902)" d="M 1099.560841 252 
L 1116.79828 252 
L 1116.79828 100.883398 
L 1099.560841 100.883398 
z
" style="fill:#937860;opacity:0.4;stroke:#ffffff;stroke-linejoin:miter;"/>
   </g>
   <g id="patch_38">
    <path clip-path="url(#pc107d58902)" d="M 1116.79828 252 
L 1134.035719 252 
L 1134.035719 117.674131 
L 1116.79828 117.674131 
z
" style="fill:#937860;opacity:0.4;stroke:#ffffff;stroke-linejoin:miter;"/>
   </g>
   <g id="patch_39">
    <path clip-path="url(#pc107d58902)" d="M 1134.035719 252 
L 1151.273158 252 
L 1151.273158 162.449421 
L 1134.035719 162.449421 
z
" style="fill:#937860;opacity:0.4;stroke:#ffffff;stroke-linejoin:miter;"/>
   </g>
   <g id="patch_40">
    <path clip-path="url(#pc107d58902)" d="M 1151.273158 252 
L 1168.510598 252 
L 1168.510598 134.464865 
L 1151.273158 134.464865 
z
" style="fill:#937860;opacity:0.4;stroke:#ffffff;stroke-linejoin:miter;"/>
   </g>
   <g id="patch_41">
    <path clip-path="url(#pc107d58902)" d="M 1168.510598 252 
L 1185.748037 252 
L 1185.748037 123.271042 
L 1168.510598 123.271042 
z
" style="fill:#937860;opacity:0.4;stroke:#ffffff;stroke-linejoin:miter;"/>
   </g>
   <g id="patch_42">
    <path clip-path="url(#pc107d58902)" d="M 1185.748037 252 
L 1202.985476 252 
L 1202.985476 184.837066 
L 1185.748037 184.837066 
z
" style="fill:#937860;opacity:0.4;stroke:#ffffff;stroke-linejoin:miter;"/>
   </g>
   <g id="line2d_3">
    <path clip-path="url(#pc107d58902)" d="M 982.684492 251.759421 
L 986.728124 251.473261 
L 989.423878 251.141181 
L 992.119633 250.636684 
L 994.815387 249.892641 
L 997.511142 248.827559 
L 1000.206896 247.348022 
L 1001.554774 246.42163 
L 1002.902651 245.354033 
L 1004.250528 244.133107 
L 1005.598405 242.74755 
L 1006.946283 241.187303 
L 1008.29416 239.443992 
L 1010.989915 235.385747 
L 1013.685669 230.555955 
L 1016.381424 224.990271 
L 1019.077178 218.784031 
L 1023.12081 208.628051 
L 1029.860196 191.33689 
L 1032.555951 185.017687 
L 1035.251705 179.362756 
L 1037.94746 174.509411 
L 1039.295337 172.404901 
L 1040.643214 170.516097 
L 1041.991092 168.837065 
L 1043.338969 167.356792 
L 1044.686846 166.059554 
L 1047.382601 163.930709 
L 1050.078355 162.251123 
L 1056.817742 158.446729 
L 1059.513496 156.45798 
L 1060.861373 155.261005 
L 1062.209251 153.903376 
L 1063.557128 152.370563 
L 1064.905005 150.652128 
L 1066.252882 148.741966 
L 1068.948637 144.344574 
L 1071.644391 139.220436 
L 1074.340146 133.483428 
L 1078.383778 124.136659 
L 1083.775287 111.607854 
L 1086.471041 105.945219 
L 1089.166796 101.040015 
L 1090.514673 98.941537 
L 1091.86255 97.109144 
L 1093.210428 95.559873 
L 1094.558305 94.306004 
L 1095.906182 93.354904 
L 1097.254059 92.709007 
L 1098.601937 92.365952 
L 1099.949814 92.318846 
L 1101.297691 92.556653 
L 1102.645569 93.064691 
L 1103.993446 93.825199 
L 1105.341323 94.817963 
L 1106.6892 96.020966 
L 1108.037078 97.411026 
L 1110.732832 100.657395 
L 1113.428587 104.370046 
L 1117.472218 110.438494 
L 1124.211605 120.721296 
L 1126.907359 124.569714 
L 1129.603114 128.128555 
L 1132.298868 131.315787 
L 1134.994623 134.057439 
L 1137.690377 136.29298 
L 1139.038255 137.207722 
L 1140.386132 137.983588 
L 1141.734009 138.620645 
L 1143.081886 139.12143 
L 1144.429764 139.491135 
L 1147.125518 139.872007 
L 1149.821273 139.860545 
L 1153.864905 139.42121 
L 1157.908536 139.01603 
L 1160.604291 139.090733 
L 1161.952168 139.302072 
L 1163.300045 139.657262 
L 1164.647923 140.174347 
L 1165.9958 140.868612 
L 1167.343677 141.752269 
L 1168.691555 142.834244 
L 1170.039432 144.120047 
L 1171.387309 145.611762 
L 1172.735186 147.308116 
L 1174.083064 149.204653 
L 1176.778818 153.566152 
L 1179.474573 158.608323 
L 1182.170327 164.214554 
L 1186.213959 173.392563 
L 1192.953345 189.661837 
L 1198.344854 202.56754 
L 1202.388486 211.72857 
L 1205.084241 217.454773 
L 1207.779995 222.801887 
L 1210.47575 227.714276 
L 1213.171504 232.146599 
L 1215.867259 236.067423 
L 1218.563013 239.462295 
L 1221.258768 242.335344 
L 1223.954522 244.708922 
L 1226.650277 246.62126 
L 1229.346031 248.122581 
L 1232.041786 249.270338 
L 1234.737541 250.124374 
L 1237.433295 250.742657 
L 1240.12905 251.178025 
L 1244.172681 251.585806 
L 1249.56419 251.848313 
L 1250.912068 251.883917 
L 1250.912068 251.883917 
" style="fill:none;stroke:#937860;stroke-linecap:round;stroke-width:1.5;"/>
   </g>
   <g id="patch_43">
    <path d="M 967.764706 252 
L 967.764706 34.56 
" style="fill:none;stroke:#262626;stroke-linecap:square;stroke-linejoin:miter;stroke-width:1.25;"/>
   </g>
   <g id="patch_44">
    <path d="M 1296 252 
L 1296 34.56 
" style="fill:none;stroke:#262626;stroke-linecap:square;stroke-linejoin:miter;stroke-width:1.25;"/>
   </g>
   <g id="patch_45">
    <path d="M 967.764706 252 
L 1296 252 
" style="fill:none;stroke:#262626;stroke-linecap:square;stroke-linejoin:miter;stroke-width:1.25;"/>
   </g>
   <g id="patch_46">
    <path d="M 967.764706 34.56 
L 1296 34.56 
" style="fill:none;stroke:#262626;stroke-linecap:square;stroke-linejoin:miter;stroke-width:1.25;"/>
   </g>
   <g id="text_32">
    <!-- Other's Income Distribution -->
    <g style="fill:#262626;" transform="translate(1028.49954 28.56)scale(0.15 -0.15)">
     <defs>
      <path d="M 39.40625 66.21875 
Q 28.65625 66.21875 22.328125 58.203125 
Q 16.015625 50.203125 16.015625 36.375 
Q 16.015625 22.609375 22.328125 14.59375 
Q 28.65625 6.59375 39.40625 6.59375 
Q 50.140625 6.59375 56.421875 14.59375 
Q 62.703125 22.609375 62.703125 36.375 
Q 62.703125 50.203125 56.421875 58.203125 
Q 50.140625 66.21875 39.40625 66.21875 
z
M 39.40625 74.21875 
Q 54.734375 74.21875 63.90625 63.9375 
Q 73.09375 53.65625 73.09375 36.375 
Q 73.09375 19.140625 63.90625 8.859375 
Q 54.734375 -1.421875 39.40625 -1.421875 
Q 24.03125 -1.421875 14.8125 8.828125 
Q 5.609375 19.09375 5.609375 36.375 
Q 5.609375 53.65625 14.8125 63.9375 
Q 24.03125 74.21875 39.40625 74.21875 
z
" id="DejaVuSans-79"/>
      <path d="M 54.890625 33.015625 
L 54.890625 0 
L 45.90625 0 
L 45.90625 32.71875 
Q 45.90625 40.484375 42.875 44.328125 
Q 39.84375 48.1875 33.796875 48.1875 
Q 26.515625 48.1875 22.3125 43.546875 
Q 18.109375 38.921875 18.109375 30.90625 
L 18.109375 0 
L 9.078125 0 
L 9.078125 75.984375 
L 18.109375 75.984375 
L 18.109375 46.1875 
Q 21.34375 51.125 25.703125 53.5625 
Q 30.078125 56 35.796875 56 
Q 45.21875 56 50.046875 50.171875 
Q 54.890625 44.34375 54.890625 33.015625 
z
" id="DejaVuSans-104"/>
     </defs>
     <use xlink:href="#DejaVuSans-79"/>
     <use x="78.710938" xlink:href="#DejaVuSans-116"/>
     <use x="117.919922" xlink:href="#DejaVuSans-104"/>
     <use x="181.298828" xlink:href="#DejaVuSans-101"/>
     <use x="242.822266" xlink:href="#DejaVuSans-114"/>
     <use x="283.935547" xlink:href="#DejaVuSans-39"/>
     <use x="311.425781" xlink:href="#DejaVuSans-115"/>
     <use x="363.525391" xlink:href="#DejaVuSans-32"/>
     <use x="395.3125" xlink:href="#DejaVuSans-73"/>
     <use x="424.804688" xlink:href="#DejaVuSans-110"/>
     <use x="488.183594" xlink:href="#DejaVuSans-99"/>
     <use x="543.164062" xlink:href="#DejaVuSans-111"/>
     <use x="604.345703" xlink:href="#DejaVuSans-109"/>
     <use x="701.757812" xlink:href="#DejaVuSans-101"/>
     <use x="763.28125" xlink:href="#DejaVuSans-32"/>
     <use x="795.068359" xlink:href="#DejaVuSans-68"/>
     <use x="872.070312" xlink:href="#DejaVuSans-105"/>
     <use x="899.853516" xlink:href="#DejaVuSans-115"/>
     <use x="951.953125" xlink:href="#DejaVuSans-116"/>
     <use x="991.162109" xlink:href="#DejaVuSans-114"/>
     <use x="1032.275391" xlink:href="#DejaVuSans-105"/>
     <use x="1060.058594" xlink:href="#DejaVuSans-98"/>
     <use x="1123.535156" xlink:href="#DejaVuSans-117"/>
     <use x="1186.914062" xlink:href="#DejaVuSans-116"/>
     <use x="1226.123047" xlink:href="#DejaVuSans-105"/>
     <use x="1253.90625" xlink:href="#DejaVuSans-111"/>
     <use x="1315.087891" xlink:href="#DejaVuSans-110"/>
    </g>
   </g>
  </g>
 </g>
 <defs>
  <clipPath id="pe1be396e49">
   <rect height="217.44" width="328.235294" x="180" y="34.56"/>
  </clipPath>
  <clipPath id="p447e150f0f">
   <rect height="217.44" width="328.235294" x="573.882353" y="34.56"/>
  </clipPath>
  <clipPath id="pc107d58902">
   <rect height="217.44" width="328.235294" x="967.764706" y="34.56"/>
  </clipPath>
 </defs>
</svg>
