<?xml version="1.0" encoding="utf-8" standalone="no"?>
<!DOCTYPE svg PUBLIC "-//W3C//DTD SVG 1.1//EN"
  "http://www.w3.org/Graphics/SVG/1.1/DTD/svg11.dtd">
<!-- Created with matplotlib (https://matplotlib.org/) -->
<svg height="288pt" version="1.1" viewBox="0 0 1440 288" width="1440pt" xmlns="http://www.w3.org/2000/svg" xmlns:xlink="http://www.w3.org/1999/xlink">
 <metadata>
  <rdf:RDF xmlns:cc="http://creativecommons.org/ns#" xmlns:dc="http://purl.org/dc/elements/1.1/" xmlns:rdf="http://www.w3.org/1999/02/22-rdf-syntax-ns#">
   <cc:Work>
    <dc:type rdf:resource="http://purl.org/dc/dcmitype/StillImage"/>
    <dc:date>2021-06-19T22:18:50.047595</dc:date>
    <dc:format>image/svg+xml</dc:format>
    <dc:creator>
     <cc:Agent>
      <dc:title>Matplotlib v3.3.2, https://matplotlib.org/</dc:title>
     </cc:Agent>
    </dc:creator>
   </cc:Work>
  </rdf:RDF>
 </metadata>
 <defs>
  <style type="text/css">*{stroke-linecap:butt;stroke-linejoin:round;}</style>
 </defs>
 <g id="figure_1">
  <g id="patch_1">
   <path d="M 0 288 
L 1440 288 
L 1440 0 
L 0 0 
z
" style="fill:#ffffff;"/>
  </g>
  <g id="axes_1">
   <g id="patch_2">
    <path d="M 180 252 
L 508.235294 252 
L 508.235294 34.56 
L 180 34.56 
z
" style="fill:#ffffff;"/>
   </g>
   <g id="matplotlib.axis_1">
    <g id="xtick_1">
     <g id="text_1">
      <!-- 0 -->
      <g style="fill:#262626;" transform="translate(181.84599 271.947852)scale(0.1375 -0.1375)">
       <defs>
        <path d="M 31.78125 66.40625 
Q 24.171875 66.40625 20.328125 58.90625 
Q 16.5 51.421875 16.5 36.375 
Q 16.5 21.390625 20.328125 13.890625 
Q 24.171875 6.390625 31.78125 6.390625 
Q 39.453125 6.390625 43.28125 13.890625 
Q 47.125 21.390625 47.125 36.375 
Q 47.125 51.421875 43.28125 58.90625 
Q 39.453125 66.40625 31.78125 66.40625 
z
M 31.78125 74.21875 
Q 44.046875 74.21875 50.515625 64.515625 
Q 56.984375 54.828125 56.984375 36.375 
Q 56.984375 17.96875 50.515625 8.265625 
Q 44.046875 -1.421875 31.78125 -1.421875 
Q 19.53125 -1.421875 13.0625 8.265625 
Q 6.59375 17.96875 6.59375 36.375 
Q 6.59375 54.828125 13.0625 64.515625 
Q 19.53125 74.21875 31.78125 74.21875 
z
" id="DejaVuSans-48"/>
       </defs>
       <use xlink:href="#DejaVuSans-48"/>
      </g>
     </g>
    </g>
    <g id="xtick_2">
     <g id="text_2">
      <!-- 20 -->
      <g style="fill:#262626;" transform="translate(230.10425 271.947852)scale(0.1375 -0.1375)">
       <defs>
        <path d="M 19.1875 8.296875 
L 53.609375 8.296875 
L 53.609375 0 
L 7.328125 0 
L 7.328125 8.296875 
Q 12.9375 14.109375 22.625 23.890625 
Q 32.328125 33.6875 34.8125 36.53125 
Q 39.546875 41.84375 41.421875 45.53125 
Q 43.3125 49.21875 43.3125 52.78125 
Q 43.3125 58.59375 39.234375 62.25 
Q 35.15625 65.921875 28.609375 65.921875 
Q 23.96875 65.921875 18.8125 64.3125 
Q 13.671875 62.703125 7.8125 59.421875 
L 7.8125 69.390625 
Q 13.765625 71.78125 18.9375 73 
Q 24.125 74.21875 28.421875 74.21875 
Q 39.75 74.21875 46.484375 68.546875 
Q 53.21875 62.890625 53.21875 53.421875 
Q 53.21875 48.921875 51.53125 44.890625 
Q 49.859375 40.875 45.40625 35.40625 
Q 44.1875 33.984375 37.640625 27.21875 
Q 31.109375 20.453125 19.1875 8.296875 
z
" id="DejaVuSans-50"/>
       </defs>
       <use xlink:href="#DejaVuSans-50"/>
       <use x="63.623047" xlink:href="#DejaVuSans-48"/>
      </g>
     </g>
    </g>
    <g id="xtick_3">
     <g id="text_3">
      <!-- 40 -->
      <g style="fill:#262626;" transform="translate(282.73673 271.947852)scale(0.1375 -0.1375)">
       <defs>
        <path d="M 37.796875 64.3125 
L 12.890625 25.390625 
L 37.796875 25.390625 
z
M 35.203125 72.90625 
L 47.609375 72.90625 
L 47.609375 25.390625 
L 58.015625 25.390625 
L 58.015625 17.1875 
L 47.609375 17.1875 
L 47.609375 0 
L 37.796875 0 
L 37.796875 17.1875 
L 4.890625 17.1875 
L 4.890625 26.703125 
z
" id="DejaVuSans-52"/>
       </defs>
       <use xlink:href="#DejaVuSans-52"/>
       <use x="63.623047" xlink:href="#DejaVuSans-48"/>
      </g>
     </g>
    </g>
    <g id="xtick_4">
     <g id="text_4">
      <!-- 60 -->
      <g style="fill:#262626;" transform="translate(335.36921 271.947852)scale(0.1375 -0.1375)">
       <defs>
        <path d="M 33.015625 40.375 
Q 26.375 40.375 22.484375 35.828125 
Q 18.609375 31.296875 18.609375 23.390625 
Q 18.609375 15.53125 22.484375 10.953125 
Q 26.375 6.390625 33.015625 6.390625 
Q 39.65625 6.390625 43.53125 10.953125 
Q 47.40625 15.53125 47.40625 23.390625 
Q 47.40625 31.296875 43.53125 35.828125 
Q 39.65625 40.375 33.015625 40.375 
z
M 52.59375 71.296875 
L 52.59375 62.3125 
Q 48.875 64.0625 45.09375 64.984375 
Q 41.3125 65.921875 37.59375 65.921875 
Q 27.828125 65.921875 22.671875 59.328125 
Q 17.53125 52.734375 16.796875 39.40625 
Q 19.671875 43.65625 24.015625 45.921875 
Q 28.375 48.1875 33.59375 48.1875 
Q 44.578125 48.1875 50.953125 41.515625 
Q 57.328125 34.859375 57.328125 23.390625 
Q 57.328125 12.15625 50.6875 5.359375 
Q 44.046875 -1.421875 33.015625 -1.421875 
Q 20.359375 -1.421875 13.671875 8.265625 
Q 6.984375 17.96875 6.984375 36.375 
Q 6.984375 53.65625 15.1875 63.9375 
Q 23.390625 74.21875 37.203125 74.21875 
Q 40.921875 74.21875 44.703125 73.484375 
Q 48.484375 72.75 52.59375 71.296875 
z
" id="DejaVuSans-54"/>
       </defs>
       <use xlink:href="#DejaVuSans-54"/>
       <use x="63.623047" xlink:href="#DejaVuSans-48"/>
      </g>
     </g>
    </g>
    <g id="xtick_5">
     <g id="text_5">
      <!-- 80 -->
      <g style="fill:#262626;" transform="translate(388.001689 271.947852)scale(0.1375 -0.1375)">
       <defs>
        <path d="M 31.78125 34.625 
Q 24.75 34.625 20.71875 30.859375 
Q 16.703125 27.09375 16.703125 20.515625 
Q 16.703125 13.921875 20.71875 10.15625 
Q 24.75 6.390625 31.78125 6.390625 
Q 38.8125 6.390625 42.859375 10.171875 
Q 46.921875 13.96875 46.921875 20.515625 
Q 46.921875 27.09375 42.890625 30.859375 
Q 38.875 34.625 31.78125 34.625 
z
M 21.921875 38.8125 
Q 15.578125 40.375 12.03125 44.71875 
Q 8.5 49.078125 8.5 55.328125 
Q 8.5 64.0625 14.71875 69.140625 
Q 20.953125 74.21875 31.78125 74.21875 
Q 42.671875 74.21875 48.875 69.140625 
Q 55.078125 64.0625 55.078125 55.328125 
Q 55.078125 49.078125 51.53125 44.71875 
Q 48 40.375 41.703125 38.8125 
Q 48.828125 37.15625 52.796875 32.3125 
Q 56.78125 27.484375 56.78125 20.515625 
Q 56.78125 9.90625 50.3125 4.234375 
Q 43.84375 -1.421875 31.78125 -1.421875 
Q 19.734375 -1.421875 13.25 4.234375 
Q 6.78125 9.90625 6.78125 20.515625 
Q 6.78125 27.484375 10.78125 32.3125 
Q 14.796875 37.15625 21.921875 38.8125 
z
M 18.3125 54.390625 
Q 18.3125 48.734375 21.84375 45.5625 
Q 25.390625 42.390625 31.78125 42.390625 
Q 38.140625 42.390625 41.71875 45.5625 
Q 45.3125 48.734375 45.3125 54.390625 
Q 45.3125 60.0625 41.71875 63.234375 
Q 38.140625 66.40625 31.78125 66.40625 
Q 25.390625 66.40625 21.84375 63.234375 
Q 18.3125 60.0625 18.3125 54.390625 
z
" id="DejaVuSans-56"/>
       </defs>
       <use xlink:href="#DejaVuSans-56"/>
       <use x="63.623047" xlink:href="#DejaVuSans-48"/>
      </g>
     </g>
    </g>
    <g id="xtick_6">
     <g id="text_6">
      <!-- 100 -->
      <g style="fill:#262626;" transform="translate(436.25995 271.947852)scale(0.1375 -0.1375)">
       <defs>
        <path d="M 12.40625 8.296875 
L 28.515625 8.296875 
L 28.515625 63.921875 
L 10.984375 60.40625 
L 10.984375 69.390625 
L 28.421875 72.90625 
L 38.28125 72.90625 
L 38.28125 8.296875 
L 54.390625 8.296875 
L 54.390625 0 
L 12.40625 0 
z
" id="DejaVuSans-49"/>
       </defs>
       <use xlink:href="#DejaVuSans-49"/>
       <use x="63.623047" xlink:href="#DejaVuSans-48"/>
       <use x="127.246094" xlink:href="#DejaVuSans-48"/>
      </g>
     </g>
    </g>
    <g id="xtick_7">
     <g id="text_7">
      <!-- 120 -->
      <g style="fill:#262626;" transform="translate(488.892429 271.947852)scale(0.1375 -0.1375)">
       <use xlink:href="#DejaVuSans-49"/>
       <use x="63.623047" xlink:href="#DejaVuSans-50"/>
       <use x="127.246094" xlink:href="#DejaVuSans-48"/>
      </g>
     </g>
    </g>
    <g id="text_8">
     <!-- Age -->
     <g style="fill:#262626;" transform="translate(329.611006 290.205078)scale(0.15 -0.15)">
      <defs>
       <path d="M 34.1875 63.1875 
L 20.796875 26.90625 
L 47.609375 26.90625 
z
M 28.609375 72.90625 
L 39.796875 72.90625 
L 67.578125 0 
L 57.328125 0 
L 50.6875 18.703125 
L 17.828125 18.703125 
L 11.1875 0 
L 0.78125 0 
z
" id="DejaVuSans-65"/>
       <path d="M 45.40625 27.984375 
Q 45.40625 37.75 41.375 43.109375 
Q 37.359375 48.484375 30.078125 48.484375 
Q 22.859375 48.484375 18.828125 43.109375 
Q 14.796875 37.75 14.796875 27.984375 
Q 14.796875 18.265625 18.828125 12.890625 
Q 22.859375 7.515625 30.078125 7.515625 
Q 37.359375 7.515625 41.375 12.890625 
Q 45.40625 18.265625 45.40625 27.984375 
z
M 54.390625 6.78125 
Q 54.390625 -7.171875 48.1875 -13.984375 
Q 42 -20.796875 29.203125 -20.796875 
Q 24.46875 -20.796875 20.265625 -20.09375 
Q 16.0625 -19.390625 12.109375 -17.921875 
L 12.109375 -9.1875 
Q 16.0625 -11.328125 19.921875 -12.34375 
Q 23.78125 -13.375 27.78125 -13.375 
Q 36.625 -13.375 41.015625 -8.765625 
Q 45.40625 -4.15625 45.40625 5.171875 
L 45.40625 9.625 
Q 42.625 4.78125 38.28125 2.390625 
Q 33.9375 0 27.875 0 
Q 17.828125 0 11.671875 7.65625 
Q 5.515625 15.328125 5.515625 27.984375 
Q 5.515625 40.671875 11.671875 48.328125 
Q 17.828125 56 27.875 56 
Q 33.9375 56 38.28125 53.609375 
Q 42.625 51.21875 45.40625 46.390625 
L 45.40625 54.6875 
L 54.390625 54.6875 
z
" id="DejaVuSans-103"/>
       <path d="M 56.203125 29.59375 
L 56.203125 25.203125 
L 14.890625 25.203125 
Q 15.484375 15.921875 20.484375 11.0625 
Q 25.484375 6.203125 34.421875 6.203125 
Q 39.59375 6.203125 44.453125 7.46875 
Q 49.3125 8.734375 54.109375 11.28125 
L 54.109375 2.78125 
Q 49.265625 0.734375 44.1875 -0.34375 
Q 39.109375 -1.421875 33.890625 -1.421875 
Q 20.796875 -1.421875 13.15625 6.1875 
Q 5.515625 13.8125 5.515625 26.8125 
Q 5.515625 40.234375 12.765625 48.109375 
Q 20.015625 56 32.328125 56 
Q 43.359375 56 49.78125 48.890625 
Q 56.203125 41.796875 56.203125 29.59375 
z
M 47.21875 32.234375 
Q 47.125 39.59375 43.09375 43.984375 
Q 39.0625 48.390625 32.421875 48.390625 
Q 24.90625 48.390625 20.390625 44.140625 
Q 15.875 39.890625 15.1875 32.171875 
z
" id="DejaVuSans-101"/>
      </defs>
      <use xlink:href="#DejaVuSans-65"/>
      <use x="68.408203" xlink:href="#DejaVuSans-103"/>
      <use x="131.884766" xlink:href="#DejaVuSans-101"/>
     </g>
    </g>
   </g>
   <g id="matplotlib.axis_2">
    <g id="ytick_1">
     <g id="text_9">
      <!-- 0.000 -->
      <g style="fill:#262626;" transform="translate(131.136328 257.223926)scale(0.1375 -0.1375)">
       <defs>
        <path d="M 10.6875 12.40625 
L 21 12.40625 
L 21 0 
L 10.6875 0 
z
" id="DejaVuSans-46"/>
       </defs>
       <use xlink:href="#DejaVuSans-48"/>
       <use x="63.623047" xlink:href="#DejaVuSans-46"/>
       <use x="95.410156" xlink:href="#DejaVuSans-48"/>
       <use x="159.033203" xlink:href="#DejaVuSans-48"/>
       <use x="222.65625" xlink:href="#DejaVuSans-48"/>
      </g>
     </g>
    </g>
    <g id="ytick_2">
     <g id="text_10">
      <!-- 0.005 -->
      <g style="fill:#262626;" transform="translate(131.136328 221.385418)scale(0.1375 -0.1375)">
       <defs>
        <path d="M 10.796875 72.90625 
L 49.515625 72.90625 
L 49.515625 64.59375 
L 19.828125 64.59375 
L 19.828125 46.734375 
Q 21.96875 47.46875 24.109375 47.828125 
Q 26.265625 48.1875 28.421875 48.1875 
Q 40.625 48.1875 47.75 41.5 
Q 54.890625 34.8125 54.890625 23.390625 
Q 54.890625 11.625 47.5625 5.09375 
Q 40.234375 -1.421875 26.90625 -1.421875 
Q 22.3125 -1.421875 17.546875 -0.640625 
Q 12.796875 0.140625 7.71875 1.703125 
L 7.71875 11.625 
Q 12.109375 9.234375 16.796875 8.0625 
Q 21.484375 6.890625 26.703125 6.890625 
Q 35.15625 6.890625 40.078125 11.328125 
Q 45.015625 15.765625 45.015625 23.390625 
Q 45.015625 31 40.078125 35.4375 
Q 35.15625 39.890625 26.703125 39.890625 
Q 22.75 39.890625 18.8125 39.015625 
Q 14.890625 38.140625 10.796875 36.28125 
z
" id="DejaVuSans-53"/>
       </defs>
       <use xlink:href="#DejaVuSans-48"/>
       <use x="63.623047" xlink:href="#DejaVuSans-46"/>
       <use x="95.410156" xlink:href="#DejaVuSans-48"/>
       <use x="159.033203" xlink:href="#DejaVuSans-48"/>
       <use x="222.65625" xlink:href="#DejaVuSans-53"/>
      </g>
     </g>
    </g>
    <g id="ytick_3">
     <g id="text_11">
      <!-- 0.010 -->
      <g style="fill:#262626;" transform="translate(131.136328 185.546911)scale(0.1375 -0.1375)">
       <use xlink:href="#DejaVuSans-48"/>
       <use x="63.623047" xlink:href="#DejaVuSans-46"/>
       <use x="95.410156" xlink:href="#DejaVuSans-48"/>
       <use x="159.033203" xlink:href="#DejaVuSans-49"/>
       <use x="222.65625" xlink:href="#DejaVuSans-48"/>
      </g>
     </g>
    </g>
    <g id="ytick_4">
     <g id="text_12">
      <!-- 0.015 -->
      <g style="fill:#262626;" transform="translate(131.136328 149.708404)scale(0.1375 -0.1375)">
       <use xlink:href="#DejaVuSans-48"/>
       <use x="63.623047" xlink:href="#DejaVuSans-46"/>
       <use x="95.410156" xlink:href="#DejaVuSans-48"/>
       <use x="159.033203" xlink:href="#DejaVuSans-49"/>
       <use x="222.65625" xlink:href="#DejaVuSans-53"/>
      </g>
     </g>
    </g>
    <g id="ytick_5">
     <g id="text_13">
      <!-- 0.020 -->
      <g style="fill:#262626;" transform="translate(131.136328 113.869897)scale(0.1375 -0.1375)">
       <use xlink:href="#DejaVuSans-48"/>
       <use x="63.623047" xlink:href="#DejaVuSans-46"/>
       <use x="95.410156" xlink:href="#DejaVuSans-48"/>
       <use x="159.033203" xlink:href="#DejaVuSans-50"/>
       <use x="222.65625" xlink:href="#DejaVuSans-48"/>
      </g>
     </g>
    </g>
    <g id="ytick_6">
     <g id="text_14">
      <!-- 0.025 -->
      <g style="fill:#262626;" transform="translate(131.136328 78.031389)scale(0.1375 -0.1375)">
       <use xlink:href="#DejaVuSans-48"/>
       <use x="63.623047" xlink:href="#DejaVuSans-46"/>
       <use x="95.410156" xlink:href="#DejaVuSans-48"/>
       <use x="159.033203" xlink:href="#DejaVuSans-50"/>
       <use x="222.65625" xlink:href="#DejaVuSans-53"/>
      </g>
     </g>
    </g>
    <g id="ytick_7">
     <g id="text_15">
      <!-- 0.030 -->
      <g style="fill:#262626;" transform="translate(131.136328 42.192882)scale(0.1375 -0.1375)">
       <defs>
        <path d="M 40.578125 39.3125 
Q 47.65625 37.796875 51.625 33 
Q 55.609375 28.21875 55.609375 21.1875 
Q 55.609375 10.40625 48.1875 4.484375 
Q 40.765625 -1.421875 27.09375 -1.421875 
Q 22.515625 -1.421875 17.65625 -0.515625 
Q 12.796875 0.390625 7.625 2.203125 
L 7.625 11.71875 
Q 11.71875 9.328125 16.59375 8.109375 
Q 21.484375 6.890625 26.8125 6.890625 
Q 36.078125 6.890625 40.9375 10.546875 
Q 45.796875 14.203125 45.796875 21.1875 
Q 45.796875 27.640625 41.28125 31.265625 
Q 36.765625 34.90625 28.71875 34.90625 
L 20.21875 34.90625 
L 20.21875 43.015625 
L 29.109375 43.015625 
Q 36.375 43.015625 40.234375 45.921875 
Q 44.09375 48.828125 44.09375 54.296875 
Q 44.09375 59.90625 40.109375 62.90625 
Q 36.140625 65.921875 28.71875 65.921875 
Q 24.65625 65.921875 20.015625 65.03125 
Q 15.375 64.15625 9.8125 62.3125 
L 9.8125 71.09375 
Q 15.4375 72.65625 20.34375 73.4375 
Q 25.25 74.21875 29.59375 74.21875 
Q 40.828125 74.21875 47.359375 69.109375 
Q 53.90625 64.015625 53.90625 55.328125 
Q 53.90625 49.265625 50.4375 45.09375 
Q 46.96875 40.921875 40.578125 39.3125 
z
" id="DejaVuSans-51"/>
       </defs>
       <use xlink:href="#DejaVuSans-48"/>
       <use x="63.623047" xlink:href="#DejaVuSans-46"/>
       <use x="95.410156" xlink:href="#DejaVuSans-48"/>
       <use x="159.033203" xlink:href="#DejaVuSans-51"/>
       <use x="222.65625" xlink:href="#DejaVuSans-48"/>
      </g>
     </g>
    </g>
    <g id="text_16">
     <!-- Distribution -->
     <g style="fill:#262626;" transform="translate(124.016797 187.033125)rotate(-90)scale(0.15 -0.15)">
      <defs>
       <path d="M 19.671875 64.796875 
L 19.671875 8.109375 
L 31.59375 8.109375 
Q 46.6875 8.109375 53.6875 14.9375 
Q 60.6875 21.78125 60.6875 36.53125 
Q 60.6875 51.171875 53.6875 57.984375 
Q 46.6875 64.796875 31.59375 64.796875 
z
M 9.8125 72.90625 
L 30.078125 72.90625 
Q 51.265625 72.90625 61.171875 64.09375 
Q 71.09375 55.28125 71.09375 36.53125 
Q 71.09375 17.671875 61.125 8.828125 
Q 51.171875 0 30.078125 0 
L 9.8125 0 
z
" id="DejaVuSans-68"/>
       <path d="M 9.421875 54.6875 
L 18.40625 54.6875 
L 18.40625 0 
L 9.421875 0 
z
M 9.421875 75.984375 
L 18.40625 75.984375 
L 18.40625 64.59375 
L 9.421875 64.59375 
z
" id="DejaVuSans-105"/>
       <path d="M 44.28125 53.078125 
L 44.28125 44.578125 
Q 40.484375 46.53125 36.375 47.5 
Q 32.28125 48.484375 27.875 48.484375 
Q 21.1875 48.484375 17.84375 46.4375 
Q 14.5 44.390625 14.5 40.28125 
Q 14.5 37.15625 16.890625 35.375 
Q 19.28125 33.59375 26.515625 31.984375 
L 29.59375 31.296875 
Q 39.15625 29.25 43.1875 25.515625 
Q 47.21875 21.78125 47.21875 15.09375 
Q 47.21875 7.46875 41.1875 3.015625 
Q 35.15625 -1.421875 24.609375 -1.421875 
Q 20.21875 -1.421875 15.453125 -0.5625 
Q 10.6875 0.296875 5.421875 2 
L 5.421875 11.28125 
Q 10.40625 8.6875 15.234375 7.390625 
Q 20.0625 6.109375 24.8125 6.109375 
Q 31.15625 6.109375 34.5625 8.28125 
Q 37.984375 10.453125 37.984375 14.40625 
Q 37.984375 18.0625 35.515625 20.015625 
Q 33.0625 21.96875 24.703125 23.78125 
L 21.578125 24.515625 
Q 13.234375 26.265625 9.515625 29.90625 
Q 5.8125 33.546875 5.8125 39.890625 
Q 5.8125 47.609375 11.28125 51.796875 
Q 16.75 56 26.8125 56 
Q 31.78125 56 36.171875 55.265625 
Q 40.578125 54.546875 44.28125 53.078125 
z
" id="DejaVuSans-115"/>
       <path d="M 18.3125 70.21875 
L 18.3125 54.6875 
L 36.8125 54.6875 
L 36.8125 47.703125 
L 18.3125 47.703125 
L 18.3125 18.015625 
Q 18.3125 11.328125 20.140625 9.421875 
Q 21.96875 7.515625 27.59375 7.515625 
L 36.8125 7.515625 
L 36.8125 0 
L 27.59375 0 
Q 17.1875 0 13.234375 3.875 
Q 9.28125 7.765625 9.28125 18.015625 
L 9.28125 47.703125 
L 2.6875 47.703125 
L 2.6875 54.6875 
L 9.28125 54.6875 
L 9.28125 70.21875 
z
" id="DejaVuSans-116"/>
       <path d="M 41.109375 46.296875 
Q 39.59375 47.171875 37.8125 47.578125 
Q 36.03125 48 33.890625 48 
Q 26.265625 48 22.1875 43.046875 
Q 18.109375 38.09375 18.109375 28.8125 
L 18.109375 0 
L 9.078125 0 
L 9.078125 54.6875 
L 18.109375 54.6875 
L 18.109375 46.1875 
Q 20.953125 51.171875 25.484375 53.578125 
Q 30.03125 56 36.53125 56 
Q 37.453125 56 38.578125 55.875 
Q 39.703125 55.765625 41.0625 55.515625 
z
" id="DejaVuSans-114"/>
       <path d="M 48.6875 27.296875 
Q 48.6875 37.203125 44.609375 42.84375 
Q 40.53125 48.484375 33.40625 48.484375 
Q 26.265625 48.484375 22.1875 42.84375 
Q 18.109375 37.203125 18.109375 27.296875 
Q 18.109375 17.390625 22.1875 11.75 
Q 26.265625 6.109375 33.40625 6.109375 
Q 40.53125 6.109375 44.609375 11.75 
Q 48.6875 17.390625 48.6875 27.296875 
z
M 18.109375 46.390625 
Q 20.953125 51.265625 25.265625 53.625 
Q 29.59375 56 35.59375 56 
Q 45.5625 56 51.78125 48.09375 
Q 58.015625 40.1875 58.015625 27.296875 
Q 58.015625 14.40625 51.78125 6.484375 
Q 45.5625 -1.421875 35.59375 -1.421875 
Q 29.59375 -1.421875 25.265625 0.953125 
Q 20.953125 3.328125 18.109375 8.203125 
L 18.109375 0 
L 9.078125 0 
L 9.078125 75.984375 
L 18.109375 75.984375 
z
" id="DejaVuSans-98"/>
       <path d="M 8.5 21.578125 
L 8.5 54.6875 
L 17.484375 54.6875 
L 17.484375 21.921875 
Q 17.484375 14.15625 20.5 10.265625 
Q 23.53125 6.390625 29.59375 6.390625 
Q 36.859375 6.390625 41.078125 11.03125 
Q 45.3125 15.671875 45.3125 23.6875 
L 45.3125 54.6875 
L 54.296875 54.6875 
L 54.296875 0 
L 45.3125 0 
L 45.3125 8.40625 
Q 42.046875 3.421875 37.71875 1 
Q 33.40625 -1.421875 27.6875 -1.421875 
Q 18.265625 -1.421875 13.375 4.4375 
Q 8.5 10.296875 8.5 21.578125 
z
M 31.109375 56 
z
" id="DejaVuSans-117"/>
       <path d="M 30.609375 48.390625 
Q 23.390625 48.390625 19.1875 42.75 
Q 14.984375 37.109375 14.984375 27.296875 
Q 14.984375 17.484375 19.15625 11.84375 
Q 23.34375 6.203125 30.609375 6.203125 
Q 37.796875 6.203125 41.984375 11.859375 
Q 46.1875 17.53125 46.1875 27.296875 
Q 46.1875 37.015625 41.984375 42.703125 
Q 37.796875 48.390625 30.609375 48.390625 
z
M 30.609375 56 
Q 42.328125 56 49.015625 48.375 
Q 55.71875 40.765625 55.71875 27.296875 
Q 55.71875 13.875 49.015625 6.21875 
Q 42.328125 -1.421875 30.609375 -1.421875 
Q 18.84375 -1.421875 12.171875 6.21875 
Q 5.515625 13.875 5.515625 27.296875 
Q 5.515625 40.765625 12.171875 48.375 
Q 18.84375 56 30.609375 56 
z
" id="DejaVuSans-111"/>
       <path d="M 54.890625 33.015625 
L 54.890625 0 
L 45.90625 0 
L 45.90625 32.71875 
Q 45.90625 40.484375 42.875 44.328125 
Q 39.84375 48.1875 33.796875 48.1875 
Q 26.515625 48.1875 22.3125 43.546875 
Q 18.109375 38.921875 18.109375 30.90625 
L 18.109375 0 
L 9.078125 0 
L 9.078125 54.6875 
L 18.109375 54.6875 
L 18.109375 46.1875 
Q 21.34375 51.125 25.703125 53.5625 
Q 30.078125 56 35.796875 56 
Q 45.21875 56 50.046875 50.171875 
Q 54.890625 44.34375 54.890625 33.015625 
z
" id="DejaVuSans-110"/>
      </defs>
      <use xlink:href="#DejaVuSans-68"/>
      <use x="77.001953" xlink:href="#DejaVuSans-105"/>
      <use x="104.785156" xlink:href="#DejaVuSans-115"/>
      <use x="156.884766" xlink:href="#DejaVuSans-116"/>
      <use x="196.09375" xlink:href="#DejaVuSans-114"/>
      <use x="237.207031" xlink:href="#DejaVuSans-105"/>
      <use x="264.990234" xlink:href="#DejaVuSans-98"/>
      <use x="328.466797" xlink:href="#DejaVuSans-117"/>
      <use x="391.845703" xlink:href="#DejaVuSans-116"/>
      <use x="431.054688" xlink:href="#DejaVuSans-105"/>
      <use x="458.837891" xlink:href="#DejaVuSans-111"/>
      <use x="520.019531" xlink:href="#DejaVuSans-110"/>
     </g>
    </g>
   </g>
   <g id="patch_3">
    <path clip-path="url(#p9bd54d2fd2)" d="M 233.58944 252 
L 255.431919 252 
L 255.431919 206.911875 
L 233.58944 206.911875 
z
" style="fill:#4c72b0;opacity:0.4;stroke:#ffffff;stroke-linejoin:miter;"/>
   </g>
   <g id="patch_4">
    <path clip-path="url(#p9bd54d2fd2)" d="M 255.431919 252 
L 277.274398 252 
L 277.274398 206.207373 
L 255.431919 206.207373 
z
" style="fill:#4c72b0;opacity:0.4;stroke:#ffffff;stroke-linejoin:miter;"/>
   </g>
   <g id="patch_5">
    <path clip-path="url(#p9bd54d2fd2)" d="M 277.274398 252 
L 299.116877 252 
L 299.116877 183.804211 
L 277.274398 183.804211 
z
" style="fill:#4c72b0;opacity:0.4;stroke:#ffffff;stroke-linejoin:miter;"/>
   </g>
   <g id="patch_6">
    <path clip-path="url(#p9bd54d2fd2)" d="M 299.116877 252 
L 320.959356 252 
L 320.959356 122.371641 
L 299.116877 122.371641 
z
" style="fill:#4c72b0;opacity:0.4;stroke:#ffffff;stroke-linejoin:miter;"/>
   </g>
   <g id="patch_7">
    <path clip-path="url(#p9bd54d2fd2)" d="M 320.959356 252 
L 342.801835 252 
L 342.801835 71.788401 
L 320.959356 71.788401 
z
" style="fill:#4c72b0;opacity:0.4;stroke:#ffffff;stroke-linejoin:miter;"/>
   </g>
   <g id="patch_8">
    <path clip-path="url(#p9bd54d2fd2)" d="M 342.801835 252 
L 364.644314 252 
L 364.644314 95.177866 
L 342.801835 95.177866 
z
" style="fill:#4c72b0;opacity:0.4;stroke:#ffffff;stroke-linejoin:miter;"/>
   </g>
   <g id="patch_9">
    <path clip-path="url(#p9bd54d2fd2)" d="M 364.644314 252 
L 386.486793 252 
L 386.486793 127.725856 
L 364.644314 127.725856 
z
" style="fill:#4c72b0;opacity:0.4;stroke:#ffffff;stroke-linejoin:miter;"/>
   </g>
   <g id="patch_10">
    <path clip-path="url(#p9bd54d2fd2)" d="M 386.486793 252 
L 408.329272 252 
L 408.329272 187.185821 
L 386.486793 187.185821 
z
" style="fill:#4c72b0;opacity:0.4;stroke:#ffffff;stroke-linejoin:miter;"/>
   </g>
   <g id="patch_11">
    <path clip-path="url(#p9bd54d2fd2)" d="M 408.329272 252 
L 430.171751 252 
L 430.171751 215.084098 
L 408.329272 215.084098 
z
" style="fill:#4c72b0;opacity:0.4;stroke:#ffffff;stroke-linejoin:miter;"/>
   </g>
   <g id="patch_12">
    <path clip-path="url(#p9bd54d2fd2)" d="M 430.171751 252 
L 452.01423 252 
L 452.01423 240.164367 
L 430.171751 240.164367 
z
" style="fill:#4c72b0;opacity:0.4;stroke:#ffffff;stroke-linejoin:miter;"/>
   </g>
   <g id="line2d_1">
    <path clip-path="url(#p9bd54d2fd2)" d="M 210.291105 251.947724 
L 214.286403 251.751529 
L 216.949936 251.383279 
L 218.281702 251.064835 
L 219.613468 250.617097 
L 220.945234 250.00498 
L 222.277 249.191238 
L 223.608766 248.139259 
L 224.940532 246.816704 
L 226.272299 245.199651 
L 227.604065 243.276787 
L 228.935831 241.053014 
L 231.599363 235.815906 
L 235.594661 226.867215 
L 238.258194 221.090863 
L 239.58996 218.48839 
L 240.921726 216.149027 
L 242.253492 214.103473 
L 243.585258 212.362413 
L 244.917024 210.918335 
L 246.24879 209.749127 
L 247.580557 208.822721 
L 248.912323 208.101969 
L 250.244089 207.54898 
L 252.907621 206.808886 
L 255.571153 206.371196 
L 262.229984 205.453884 
L 264.893516 204.675743 
L 266.225282 204.102591 
L 267.557049 203.382412 
L 268.888815 202.504356 
L 270.220581 201.464538 
L 272.884113 198.918864 
L 275.547645 195.84419 
L 279.542944 190.632897 
L 283.538242 185.355692 
L 286.201774 182.112184 
L 288.865307 179.16246 
L 294.192371 173.504678 
L 295.524137 171.894155 
L 296.855904 170.093092 
L 298.18767 168.040337 
L 299.519436 165.676125 
L 300.851202 162.945339 
L 302.182968 159.801267 
L 303.514734 156.20982 
L 304.8465 152.153919 
L 306.178266 147.637558 
L 308.841799 137.361398 
L 311.505331 125.903711 
L 315.500629 108.376746 
L 318.164162 97.807106 
L 319.495928 93.125826 
L 320.827694 88.91141 
L 322.15946 85.17848 
L 323.491226 81.917239 
L 324.822992 79.098673 
L 326.154758 76.681654 
L 327.486525 74.620993 
L 328.818291 72.875272 
L 330.150057 71.41323 
L 331.481823 70.217612 
L 332.813589 69.285825 
L 334.145355 68.627309 
L 335.477121 68.258243 
L 336.808887 68.194831 
L 338.140654 68.44673 
L 339.47242 69.012194 
L 340.804186 69.876051 
L 342.135952 71.010919 
L 343.467718 72.381226 
L 346.13125 75.679059 
L 348.794783 79.528542 
L 351.458315 83.826063 
L 354.121847 88.56574 
L 356.785379 93.736142 
L 360.780678 102.143725 
L 364.775976 111.109319 
L 368.771275 120.565503 
L 374.098339 133.853023 
L 383.420702 157.497762 
L 386.084234 163.702594 
L 388.747767 169.303982 
L 391.411299 174.216011 
L 394.074831 178.531154 
L 399.401896 186.365648 
L 404.72896 194.423675 
L 408.724259 200.427423 
L 411.387791 204.083551 
L 414.051323 207.374476 
L 418.046622 211.854073 
L 422.04192 216.367118 
L 424.705452 219.644316 
L 428.700751 225.010019 
L 435.359581 234.261367 
L 438.023114 237.598715 
L 440.686646 240.500337 
L 443.350178 242.897461 
L 446.01371 244.816057 
L 448.677243 246.357084 
L 451.340775 247.641266 
L 455.336073 249.251902 
L 457.999605 250.131356 
L 460.663138 250.828119 
L 463.32667 251.329472 
L 465.990202 251.652483 
L 469.985501 251.893364 
L 475.312565 251.98489 
L 475.312565 251.98489 
" style="fill:none;stroke:#4c72b0;stroke-linecap:round;stroke-width:1.5;"/>
   </g>
   <g id="patch_13">
    <path d="M 180 252 
L 180 34.56 
" style="fill:none;stroke:#262626;stroke-linecap:square;stroke-linejoin:miter;stroke-width:1.25;"/>
   </g>
   <g id="patch_14">
    <path d="M 508.235294 252 
L 508.235294 34.56 
" style="fill:none;stroke:#262626;stroke-linecap:square;stroke-linejoin:miter;stroke-width:1.25;"/>
   </g>
   <g id="patch_15">
    <path d="M 180 252 
L 508.235294 252 
" style="fill:none;stroke:#262626;stroke-linecap:square;stroke-linejoin:miter;stroke-width:1.25;"/>
   </g>
   <g id="patch_16">
    <path d="M 180 34.56 
L 508.235294 34.56 
" style="fill:none;stroke:#262626;stroke-linecap:square;stroke-linejoin:miter;stroke-width:1.25;"/>
   </g>
   <g id="text_17">
    <!-- Female's Age Distribution -->
    <g style="fill:#262626;" transform="translate(248.006319 28.56)scale(0.15 -0.15)">
     <defs>
      <path d="M 9.8125 72.90625 
L 51.703125 72.90625 
L 51.703125 64.59375 
L 19.671875 64.59375 
L 19.671875 43.109375 
L 48.578125 43.109375 
L 48.578125 34.8125 
L 19.671875 34.8125 
L 19.671875 0 
L 9.8125 0 
z
" id="DejaVuSans-70"/>
      <path d="M 52 44.1875 
Q 55.375 50.25 60.0625 53.125 
Q 64.75 56 71.09375 56 
Q 79.640625 56 84.28125 50.015625 
Q 88.921875 44.046875 88.921875 33.015625 
L 88.921875 0 
L 79.890625 0 
L 79.890625 32.71875 
Q 79.890625 40.578125 77.09375 44.375 
Q 74.3125 48.1875 68.609375 48.1875 
Q 61.625 48.1875 57.5625 43.546875 
Q 53.515625 38.921875 53.515625 30.90625 
L 53.515625 0 
L 44.484375 0 
L 44.484375 32.71875 
Q 44.484375 40.625 41.703125 44.40625 
Q 38.921875 48.1875 33.109375 48.1875 
Q 26.21875 48.1875 22.15625 43.53125 
Q 18.109375 38.875 18.109375 30.90625 
L 18.109375 0 
L 9.078125 0 
L 9.078125 54.6875 
L 18.109375 54.6875 
L 18.109375 46.1875 
Q 21.1875 51.21875 25.484375 53.609375 
Q 29.78125 56 35.6875 56 
Q 41.65625 56 45.828125 52.96875 
Q 50 49.953125 52 44.1875 
z
" id="DejaVuSans-109"/>
      <path d="M 34.28125 27.484375 
Q 23.390625 27.484375 19.1875 25 
Q 14.984375 22.515625 14.984375 16.5 
Q 14.984375 11.71875 18.140625 8.90625 
Q 21.296875 6.109375 26.703125 6.109375 
Q 34.1875 6.109375 38.703125 11.40625 
Q 43.21875 16.703125 43.21875 25.484375 
L 43.21875 27.484375 
z
M 52.203125 31.203125 
L 52.203125 0 
L 43.21875 0 
L 43.21875 8.296875 
Q 40.140625 3.328125 35.546875 0.953125 
Q 30.953125 -1.421875 24.3125 -1.421875 
Q 15.921875 -1.421875 10.953125 3.296875 
Q 6 8.015625 6 15.921875 
Q 6 25.140625 12.171875 29.828125 
Q 18.359375 34.515625 30.609375 34.515625 
L 43.21875 34.515625 
L 43.21875 35.40625 
Q 43.21875 41.609375 39.140625 45 
Q 35.0625 48.390625 27.6875 48.390625 
Q 23 48.390625 18.546875 47.265625 
Q 14.109375 46.140625 10.015625 43.890625 
L 10.015625 52.203125 
Q 14.9375 54.109375 19.578125 55.046875 
Q 24.21875 56 28.609375 56 
Q 40.484375 56 46.34375 49.84375 
Q 52.203125 43.703125 52.203125 31.203125 
z
" id="DejaVuSans-97"/>
      <path d="M 9.421875 75.984375 
L 18.40625 75.984375 
L 18.40625 0 
L 9.421875 0 
z
" id="DejaVuSans-108"/>
      <path d="M 17.921875 72.90625 
L 17.921875 45.796875 
L 9.625 45.796875 
L 9.625 72.90625 
z
" id="DejaVuSans-39"/>
      <path id="DejaVuSans-32"/>
     </defs>
     <use xlink:href="#DejaVuSans-70"/>
     <use x="52.019531" xlink:href="#DejaVuSans-101"/>
     <use x="113.542969" xlink:href="#DejaVuSans-109"/>
     <use x="210.955078" xlink:href="#DejaVuSans-97"/>
     <use x="272.234375" xlink:href="#DejaVuSans-108"/>
     <use x="300.017578" xlink:href="#DejaVuSans-101"/>
     <use x="361.541016" xlink:href="#DejaVuSans-39"/>
     <use x="389.03125" xlink:href="#DejaVuSans-115"/>
     <use x="441.130859" xlink:href="#DejaVuSans-32"/>
     <use x="472.917969" xlink:href="#DejaVuSans-65"/>
     <use x="541.326172" xlink:href="#DejaVuSans-103"/>
     <use x="604.802734" xlink:href="#DejaVuSans-101"/>
     <use x="666.326172" xlink:href="#DejaVuSans-32"/>
     <use x="698.113281" xlink:href="#DejaVuSans-68"/>
     <use x="775.115234" xlink:href="#DejaVuSans-105"/>
     <use x="802.898438" xlink:href="#DejaVuSans-115"/>
     <use x="854.998047" xlink:href="#DejaVuSans-116"/>
     <use x="894.207031" xlink:href="#DejaVuSans-114"/>
     <use x="935.320312" xlink:href="#DejaVuSans-105"/>
     <use x="963.103516" xlink:href="#DejaVuSans-98"/>
     <use x="1026.580078" xlink:href="#DejaVuSans-117"/>
     <use x="1089.958984" xlink:href="#DejaVuSans-116"/>
     <use x="1129.167969" xlink:href="#DejaVuSans-105"/>
     <use x="1156.951172" xlink:href="#DejaVuSans-111"/>
     <use x="1218.132812" xlink:href="#DejaVuSans-110"/>
    </g>
   </g>
  </g>
  <g id="axes_2">
   <g id="patch_17">
    <path d="M 573.882353 252 
L 902.117647 252 
L 902.117647 34.56 
L 573.882353 34.56 
z
" style="fill:#ffffff;"/>
   </g>
   <g id="matplotlib.axis_3">
    <g id="xtick_8">
     <g id="text_18">
      <!-- 0 -->
      <g style="fill:#262626;" transform="translate(575.728343 271.947852)scale(0.1375 -0.1375)">
       <use xlink:href="#DejaVuSans-48"/>
      </g>
     </g>
    </g>
    <g id="xtick_9">
     <g id="text_19">
      <!-- 20 -->
      <g style="fill:#262626;" transform="translate(623.986603 271.947852)scale(0.1375 -0.1375)">
       <use xlink:href="#DejaVuSans-50"/>
       <use x="63.623047" xlink:href="#DejaVuSans-48"/>
      </g>
     </g>
    </g>
    <g id="xtick_10">
     <g id="text_20">
      <!-- 40 -->
      <g style="fill:#262626;" transform="translate(676.619083 271.947852)scale(0.1375 -0.1375)">
       <use xlink:href="#DejaVuSans-52"/>
       <use x="63.623047" xlink:href="#DejaVuSans-48"/>
      </g>
     </g>
    </g>
    <g id="xtick_11">
     <g id="text_21">
      <!-- 60 -->
      <g style="fill:#262626;" transform="translate(729.251562 271.947852)scale(0.1375 -0.1375)">
       <use xlink:href="#DejaVuSans-54"/>
       <use x="63.623047" xlink:href="#DejaVuSans-48"/>
      </g>
     </g>
    </g>
    <g id="xtick_12">
     <g id="text_22">
      <!-- 80 -->
      <g style="fill:#262626;" transform="translate(781.884042 271.947852)scale(0.1375 -0.1375)">
       <use xlink:href="#DejaVuSans-56"/>
       <use x="63.623047" xlink:href="#DejaVuSans-48"/>
      </g>
     </g>
    </g>
    <g id="xtick_13">
     <g id="text_23">
      <!-- 100 -->
      <g style="fill:#262626;" transform="translate(830.142303 271.947852)scale(0.1375 -0.1375)">
       <use xlink:href="#DejaVuSans-49"/>
       <use x="63.623047" xlink:href="#DejaVuSans-48"/>
       <use x="127.246094" xlink:href="#DejaVuSans-48"/>
      </g>
     </g>
    </g>
    <g id="xtick_14">
     <g id="text_24">
      <!-- 120 -->
      <g style="fill:#262626;" transform="translate(882.774782 271.947852)scale(0.1375 -0.1375)">
       <use xlink:href="#DejaVuSans-49"/>
       <use x="63.623047" xlink:href="#DejaVuSans-50"/>
       <use x="127.246094" xlink:href="#DejaVuSans-48"/>
      </g>
     </g>
    </g>
    <g id="text_25">
     <!-- Age -->
     <g style="fill:#262626;" transform="translate(723.493359 290.205078)scale(0.15 -0.15)">
      <use xlink:href="#DejaVuSans-65"/>
      <use x="68.408203" xlink:href="#DejaVuSans-103"/>
      <use x="131.884766" xlink:href="#DejaVuSans-101"/>
     </g>
    </g>
   </g>
   <g id="matplotlib.axis_4">
    <g id="ytick_8"/>
    <g id="ytick_9"/>
    <g id="ytick_10"/>
    <g id="ytick_11"/>
    <g id="ytick_12"/>
    <g id="ytick_13"/>
    <g id="ytick_14"/>
   </g>
   <g id="patch_18">
    <path clip-path="url(#p0047d1e468)" d="M 627.471793 252 
L 649.05111 252 
L 649.05111 165.763553 
L 627.471793 165.763553 
z
" style="fill:#dd8452;opacity:0.4;stroke:#ffffff;stroke-linejoin:miter;"/>
   </g>
   <g id="patch_19">
    <path clip-path="url(#p0047d1e468)" d="M 649.05111 252 
L 670.630426 252 
L 670.630426 175.036289 
L 649.05111 175.036289 
z
" style="fill:#dd8452;opacity:0.4;stroke:#ffffff;stroke-linejoin:miter;"/>
   </g>
   <g id="patch_20">
    <path clip-path="url(#p0047d1e468)" d="M 670.630426 252 
L 692.209743 252 
L 692.209743 153.708996 
L 670.630426 153.708996 
z
" style="fill:#dd8452;opacity:0.4;stroke:#ffffff;stroke-linejoin:miter;"/>
   </g>
   <g id="patch_21">
    <path clip-path="url(#p0047d1e468)" d="M 692.209743 252 
L 713.789059 252 
L 713.789059 130.733216 
L 692.209743 130.733216 
z
" style="fill:#dd8452;opacity:0.4;stroke:#ffffff;stroke-linejoin:miter;"/>
   </g>
   <g id="patch_22">
    <path clip-path="url(#p0047d1e468)" d="M 713.789059 252 
L 735.368376 252 
L 735.368376 89.521055 
L 713.789059 89.521055 
z
" style="fill:#dd8452;opacity:0.4;stroke:#ffffff;stroke-linejoin:miter;"/>
   </g>
   <g id="patch_23">
    <path clip-path="url(#p0047d1e468)" d="M 735.368376 252 
L 756.947693 252 
L 756.947693 93.436211 
L 735.368376 93.436211 
z
" style="fill:#dd8452;opacity:0.4;stroke:#ffffff;stroke-linejoin:miter;"/>
   </g>
   <g id="patch_24">
    <path clip-path="url(#p0047d1e468)" d="M 756.947693 252 
L 778.527009 252 
L 778.527009 159.581729 
L 756.947693 159.581729 
z
" style="fill:#dd8452;opacity:0.4;stroke:#ffffff;stroke-linejoin:miter;"/>
   </g>
   <g id="patch_25">
    <path clip-path="url(#p0047d1e468)" d="M 778.527009 252 
L 800.106326 252 
L 800.106326 200.999951 
L 778.527009 200.999951 
z
" style="fill:#dd8452;opacity:0.4;stroke:#ffffff;stroke-linejoin:miter;"/>
   </g>
   <g id="patch_26">
    <path clip-path="url(#p0047d1e468)" d="M 800.106326 252 
L 821.685642 252 
L 821.685642 231.187859 
L 800.106326 231.187859 
z
" style="fill:#dd8452;opacity:0.4;stroke:#ffffff;stroke-linejoin:miter;"/>
   </g>
   <g id="patch_27">
    <path clip-path="url(#p0047d1e468)" d="M 821.685642 252 
L 843.264959 252 
L 843.264959 245.921206 
L 821.685642 245.921206 
z
" style="fill:#dd8452;opacity:0.4;stroke:#ffffff;stroke-linejoin:miter;"/>
   </g>
   <g id="line2d_2">
    <path clip-path="url(#p0047d1e468)" d="M 604.954257 251.865741 
L 607.575646 251.610101 
L 608.886341 251.362675 
L 610.197036 250.986482 
L 611.50773 250.431544 
L 612.818425 249.637329 
L 614.12912 248.534553 
L 615.439814 247.049025 
L 616.750509 245.107649 
L 618.061204 242.646355 
L 619.371898 239.619228 
L 620.682593 236.007601 
L 621.993288 231.827615 
L 623.303982 227.134628 
L 625.925372 216.621969 
L 629.857456 200.245237 
L 632.478845 190.674025 
L 633.78954 186.609177 
L 635.100234 183.080557 
L 636.410929 180.085194 
L 637.721624 177.593029 
L 639.032318 175.557017 
L 640.343013 173.92333 
L 641.653708 172.639877 
L 642.964402 171.661888 
L 644.275097 170.954112 
L 645.585792 170.489882 
L 646.896486 170.247904 
L 648.207181 170.207955 
L 649.517876 170.346713 
L 652.139265 171.035091 
L 657.382044 172.838207 
L 658.692738 173.103822 
L 660.003433 173.216349 
L 661.314128 173.149529 
L 662.624822 172.885443 
L 663.935517 172.413782 
L 665.246211 171.730879 
L 666.556906 170.838886 
L 667.867601 169.745291 
L 669.178295 168.46272 
L 671.799685 165.405588 
L 674.421074 161.855975 
L 679.663853 154.117442 
L 683.595937 148.374849 
L 686.217326 144.785307 
L 688.838715 141.498922 
L 691.460105 138.541159 
L 696.702883 132.959368 
L 699.324273 129.694559 
L 700.634967 127.803024 
L 701.945662 125.707705 
L 704.567051 120.895139 
L 707.188441 115.377187 
L 713.741914 100.921374 
L 715.052609 98.403226 
L 716.363303 96.144701 
L 717.673998 94.186367 
L 718.984693 92.554487 
L 720.295387 91.259886 
L 721.606082 90.298666 
L 722.916777 89.654754 
L 724.227471 89.303957 
L 725.538166 89.21878 
L 726.848861 89.373105 
L 728.159555 89.745775 
L 729.47025 90.32237 
L 730.780945 91.094854 
L 732.091639 92.059291 
L 733.402334 93.212297 
L 734.713029 94.547176 
L 737.334418 97.702061 
L 739.955807 101.32742 
L 753.062754 120.570417 
L 755.684143 125.196393 
L 758.305533 130.471203 
L 760.926922 136.351122 
L 764.859006 145.968171 
L 775.344563 172.355243 
L 779.276647 181.327586 
L 783.208731 189.512643 
L 785.830121 194.536291 
L 788.45151 199.227785 
L 792.383594 205.733544 
L 797.626373 213.805081 
L 801.558457 219.557593 
L 804.179846 223.135303 
L 806.801235 226.385845 
L 809.422625 229.247766 
L 812.044014 231.731853 
L 814.665403 233.912803 
L 818.597487 236.84511 
L 826.461655 242.34182 
L 830.393739 244.886356 
L 833.015128 246.395552 
L 835.636518 247.707578 
L 838.257907 248.808997 
L 840.879296 249.70676 
L 843.500686 250.417888 
L 846.122075 250.961742 
L 850.054159 251.508317 
L 853.986243 251.802914 
L 859.229022 251.957025 
L 865.782495 251.996316 
L 865.782495 251.996316 
" style="fill:none;stroke:#dd8452;stroke-linecap:round;stroke-width:1.5;"/>
   </g>
   <g id="patch_28">
    <path d="M 573.882353 252 
L 573.882353 34.56 
" style="fill:none;stroke:#262626;stroke-linecap:square;stroke-linejoin:miter;stroke-width:1.25;"/>
   </g>
   <g id="patch_29">
    <path d="M 902.117647 252 
L 902.117647 34.56 
" style="fill:none;stroke:#262626;stroke-linecap:square;stroke-linejoin:miter;stroke-width:1.25;"/>
   </g>
   <g id="patch_30">
    <path d="M 573.882353 252 
L 902.117647 252 
" style="fill:none;stroke:#262626;stroke-linecap:square;stroke-linejoin:miter;stroke-width:1.25;"/>
   </g>
   <g id="patch_31">
    <path d="M 573.882353 34.56 
L 902.117647 34.56 
" style="fill:none;stroke:#262626;stroke-linecap:square;stroke-linejoin:miter;stroke-width:1.25;"/>
   </g>
   <g id="text_26">
    <!-- Male's Age Distribution -->
    <g style="fill:#262626;" transform="translate(651.239063 28.56)scale(0.15 -0.15)">
     <defs>
      <path d="M 9.8125 72.90625 
L 24.515625 72.90625 
L 43.109375 23.296875 
L 61.8125 72.90625 
L 76.515625 72.90625 
L 76.515625 0 
L 66.890625 0 
L 66.890625 64.015625 
L 48.09375 14.015625 
L 38.1875 14.015625 
L 19.390625 64.015625 
L 19.390625 0 
L 9.8125 0 
z
" id="DejaVuSans-77"/>
     </defs>
     <use xlink:href="#DejaVuSans-77"/>
     <use x="86.279297" xlink:href="#DejaVuSans-97"/>
     <use x="147.558594" xlink:href="#DejaVuSans-108"/>
     <use x="175.341797" xlink:href="#DejaVuSans-101"/>
     <use x="236.865234" xlink:href="#DejaVuSans-39"/>
     <use x="264.355469" xlink:href="#DejaVuSans-115"/>
     <use x="316.455078" xlink:href="#DejaVuSans-32"/>
     <use x="348.242188" xlink:href="#DejaVuSans-65"/>
     <use x="416.650391" xlink:href="#DejaVuSans-103"/>
     <use x="480.126953" xlink:href="#DejaVuSans-101"/>
     <use x="541.650391" xlink:href="#DejaVuSans-32"/>
     <use x="573.4375" xlink:href="#DejaVuSans-68"/>
     <use x="650.439453" xlink:href="#DejaVuSans-105"/>
     <use x="678.222656" xlink:href="#DejaVuSans-115"/>
     <use x="730.322266" xlink:href="#DejaVuSans-116"/>
     <use x="769.53125" xlink:href="#DejaVuSans-114"/>
     <use x="810.644531" xlink:href="#DejaVuSans-105"/>
     <use x="838.427734" xlink:href="#DejaVuSans-98"/>
     <use x="901.904297" xlink:href="#DejaVuSans-117"/>
     <use x="965.283203" xlink:href="#DejaVuSans-116"/>
     <use x="1004.492188" xlink:href="#DejaVuSans-105"/>
     <use x="1032.275391" xlink:href="#DejaVuSans-111"/>
     <use x="1093.457031" xlink:href="#DejaVuSans-110"/>
    </g>
   </g>
  </g>
  <g id="axes_3">
   <g id="patch_32">
    <path d="M 967.764706 252 
L 1296 252 
L 1296 34.56 
L 967.764706 34.56 
z
" style="fill:#ffffff;"/>
   </g>
   <g id="matplotlib.axis_5">
    <g id="xtick_15">
     <g id="text_27">
      <!-- 0 -->
      <g style="fill:#262626;" transform="translate(969.610696 271.947852)scale(0.1375 -0.1375)">
       <use xlink:href="#DejaVuSans-48"/>
      </g>
     </g>
    </g>
    <g id="xtick_16">
     <g id="text_28">
      <!-- 20 -->
      <g style="fill:#262626;" transform="translate(1017.868956 271.947852)scale(0.1375 -0.1375)">
       <use xlink:href="#DejaVuSans-50"/>
       <use x="63.623047" xlink:href="#DejaVuSans-48"/>
      </g>
     </g>
    </g>
    <g id="xtick_17">
     <g id="text_29">
      <!-- 40 -->
      <g style="fill:#262626;" transform="translate(1070.501436 271.947852)scale(0.1375 -0.1375)">
       <use xlink:href="#DejaVuSans-52"/>
       <use x="63.623047" xlink:href="#DejaVuSans-48"/>
      </g>
     </g>
    </g>
    <g id="xtick_18">
     <g id="text_30">
      <!-- 60 -->
      <g style="fill:#262626;" transform="translate(1123.133915 271.947852)scale(0.1375 -0.1375)">
       <use xlink:href="#DejaVuSans-54"/>
       <use x="63.623047" xlink:href="#DejaVuSans-48"/>
      </g>
     </g>
    </g>
    <g id="xtick_19">
     <g id="text_31">
      <!-- 80 -->
      <g style="fill:#262626;" transform="translate(1175.766395 271.947852)scale(0.1375 -0.1375)">
       <use xlink:href="#DejaVuSans-56"/>
       <use x="63.623047" xlink:href="#DejaVuSans-48"/>
      </g>
     </g>
    </g>
    <g id="xtick_20">
     <g id="text_32">
      <!-- 100 -->
      <g style="fill:#262626;" transform="translate(1224.024656 271.947852)scale(0.1375 -0.1375)">
       <use xlink:href="#DejaVuSans-49"/>
       <use x="63.623047" xlink:href="#DejaVuSans-48"/>
       <use x="127.246094" xlink:href="#DejaVuSans-48"/>
      </g>
     </g>
    </g>
    <g id="xtick_21">
     <g id="text_33">
      <!-- 120 -->
      <g style="fill:#262626;" transform="translate(1276.657135 271.947852)scale(0.1375 -0.1375)">
       <use xlink:href="#DejaVuSans-49"/>
       <use x="63.623047" xlink:href="#DejaVuSans-50"/>
       <use x="127.246094" xlink:href="#DejaVuSans-48"/>
      </g>
     </g>
    </g>
    <g id="text_34">
     <!-- Age -->
     <g style="fill:#262626;" transform="translate(1117.375712 290.205078)scale(0.15 -0.15)">
      <use xlink:href="#DejaVuSans-65"/>
      <use x="68.408203" xlink:href="#DejaVuSans-103"/>
      <use x="131.884766" xlink:href="#DejaVuSans-101"/>
     </g>
    </g>
   </g>
   <g id="matplotlib.axis_6">
    <g id="ytick_15"/>
    <g id="ytick_16"/>
    <g id="ytick_17"/>
    <g id="ytick_18"/>
    <g id="ytick_19"/>
    <g id="ytick_20"/>
    <g id="ytick_21"/>
   </g>
   <g id="patch_33">
    <path clip-path="url(#pdf5411c378)" d="M 1026.617394 252 
L 1047.670386 252 
L 1047.670386 201.285131 
L 1026.617394 201.285131 
z
" style="fill:#55a868;opacity:0.4;stroke:#ffffff;stroke-linejoin:miter;"/>
   </g>
   <g id="patch_34">
    <path clip-path="url(#pdf5411c378)" d="M 1047.670386 252 
L 1068.723377 252 
L 1068.723377 180.153936 
L 1047.670386 180.153936 
z
" style="fill:#55a868;opacity:0.4;stroke:#ffffff;stroke-linejoin:miter;"/>
   </g>
   <g id="patch_35">
    <path clip-path="url(#pdf5411c378)" d="M 1068.723377 252 
L 1089.776369 252 
L 1089.776369 142.117784 
L 1068.723377 142.117784 
z
" style="fill:#55a868;opacity:0.4;stroke:#ffffff;stroke-linejoin:miter;"/>
   </g>
   <g id="patch_36">
    <path clip-path="url(#pdf5411c378)" d="M 1089.776369 252 
L 1110.829361 252 
L 1110.829361 120.986589 
L 1089.776369 120.986589 
z
" style="fill:#55a868;opacity:0.4;stroke:#ffffff;stroke-linejoin:miter;"/>
   </g>
   <g id="patch_37">
    <path clip-path="url(#pdf5411c378)" d="M 1110.829361 252 
L 1131.882353 252 
L 1131.882353 44.914286 
L 1110.829361 44.914286 
z
" style="fill:#55a868;opacity:0.4;stroke:#ffffff;stroke-linejoin:miter;"/>
   </g>
   <g id="patch_38">
    <path clip-path="url(#pdf5411c378)" d="M 1131.882353 252 
L 1152.935345 252 
L 1152.935345 112.534111 
L 1131.882353 112.534111 
z
" style="fill:#55a868;opacity:0.4;stroke:#ffffff;stroke-linejoin:miter;"/>
   </g>
   <g id="patch_39">
    <path clip-path="url(#pdf5411c378)" d="M 1152.935345 252 
L 1173.988337 252 
L 1173.988337 154.796501 
L 1152.935345 154.796501 
z
" style="fill:#55a868;opacity:0.4;stroke:#ffffff;stroke-linejoin:miter;"/>
   </g>
   <g id="patch_40">
    <path clip-path="url(#pdf5411c378)" d="M 1173.988337 252 
L 1195.041328 252 
L 1195.041328 197.058892 
L 1173.988337 197.058892 
z
" style="fill:#55a868;opacity:0.4;stroke:#ffffff;stroke-linejoin:miter;"/>
   </g>
   <g id="patch_41">
    <path clip-path="url(#pdf5411c378)" d="M 1195.041328 252 
L 1216.09432 252 
L 1216.09432 226.642566 
L 1195.041328 226.642566 
z
" style="fill:#55a868;opacity:0.4;stroke:#ffffff;stroke-linejoin:miter;"/>
   </g>
   <g id="patch_42">
    <path clip-path="url(#pdf5411c378)" d="M 1216.09432 252 
L 1237.147312 252 
L 1237.147312 243.547522 
L 1216.09432 243.547522 
z
" style="fill:#55a868;opacity:0.4;stroke:#ffffff;stroke-linejoin:miter;"/>
   </g>
   <g id="line2d_3">
    <path clip-path="url(#pdf5411c378)" d="M 982.684492 251.832009 
L 987.18292 251.584322 
L 990.181872 251.276767 
L 993.180824 250.790729 
L 996.179776 250.056157 
L 999.178728 248.994604 
L 1002.17768 247.527948 
L 1005.176632 245.590821 
L 1008.175584 243.144875 
L 1011.174536 240.191659 
L 1014.173488 236.78016 
L 1017.17244 233.005608 
L 1023.170344 224.902331 
L 1027.668772 218.880094 
L 1032.1672 213.257699 
L 1036.665628 208.092433 
L 1044.163008 200.022479 
L 1048.661436 195.075939 
L 1053.159863 189.769127 
L 1056.158815 185.951908 
L 1059.157767 181.876521 
L 1062.156719 177.531391 
L 1066.655147 170.526512 
L 1071.153575 163.013943 
L 1075.652003 155.076329 
L 1080.150431 146.683677 
L 1083.149383 140.742169 
L 1086.148335 134.424857 
L 1089.147287 127.659878 
L 1092.146239 120.429266 
L 1096.644667 108.895016 
L 1102.642571 93.446244 
L 1105.641523 86.481338 
L 1107.140999 83.365127 
L 1108.640475 80.558256 
L 1110.139951 78.105143 
L 1111.639427 76.044957 
L 1113.138903 74.410444 
L 1114.638379 73.226963 
L 1116.137855 72.511754 
L 1117.637331 72.273464 
L 1119.136807 72.511913 
L 1120.636283 73.218127 
L 1122.135759 74.374618 
L 1123.635235 75.955923 
L 1125.134711 77.929377 
L 1126.634187 80.256118 
L 1128.133663 82.892292 
L 1131.132615 88.900951 
L 1134.131567 95.55958 
L 1141.628947 112.712896 
L 1144.627899 119.126326 
L 1147.626851 125.125195 
L 1150.625803 130.738701 
L 1155.124231 138.661482 
L 1162.621611 151.673861 
L 1167.120039 159.972624 
L 1171.618467 168.810567 
L 1179.115847 184.303325 
L 1185.113751 196.466996 
L 1188.112703 202.164332 
L 1191.111655 207.49135 
L 1194.110607 212.399604 
L 1197.109558 216.872518 
L 1200.10851 220.921475 
L 1203.107462 224.578215 
L 1206.106414 227.885146 
L 1209.105366 230.885451 
L 1212.104318 233.614921 
L 1215.10327 236.097145 
L 1218.102222 238.342992 
L 1221.101174 240.354162 
L 1224.100126 242.129429 
L 1227.099078 243.671323 
L 1230.09803 244.990981 
L 1233.096982 246.109616 
L 1237.59541 247.475419 
L 1242.093838 248.561304 
L 1248.091742 249.713853 
L 1254.089646 250.605017 
L 1260.08755 251.244586 
L 1266.085454 251.644818 
L 1273.582834 251.888701 
L 1281.080214 251.9729 
L 1281.080214 251.9729 
" style="fill:none;stroke:#55a868;stroke-linecap:round;stroke-width:1.5;"/>
   </g>
   <g id="patch_43">
    <path d="M 967.764706 252 
L 967.764706 34.56 
" style="fill:none;stroke:#262626;stroke-linecap:square;stroke-linejoin:miter;stroke-width:1.25;"/>
   </g>
   <g id="patch_44">
    <path d="M 1296 252 
L 1296 34.56 
" style="fill:none;stroke:#262626;stroke-linecap:square;stroke-linejoin:miter;stroke-width:1.25;"/>
   </g>
   <g id="patch_45">
    <path d="M 967.764706 252 
L 1296 252 
" style="fill:none;stroke:#262626;stroke-linecap:square;stroke-linejoin:miter;stroke-width:1.25;"/>
   </g>
   <g id="patch_46">
    <path d="M 967.764706 34.56 
L 1296 34.56 
" style="fill:none;stroke:#262626;stroke-linecap:square;stroke-linejoin:miter;stroke-width:1.25;"/>
   </g>
   <g id="text_35">
    <!-- Other's Age Distribution -->
    <g style="fill:#262626;" transform="translate(1041.591728 28.56)scale(0.15 -0.15)">
     <defs>
      <path d="M 39.40625 66.21875 
Q 28.65625 66.21875 22.328125 58.203125 
Q 16.015625 50.203125 16.015625 36.375 
Q 16.015625 22.609375 22.328125 14.59375 
Q 28.65625 6.59375 39.40625 6.59375 
Q 50.140625 6.59375 56.421875 14.59375 
Q 62.703125 22.609375 62.703125 36.375 
Q 62.703125 50.203125 56.421875 58.203125 
Q 50.140625 66.21875 39.40625 66.21875 
z
M 39.40625 74.21875 
Q 54.734375 74.21875 63.90625 63.9375 
Q 73.09375 53.65625 73.09375 36.375 
Q 73.09375 19.140625 63.90625 8.859375 
Q 54.734375 -1.421875 39.40625 -1.421875 
Q 24.03125 -1.421875 14.8125 8.828125 
Q 5.609375 19.09375 5.609375 36.375 
Q 5.609375 53.65625 14.8125 63.9375 
Q 24.03125 74.21875 39.40625 74.21875 
z
" id="DejaVuSans-79"/>
      <path d="M 54.890625 33.015625 
L 54.890625 0 
L 45.90625 0 
L 45.90625 32.71875 
Q 45.90625 40.484375 42.875 44.328125 
Q 39.84375 48.1875 33.796875 48.1875 
Q 26.515625 48.1875 22.3125 43.546875 
Q 18.109375 38.921875 18.109375 30.90625 
L 18.109375 0 
L 9.078125 0 
L 9.078125 75.984375 
L 18.109375 75.984375 
L 18.109375 46.1875 
Q 21.34375 51.125 25.703125 53.5625 
Q 30.078125 56 35.796875 56 
Q 45.21875 56 50.046875 50.171875 
Q 54.890625 44.34375 54.890625 33.015625 
z
" id="DejaVuSans-104"/>
     </defs>
     <use xlink:href="#DejaVuSans-79"/>
     <use x="78.710938" xlink:href="#DejaVuSans-116"/>
     <use x="117.919922" xlink:href="#DejaVuSans-104"/>
     <use x="181.298828" xlink:href="#DejaVuSans-101"/>
     <use x="242.822266" xlink:href="#DejaVuSans-114"/>
     <use x="283.935547" xlink:href="#DejaVuSans-39"/>
     <use x="311.425781" xlink:href="#DejaVuSans-115"/>
     <use x="363.525391" xlink:href="#DejaVuSans-32"/>
     <use x="395.3125" xlink:href="#DejaVuSans-65"/>
     <use x="463.720703" xlink:href="#DejaVuSans-103"/>
     <use x="527.197266" xlink:href="#DejaVuSans-101"/>
     <use x="588.720703" xlink:href="#DejaVuSans-32"/>
     <use x="620.507812" xlink:href="#DejaVuSans-68"/>
     <use x="697.509766" xlink:href="#DejaVuSans-105"/>
     <use x="725.292969" xlink:href="#DejaVuSans-115"/>
     <use x="777.392578" xlink:href="#DejaVuSans-116"/>
     <use x="816.601562" xlink:href="#DejaVuSans-114"/>
     <use x="857.714844" xlink:href="#DejaVuSans-105"/>
     <use x="885.498047" xlink:href="#DejaVuSans-98"/>
     <use x="948.974609" xlink:href="#DejaVuSans-117"/>
     <use x="1012.353516" xlink:href="#DejaVuSans-116"/>
     <use x="1051.5625" xlink:href="#DejaVuSans-105"/>
     <use x="1079.345703" xlink:href="#DejaVuSans-111"/>
     <use x="1140.527344" xlink:href="#DejaVuSans-110"/>
    </g>
   </g>
  </g>
 </g>
 <defs>
  <clipPath id="p9bd54d2fd2">
   <rect height="217.44" width="328.235294" x="180" y="34.56"/>
  </clipPath>
  <clipPath id="p0047d1e468">
   <rect height="217.44" width="328.235294" x="573.882353" y="34.56"/>
  </clipPath>
  <clipPath id="pdf5411c378">
   <rect height="217.44" width="328.235294" x="967.764706" y="34.56"/>
  </clipPath>
 </defs>
</svg>
