<?xml version="1.0" encoding="utf-8" standalone="no"?>
<!DOCTYPE svg PUBLIC "-//W3C//DTD SVG 1.1//EN"
  "http://www.w3.org/Graphics/SVG/1.1/DTD/svg11.dtd">
<!-- Created with matplotlib (https://matplotlib.org/) -->
<svg height="288pt" version="1.1" viewBox="0 0 1440 288" width="1440pt" xmlns="http://www.w3.org/2000/svg" xmlns:xlink="http://www.w3.org/1999/xlink">
 <metadata>
  <rdf:RDF xmlns:cc="http://creativecommons.org/ns#" xmlns:dc="http://purl.org/dc/elements/1.1/" xmlns:rdf="http://www.w3.org/1999/02/22-rdf-syntax-ns#">
   <cc:Work>
    <dc:type rdf:resource="http://purl.org/dc/dcmitype/StillImage"/>
    <dc:date>2021-06-20T11:33:10.431085</dc:date>
    <dc:format>image/svg+xml</dc:format>
    <dc:creator>
     <cc:Agent>
      <dc:title>Matplotlib v3.3.2, https://matplotlib.org/</dc:title>
     </cc:Agent>
    </dc:creator>
   </cc:Work>
  </rdf:RDF>
 </metadata>
 <defs>
  <style type="text/css">*{stroke-linecap:butt;stroke-linejoin:round;}</style>
 </defs>
 <g id="figure_1">
  <g id="patch_1">
   <path d="M 0 288 
L 1440 288 
L 1440 0 
L 0 0 
z
" style="fill:#ffffff;"/>
  </g>
  <g id="axes_1">
   <g id="patch_2">
    <path d="M 180 252 
L 508.235294 252 
L 508.235294 34.56 
L 180 34.56 
z
" style="fill:#ffffff;"/>
   </g>
   <g id="matplotlib.axis_1">
    <g id="xtick_1">
     <g id="text_1">
      <!-- 1000 -->
      <g style="fill:#262626;" transform="translate(215.627729 271.947852)scale(0.1375 -0.1375)">
       <defs>
        <path d="M 12.40625 8.296875 
L 28.515625 8.296875 
L 28.515625 63.921875 
L 10.984375 60.40625 
L 10.984375 69.390625 
L 28.421875 72.90625 
L 38.28125 72.90625 
L 38.28125 8.296875 
L 54.390625 8.296875 
L 54.390625 0 
L 12.40625 0 
z
" id="DejaVuSans-49"/>
        <path d="M 31.78125 66.40625 
Q 24.171875 66.40625 20.328125 58.90625 
Q 16.5 51.421875 16.5 36.375 
Q 16.5 21.390625 20.328125 13.890625 
Q 24.171875 6.390625 31.78125 6.390625 
Q 39.453125 6.390625 43.28125 13.890625 
Q 47.125 21.390625 47.125 36.375 
Q 47.125 51.421875 43.28125 58.90625 
Q 39.453125 66.40625 31.78125 66.40625 
z
M 31.78125 74.21875 
Q 44.046875 74.21875 50.515625 64.515625 
Q 56.984375 54.828125 56.984375 36.375 
Q 56.984375 17.96875 50.515625 8.265625 
Q 44.046875 -1.421875 31.78125 -1.421875 
Q 19.53125 -1.421875 13.0625 8.265625 
Q 6.59375 17.96875 6.59375 36.375 
Q 6.59375 54.828125 13.0625 64.515625 
Q 19.53125 74.21875 31.78125 74.21875 
z
" id="DejaVuSans-48"/>
       </defs>
       <use xlink:href="#DejaVuSans-49"/>
       <use x="63.623047" xlink:href="#DejaVuSans-48"/>
       <use x="127.246094" xlink:href="#DejaVuSans-48"/>
       <use x="190.869141" xlink:href="#DejaVuSans-48"/>
      </g>
     </g>
    </g>
    <g id="xtick_2">
     <g id="text_2">
      <!-- 1500 -->
      <g style="fill:#262626;" transform="translate(274.075882 271.947852)scale(0.1375 -0.1375)">
       <defs>
        <path d="M 10.796875 72.90625 
L 49.515625 72.90625 
L 49.515625 64.59375 
L 19.828125 64.59375 
L 19.828125 46.734375 
Q 21.96875 47.46875 24.109375 47.828125 
Q 26.265625 48.1875 28.421875 48.1875 
Q 40.625 48.1875 47.75 41.5 
Q 54.890625 34.8125 54.890625 23.390625 
Q 54.890625 11.625 47.5625 5.09375 
Q 40.234375 -1.421875 26.90625 -1.421875 
Q 22.3125 -1.421875 17.546875 -0.640625 
Q 12.796875 0.140625 7.71875 1.703125 
L 7.71875 11.625 
Q 12.109375 9.234375 16.796875 8.0625 
Q 21.484375 6.890625 26.703125 6.890625 
Q 35.15625 6.890625 40.078125 11.328125 
Q 45.015625 15.765625 45.015625 23.390625 
Q 45.015625 31 40.078125 35.4375 
Q 35.15625 39.890625 26.703125 39.890625 
Q 22.75 39.890625 18.8125 39.015625 
Q 14.890625 38.140625 10.796875 36.28125 
z
" id="DejaVuSans-53"/>
       </defs>
       <use xlink:href="#DejaVuSans-49"/>
       <use x="63.623047" xlink:href="#DejaVuSans-53"/>
       <use x="127.246094" xlink:href="#DejaVuSans-48"/>
       <use x="190.869141" xlink:href="#DejaVuSans-48"/>
      </g>
     </g>
    </g>
    <g id="xtick_3">
     <g id="text_3">
      <!-- 2000 -->
      <g style="fill:#262626;" transform="translate(332.524036 271.947852)scale(0.1375 -0.1375)">
       <defs>
        <path d="M 19.1875 8.296875 
L 53.609375 8.296875 
L 53.609375 0 
L 7.328125 0 
L 7.328125 8.296875 
Q 12.9375 14.109375 22.625 23.890625 
Q 32.328125 33.6875 34.8125 36.53125 
Q 39.546875 41.84375 41.421875 45.53125 
Q 43.3125 49.21875 43.3125 52.78125 
Q 43.3125 58.59375 39.234375 62.25 
Q 35.15625 65.921875 28.609375 65.921875 
Q 23.96875 65.921875 18.8125 64.3125 
Q 13.671875 62.703125 7.8125 59.421875 
L 7.8125 69.390625 
Q 13.765625 71.78125 18.9375 73 
Q 24.125 74.21875 28.421875 74.21875 
Q 39.75 74.21875 46.484375 68.546875 
Q 53.21875 62.890625 53.21875 53.421875 
Q 53.21875 48.921875 51.53125 44.890625 
Q 49.859375 40.875 45.40625 35.40625 
Q 44.1875 33.984375 37.640625 27.21875 
Q 31.109375 20.453125 19.1875 8.296875 
z
" id="DejaVuSans-50"/>
       </defs>
       <use xlink:href="#DejaVuSans-50"/>
       <use x="63.623047" xlink:href="#DejaVuSans-48"/>
       <use x="127.246094" xlink:href="#DejaVuSans-48"/>
       <use x="190.869141" xlink:href="#DejaVuSans-48"/>
      </g>
     </g>
    </g>
    <g id="xtick_4">
     <g id="text_4">
      <!-- 2500 -->
      <g style="fill:#262626;" transform="translate(390.972189 271.947852)scale(0.1375 -0.1375)">
       <use xlink:href="#DejaVuSans-50"/>
       <use x="63.623047" xlink:href="#DejaVuSans-53"/>
       <use x="127.246094" xlink:href="#DejaVuSans-48"/>
       <use x="190.869141" xlink:href="#DejaVuSans-48"/>
      </g>
     </g>
    </g>
    <g id="xtick_5">
     <g id="text_5">
      <!-- 3000 -->
      <g style="fill:#262626;" transform="translate(449.420342 271.947852)scale(0.1375 -0.1375)">
       <defs>
        <path d="M 40.578125 39.3125 
Q 47.65625 37.796875 51.625 33 
Q 55.609375 28.21875 55.609375 21.1875 
Q 55.609375 10.40625 48.1875 4.484375 
Q 40.765625 -1.421875 27.09375 -1.421875 
Q 22.515625 -1.421875 17.65625 -0.515625 
Q 12.796875 0.390625 7.625 2.203125 
L 7.625 11.71875 
Q 11.71875 9.328125 16.59375 8.109375 
Q 21.484375 6.890625 26.8125 6.890625 
Q 36.078125 6.890625 40.9375 10.546875 
Q 45.796875 14.203125 45.796875 21.1875 
Q 45.796875 27.640625 41.28125 31.265625 
Q 36.765625 34.90625 28.71875 34.90625 
L 20.21875 34.90625 
L 20.21875 43.015625 
L 29.109375 43.015625 
Q 36.375 43.015625 40.234375 45.921875 
Q 44.09375 48.828125 44.09375 54.296875 
Q 44.09375 59.90625 40.109375 62.90625 
Q 36.140625 65.921875 28.71875 65.921875 
Q 24.65625 65.921875 20.015625 65.03125 
Q 15.375 64.15625 9.8125 62.3125 
L 9.8125 71.09375 
Q 15.4375 72.65625 20.34375 73.4375 
Q 25.25 74.21875 29.59375 74.21875 
Q 40.828125 74.21875 47.359375 69.109375 
Q 53.90625 64.015625 53.90625 55.328125 
Q 53.90625 49.265625 50.4375 45.09375 
Q 46.96875 40.921875 40.578125 39.3125 
z
" id="DejaVuSans-51"/>
       </defs>
       <use xlink:href="#DejaVuSans-51"/>
       <use x="63.623047" xlink:href="#DejaVuSans-48"/>
       <use x="127.246094" xlink:href="#DejaVuSans-48"/>
       <use x="190.869141" xlink:href="#DejaVuSans-48"/>
      </g>
     </g>
    </g>
    <g id="text_6">
     <!-- Days of Membership -->
     <g style="fill:#262626;" transform="translate(267.048116 290.205078)scale(0.15 -0.15)">
      <defs>
       <path d="M 19.671875 64.796875 
L 19.671875 8.109375 
L 31.59375 8.109375 
Q 46.6875 8.109375 53.6875 14.9375 
Q 60.6875 21.78125 60.6875 36.53125 
Q 60.6875 51.171875 53.6875 57.984375 
Q 46.6875 64.796875 31.59375 64.796875 
z
M 9.8125 72.90625 
L 30.078125 72.90625 
Q 51.265625 72.90625 61.171875 64.09375 
Q 71.09375 55.28125 71.09375 36.53125 
Q 71.09375 17.671875 61.125 8.828125 
Q 51.171875 0 30.078125 0 
L 9.8125 0 
z
" id="DejaVuSans-68"/>
       <path d="M 34.28125 27.484375 
Q 23.390625 27.484375 19.1875 25 
Q 14.984375 22.515625 14.984375 16.5 
Q 14.984375 11.71875 18.140625 8.90625 
Q 21.296875 6.109375 26.703125 6.109375 
Q 34.1875 6.109375 38.703125 11.40625 
Q 43.21875 16.703125 43.21875 25.484375 
L 43.21875 27.484375 
z
M 52.203125 31.203125 
L 52.203125 0 
L 43.21875 0 
L 43.21875 8.296875 
Q 40.140625 3.328125 35.546875 0.953125 
Q 30.953125 -1.421875 24.3125 -1.421875 
Q 15.921875 -1.421875 10.953125 3.296875 
Q 6 8.015625 6 15.921875 
Q 6 25.140625 12.171875 29.828125 
Q 18.359375 34.515625 30.609375 34.515625 
L 43.21875 34.515625 
L 43.21875 35.40625 
Q 43.21875 41.609375 39.140625 45 
Q 35.0625 48.390625 27.6875 48.390625 
Q 23 48.390625 18.546875 47.265625 
Q 14.109375 46.140625 10.015625 43.890625 
L 10.015625 52.203125 
Q 14.9375 54.109375 19.578125 55.046875 
Q 24.21875 56 28.609375 56 
Q 40.484375 56 46.34375 49.84375 
Q 52.203125 43.703125 52.203125 31.203125 
z
" id="DejaVuSans-97"/>
       <path d="M 32.171875 -5.078125 
Q 28.375 -14.84375 24.75 -17.8125 
Q 21.140625 -20.796875 15.09375 -20.796875 
L 7.90625 -20.796875 
L 7.90625 -13.28125 
L 13.1875 -13.28125 
Q 16.890625 -13.28125 18.9375 -11.515625 
Q 21 -9.765625 23.484375 -3.21875 
L 25.09375 0.875 
L 2.984375 54.6875 
L 12.5 54.6875 
L 29.59375 11.921875 
L 46.6875 54.6875 
L 56.203125 54.6875 
z
" id="DejaVuSans-121"/>
       <path d="M 44.28125 53.078125 
L 44.28125 44.578125 
Q 40.484375 46.53125 36.375 47.5 
Q 32.28125 48.484375 27.875 48.484375 
Q 21.1875 48.484375 17.84375 46.4375 
Q 14.5 44.390625 14.5 40.28125 
Q 14.5 37.15625 16.890625 35.375 
Q 19.28125 33.59375 26.515625 31.984375 
L 29.59375 31.296875 
Q 39.15625 29.25 43.1875 25.515625 
Q 47.21875 21.78125 47.21875 15.09375 
Q 47.21875 7.46875 41.1875 3.015625 
Q 35.15625 -1.421875 24.609375 -1.421875 
Q 20.21875 -1.421875 15.453125 -0.5625 
Q 10.6875 0.296875 5.421875 2 
L 5.421875 11.28125 
Q 10.40625 8.6875 15.234375 7.390625 
Q 20.0625 6.109375 24.8125 6.109375 
Q 31.15625 6.109375 34.5625 8.28125 
Q 37.984375 10.453125 37.984375 14.40625 
Q 37.984375 18.0625 35.515625 20.015625 
Q 33.0625 21.96875 24.703125 23.78125 
L 21.578125 24.515625 
Q 13.234375 26.265625 9.515625 29.90625 
Q 5.8125 33.546875 5.8125 39.890625 
Q 5.8125 47.609375 11.28125 51.796875 
Q 16.75 56 26.8125 56 
Q 31.78125 56 36.171875 55.265625 
Q 40.578125 54.546875 44.28125 53.078125 
z
" id="DejaVuSans-115"/>
       <path id="DejaVuSans-32"/>
       <path d="M 30.609375 48.390625 
Q 23.390625 48.390625 19.1875 42.75 
Q 14.984375 37.109375 14.984375 27.296875 
Q 14.984375 17.484375 19.15625 11.84375 
Q 23.34375 6.203125 30.609375 6.203125 
Q 37.796875 6.203125 41.984375 11.859375 
Q 46.1875 17.53125 46.1875 27.296875 
Q 46.1875 37.015625 41.984375 42.703125 
Q 37.796875 48.390625 30.609375 48.390625 
z
M 30.609375 56 
Q 42.328125 56 49.015625 48.375 
Q 55.71875 40.765625 55.71875 27.296875 
Q 55.71875 13.875 49.015625 6.21875 
Q 42.328125 -1.421875 30.609375 -1.421875 
Q 18.84375 -1.421875 12.171875 6.21875 
Q 5.515625 13.875 5.515625 27.296875 
Q 5.515625 40.765625 12.171875 48.375 
Q 18.84375 56 30.609375 56 
z
" id="DejaVuSans-111"/>
       <path d="M 37.109375 75.984375 
L 37.109375 68.5 
L 28.515625 68.5 
Q 23.6875 68.5 21.796875 66.546875 
Q 19.921875 64.59375 19.921875 59.515625 
L 19.921875 54.6875 
L 34.71875 54.6875 
L 34.71875 47.703125 
L 19.921875 47.703125 
L 19.921875 0 
L 10.890625 0 
L 10.890625 47.703125 
L 2.296875 47.703125 
L 2.296875 54.6875 
L 10.890625 54.6875 
L 10.890625 58.5 
Q 10.890625 67.625 15.140625 71.796875 
Q 19.390625 75.984375 28.609375 75.984375 
z
" id="DejaVuSans-102"/>
       <path d="M 9.8125 72.90625 
L 24.515625 72.90625 
L 43.109375 23.296875 
L 61.8125 72.90625 
L 76.515625 72.90625 
L 76.515625 0 
L 66.890625 0 
L 66.890625 64.015625 
L 48.09375 14.015625 
L 38.1875 14.015625 
L 19.390625 64.015625 
L 19.390625 0 
L 9.8125 0 
z
" id="DejaVuSans-77"/>
       <path d="M 56.203125 29.59375 
L 56.203125 25.203125 
L 14.890625 25.203125 
Q 15.484375 15.921875 20.484375 11.0625 
Q 25.484375 6.203125 34.421875 6.203125 
Q 39.59375 6.203125 44.453125 7.46875 
Q 49.3125 8.734375 54.109375 11.28125 
L 54.109375 2.78125 
Q 49.265625 0.734375 44.1875 -0.34375 
Q 39.109375 -1.421875 33.890625 -1.421875 
Q 20.796875 -1.421875 13.15625 6.1875 
Q 5.515625 13.8125 5.515625 26.8125 
Q 5.515625 40.234375 12.765625 48.109375 
Q 20.015625 56 32.328125 56 
Q 43.359375 56 49.78125 48.890625 
Q 56.203125 41.796875 56.203125 29.59375 
z
M 47.21875 32.234375 
Q 47.125 39.59375 43.09375 43.984375 
Q 39.0625 48.390625 32.421875 48.390625 
Q 24.90625 48.390625 20.390625 44.140625 
Q 15.875 39.890625 15.1875 32.171875 
z
" id="DejaVuSans-101"/>
       <path d="M 52 44.1875 
Q 55.375 50.25 60.0625 53.125 
Q 64.75 56 71.09375 56 
Q 79.640625 56 84.28125 50.015625 
Q 88.921875 44.046875 88.921875 33.015625 
L 88.921875 0 
L 79.890625 0 
L 79.890625 32.71875 
Q 79.890625 40.578125 77.09375 44.375 
Q 74.3125 48.1875 68.609375 48.1875 
Q 61.625 48.1875 57.5625 43.546875 
Q 53.515625 38.921875 53.515625 30.90625 
L 53.515625 0 
L 44.484375 0 
L 44.484375 32.71875 
Q 44.484375 40.625 41.703125 44.40625 
Q 38.921875 48.1875 33.109375 48.1875 
Q 26.21875 48.1875 22.15625 43.53125 
Q 18.109375 38.875 18.109375 30.90625 
L 18.109375 0 
L 9.078125 0 
L 9.078125 54.6875 
L 18.109375 54.6875 
L 18.109375 46.1875 
Q 21.1875 51.21875 25.484375 53.609375 
Q 29.78125 56 35.6875 56 
Q 41.65625 56 45.828125 52.96875 
Q 50 49.953125 52 44.1875 
z
" id="DejaVuSans-109"/>
       <path d="M 48.6875 27.296875 
Q 48.6875 37.203125 44.609375 42.84375 
Q 40.53125 48.484375 33.40625 48.484375 
Q 26.265625 48.484375 22.1875 42.84375 
Q 18.109375 37.203125 18.109375 27.296875 
Q 18.109375 17.390625 22.1875 11.75 
Q 26.265625 6.109375 33.40625 6.109375 
Q 40.53125 6.109375 44.609375 11.75 
Q 48.6875 17.390625 48.6875 27.296875 
z
M 18.109375 46.390625 
Q 20.953125 51.265625 25.265625 53.625 
Q 29.59375 56 35.59375 56 
Q 45.5625 56 51.78125 48.09375 
Q 58.015625 40.1875 58.015625 27.296875 
Q 58.015625 14.40625 51.78125 6.484375 
Q 45.5625 -1.421875 35.59375 -1.421875 
Q 29.59375 -1.421875 25.265625 0.953125 
Q 20.953125 3.328125 18.109375 8.203125 
L 18.109375 0 
L 9.078125 0 
L 9.078125 75.984375 
L 18.109375 75.984375 
z
" id="DejaVuSans-98"/>
       <path d="M 41.109375 46.296875 
Q 39.59375 47.171875 37.8125 47.578125 
Q 36.03125 48 33.890625 48 
Q 26.265625 48 22.1875 43.046875 
Q 18.109375 38.09375 18.109375 28.8125 
L 18.109375 0 
L 9.078125 0 
L 9.078125 54.6875 
L 18.109375 54.6875 
L 18.109375 46.1875 
Q 20.953125 51.171875 25.484375 53.578125 
Q 30.03125 56 36.53125 56 
Q 37.453125 56 38.578125 55.875 
Q 39.703125 55.765625 41.0625 55.515625 
z
" id="DejaVuSans-114"/>
       <path d="M 54.890625 33.015625 
L 54.890625 0 
L 45.90625 0 
L 45.90625 32.71875 
Q 45.90625 40.484375 42.875 44.328125 
Q 39.84375 48.1875 33.796875 48.1875 
Q 26.515625 48.1875 22.3125 43.546875 
Q 18.109375 38.921875 18.109375 30.90625 
L 18.109375 0 
L 9.078125 0 
L 9.078125 75.984375 
L 18.109375 75.984375 
L 18.109375 46.1875 
Q 21.34375 51.125 25.703125 53.5625 
Q 30.078125 56 35.796875 56 
Q 45.21875 56 50.046875 50.171875 
Q 54.890625 44.34375 54.890625 33.015625 
z
" id="DejaVuSans-104"/>
       <path d="M 9.421875 54.6875 
L 18.40625 54.6875 
L 18.40625 0 
L 9.421875 0 
z
M 9.421875 75.984375 
L 18.40625 75.984375 
L 18.40625 64.59375 
L 9.421875 64.59375 
z
" id="DejaVuSans-105"/>
       <path d="M 18.109375 8.203125 
L 18.109375 -20.796875 
L 9.078125 -20.796875 
L 9.078125 54.6875 
L 18.109375 54.6875 
L 18.109375 46.390625 
Q 20.953125 51.265625 25.265625 53.625 
Q 29.59375 56 35.59375 56 
Q 45.5625 56 51.78125 48.09375 
Q 58.015625 40.1875 58.015625 27.296875 
Q 58.015625 14.40625 51.78125 6.484375 
Q 45.5625 -1.421875 35.59375 -1.421875 
Q 29.59375 -1.421875 25.265625 0.953125 
Q 20.953125 3.328125 18.109375 8.203125 
z
M 48.6875 27.296875 
Q 48.6875 37.203125 44.609375 42.84375 
Q 40.53125 48.484375 33.40625 48.484375 
Q 26.265625 48.484375 22.1875 42.84375 
Q 18.109375 37.203125 18.109375 27.296875 
Q 18.109375 17.390625 22.1875 11.75 
Q 26.265625 6.109375 33.40625 6.109375 
Q 40.53125 6.109375 44.609375 11.75 
Q 48.6875 17.390625 48.6875 27.296875 
z
" id="DejaVuSans-112"/>
      </defs>
      <use xlink:href="#DejaVuSans-68"/>
      <use x="77.001953" xlink:href="#DejaVuSans-97"/>
      <use x="138.28125" xlink:href="#DejaVuSans-121"/>
      <use x="197.460938" xlink:href="#DejaVuSans-115"/>
      <use x="249.560547" xlink:href="#DejaVuSans-32"/>
      <use x="281.347656" xlink:href="#DejaVuSans-111"/>
      <use x="342.529297" xlink:href="#DejaVuSans-102"/>
      <use x="377.734375" xlink:href="#DejaVuSans-32"/>
      <use x="409.521484" xlink:href="#DejaVuSans-77"/>
      <use x="495.800781" xlink:href="#DejaVuSans-101"/>
      <use x="557.324219" xlink:href="#DejaVuSans-109"/>
      <use x="654.736328" xlink:href="#DejaVuSans-98"/>
      <use x="718.212891" xlink:href="#DejaVuSans-101"/>
      <use x="779.736328" xlink:href="#DejaVuSans-114"/>
      <use x="820.849609" xlink:href="#DejaVuSans-115"/>
      <use x="872.949219" xlink:href="#DejaVuSans-104"/>
      <use x="936.328125" xlink:href="#DejaVuSans-105"/>
      <use x="964.111328" xlink:href="#DejaVuSans-112"/>
     </g>
    </g>
   </g>
   <g id="matplotlib.axis_2">
    <g id="ytick_1">
     <g id="text_7">
      <!-- 0.00000 -->
      <g style="fill:#262626;" transform="translate(113.639453 257.223926)scale(0.1375 -0.1375)">
       <defs>
        <path d="M 10.6875 12.40625 
L 21 12.40625 
L 21 0 
L 10.6875 0 
z
" id="DejaVuSans-46"/>
       </defs>
       <use xlink:href="#DejaVuSans-48"/>
       <use x="63.623047" xlink:href="#DejaVuSans-46"/>
       <use x="95.410156" xlink:href="#DejaVuSans-48"/>
       <use x="159.033203" xlink:href="#DejaVuSans-48"/>
       <use x="222.65625" xlink:href="#DejaVuSans-48"/>
       <use x="286.279297" xlink:href="#DejaVuSans-48"/>
       <use x="349.902344" xlink:href="#DejaVuSans-48"/>
      </g>
     </g>
    </g>
    <g id="ytick_2">
     <g id="text_8">
      <!-- 0.00025 -->
      <g style="fill:#262626;" transform="translate(113.639453 226.067735)scale(0.1375 -0.1375)">
       <use xlink:href="#DejaVuSans-48"/>
       <use x="63.623047" xlink:href="#DejaVuSans-46"/>
       <use x="95.410156" xlink:href="#DejaVuSans-48"/>
       <use x="159.033203" xlink:href="#DejaVuSans-48"/>
       <use x="222.65625" xlink:href="#DejaVuSans-48"/>
       <use x="286.279297" xlink:href="#DejaVuSans-50"/>
       <use x="349.902344" xlink:href="#DejaVuSans-53"/>
      </g>
     </g>
    </g>
    <g id="ytick_3">
     <g id="text_9">
      <!-- 0.00050 -->
      <g style="fill:#262626;" transform="translate(113.639453 194.911544)scale(0.1375 -0.1375)">
       <use xlink:href="#DejaVuSans-48"/>
       <use x="63.623047" xlink:href="#DejaVuSans-46"/>
       <use x="95.410156" xlink:href="#DejaVuSans-48"/>
       <use x="159.033203" xlink:href="#DejaVuSans-48"/>
       <use x="222.65625" xlink:href="#DejaVuSans-48"/>
       <use x="286.279297" xlink:href="#DejaVuSans-53"/>
       <use x="349.902344" xlink:href="#DejaVuSans-48"/>
      </g>
     </g>
    </g>
    <g id="ytick_4">
     <g id="text_10">
      <!-- 0.00075 -->
      <g style="fill:#262626;" transform="translate(113.639453 163.755354)scale(0.1375 -0.1375)">
       <defs>
        <path d="M 8.203125 72.90625 
L 55.078125 72.90625 
L 55.078125 68.703125 
L 28.609375 0 
L 18.3125 0 
L 43.21875 64.59375 
L 8.203125 64.59375 
z
" id="DejaVuSans-55"/>
       </defs>
       <use xlink:href="#DejaVuSans-48"/>
       <use x="63.623047" xlink:href="#DejaVuSans-46"/>
       <use x="95.410156" xlink:href="#DejaVuSans-48"/>
       <use x="159.033203" xlink:href="#DejaVuSans-48"/>
       <use x="222.65625" xlink:href="#DejaVuSans-48"/>
       <use x="286.279297" xlink:href="#DejaVuSans-55"/>
       <use x="349.902344" xlink:href="#DejaVuSans-53"/>
      </g>
     </g>
    </g>
    <g id="ytick_5">
     <g id="text_11">
      <!-- 0.00100 -->
      <g style="fill:#262626;" transform="translate(113.639453 132.599163)scale(0.1375 -0.1375)">
       <use xlink:href="#DejaVuSans-48"/>
       <use x="63.623047" xlink:href="#DejaVuSans-46"/>
       <use x="95.410156" xlink:href="#DejaVuSans-48"/>
       <use x="159.033203" xlink:href="#DejaVuSans-48"/>
       <use x="222.65625" xlink:href="#DejaVuSans-49"/>
       <use x="286.279297" xlink:href="#DejaVuSans-48"/>
       <use x="349.902344" xlink:href="#DejaVuSans-48"/>
      </g>
     </g>
    </g>
    <g id="ytick_6">
     <g id="text_12">
      <!-- 0.00125 -->
      <g style="fill:#262626;" transform="translate(113.639453 101.442972)scale(0.1375 -0.1375)">
       <use xlink:href="#DejaVuSans-48"/>
       <use x="63.623047" xlink:href="#DejaVuSans-46"/>
       <use x="95.410156" xlink:href="#DejaVuSans-48"/>
       <use x="159.033203" xlink:href="#DejaVuSans-48"/>
       <use x="222.65625" xlink:href="#DejaVuSans-49"/>
       <use x="286.279297" xlink:href="#DejaVuSans-50"/>
       <use x="349.902344" xlink:href="#DejaVuSans-53"/>
      </g>
     </g>
    </g>
    <g id="ytick_7">
     <g id="text_13">
      <!-- 0.00150 -->
      <g style="fill:#262626;" transform="translate(113.639453 70.286781)scale(0.1375 -0.1375)">
       <use xlink:href="#DejaVuSans-48"/>
       <use x="63.623047" xlink:href="#DejaVuSans-46"/>
       <use x="95.410156" xlink:href="#DejaVuSans-48"/>
       <use x="159.033203" xlink:href="#DejaVuSans-48"/>
       <use x="222.65625" xlink:href="#DejaVuSans-49"/>
       <use x="286.279297" xlink:href="#DejaVuSans-53"/>
       <use x="349.902344" xlink:href="#DejaVuSans-48"/>
      </g>
     </g>
    </g>
    <g id="text_14">
     <!-- Distribution -->
     <g style="fill:#262626;" transform="translate(106.519922 187.033125)rotate(-90)scale(0.15 -0.15)">
      <defs>
       <path d="M 18.3125 70.21875 
L 18.3125 54.6875 
L 36.8125 54.6875 
L 36.8125 47.703125 
L 18.3125 47.703125 
L 18.3125 18.015625 
Q 18.3125 11.328125 20.140625 9.421875 
Q 21.96875 7.515625 27.59375 7.515625 
L 36.8125 7.515625 
L 36.8125 0 
L 27.59375 0 
Q 17.1875 0 13.234375 3.875 
Q 9.28125 7.765625 9.28125 18.015625 
L 9.28125 47.703125 
L 2.6875 47.703125 
L 2.6875 54.6875 
L 9.28125 54.6875 
L 9.28125 70.21875 
z
" id="DejaVuSans-116"/>
       <path d="M 8.5 21.578125 
L 8.5 54.6875 
L 17.484375 54.6875 
L 17.484375 21.921875 
Q 17.484375 14.15625 20.5 10.265625 
Q 23.53125 6.390625 29.59375 6.390625 
Q 36.859375 6.390625 41.078125 11.03125 
Q 45.3125 15.671875 45.3125 23.6875 
L 45.3125 54.6875 
L 54.296875 54.6875 
L 54.296875 0 
L 45.3125 0 
L 45.3125 8.40625 
Q 42.046875 3.421875 37.71875 1 
Q 33.40625 -1.421875 27.6875 -1.421875 
Q 18.265625 -1.421875 13.375 4.4375 
Q 8.5 10.296875 8.5 21.578125 
z
M 31.109375 56 
z
" id="DejaVuSans-117"/>
       <path d="M 54.890625 33.015625 
L 54.890625 0 
L 45.90625 0 
L 45.90625 32.71875 
Q 45.90625 40.484375 42.875 44.328125 
Q 39.84375 48.1875 33.796875 48.1875 
Q 26.515625 48.1875 22.3125 43.546875 
Q 18.109375 38.921875 18.109375 30.90625 
L 18.109375 0 
L 9.078125 0 
L 9.078125 54.6875 
L 18.109375 54.6875 
L 18.109375 46.1875 
Q 21.34375 51.125 25.703125 53.5625 
Q 30.078125 56 35.796875 56 
Q 45.21875 56 50.046875 50.171875 
Q 54.890625 44.34375 54.890625 33.015625 
z
" id="DejaVuSans-110"/>
      </defs>
      <use xlink:href="#DejaVuSans-68"/>
      <use x="77.001953" xlink:href="#DejaVuSans-105"/>
      <use x="104.785156" xlink:href="#DejaVuSans-115"/>
      <use x="156.884766" xlink:href="#DejaVuSans-116"/>
      <use x="196.09375" xlink:href="#DejaVuSans-114"/>
      <use x="237.207031" xlink:href="#DejaVuSans-105"/>
      <use x="264.990234" xlink:href="#DejaVuSans-98"/>
      <use x="328.466797" xlink:href="#DejaVuSans-117"/>
      <use x="391.845703" xlink:href="#DejaVuSans-116"/>
      <use x="431.054688" xlink:href="#DejaVuSans-105"/>
      <use x="458.837891" xlink:href="#DejaVuSans-111"/>
      <use x="520.019531" xlink:href="#DejaVuSans-110"/>
     </g>
    </g>
   </g>
   <g id="patch_3">
    <path clip-path="url(#p5047018469)" d="M 240.138383 252 
L 261.43689 252 
L 261.43689 130.801798 
L 240.138383 130.801798 
z
" style="fill:#da8bc3;opacity:0.4;stroke:#ffffff;stroke-linejoin:miter;"/>
   </g>
   <g id="patch_4">
    <path clip-path="url(#p5047018469)" d="M 261.43689 252 
L 282.735397 252 
L 282.735397 46.766581 
L 261.43689 46.766581 
z
" style="fill:#da8bc3;opacity:0.4;stroke:#ffffff;stroke-linejoin:miter;"/>
   </g>
   <g id="patch_5">
    <path clip-path="url(#p5047018469)" d="M 282.735397 252 
L 304.033904 252 
L 304.033904 170.977998 
L 282.735397 170.977998 
z
" style="fill:#da8bc3;opacity:0.4;stroke:#ffffff;stroke-linejoin:miter;"/>
   </g>
   <g id="patch_6">
    <path clip-path="url(#p5047018469)" d="M 304.033904 252 
L 325.332411 252 
L 325.332411 170.419995 
L 304.033904 170.419995 
z
" style="fill:#da8bc3;opacity:0.4;stroke:#ffffff;stroke-linejoin:miter;"/>
   </g>
   <g id="patch_7">
    <path clip-path="url(#p5047018469)" d="M 325.332411 252 
L 346.630918 252 
L 346.630918 165.844372 
L 325.332411 165.844372 
z
" style="fill:#da8bc3;opacity:0.4;stroke:#ffffff;stroke-linejoin:miter;"/>
   </g>
   <g id="patch_8">
    <path clip-path="url(#p5047018469)" d="M 346.630918 252 
L 367.929425 252 
L 367.929425 177.116028 
L 346.630918 177.116028 
z
" style="fill:#da8bc3;opacity:0.4;stroke:#ffffff;stroke-linejoin:miter;"/>
   </g>
   <g id="patch_9">
    <path clip-path="url(#p5047018469)" d="M 367.929425 252 
L 389.227932 252 
L 389.227932 242.737154 
L 367.929425 242.737154 
z
" style="fill:#da8bc3;opacity:0.4;stroke:#ffffff;stroke-linejoin:miter;"/>
   </g>
   <g id="patch_10">
    <path clip-path="url(#p5047018469)" d="M 389.227932 252 
L 410.526439 252 
L 410.526439 245.192366 
L 389.227932 245.192366 
z
" style="fill:#da8bc3;opacity:0.4;stroke:#ffffff;stroke-linejoin:miter;"/>
   </g>
   <g id="patch_11">
    <path clip-path="url(#p5047018469)" d="M 410.526439 252 
L 431.824946 252 
L 431.824946 243.406757 
L 410.526439 243.406757 
z
" style="fill:#da8bc3;opacity:0.4;stroke:#ffffff;stroke-linejoin:miter;"/>
   </g>
   <g id="patch_12">
    <path clip-path="url(#p5047018469)" d="M 431.824946 252 
L 453.123453 252 
L 453.123453 242.737154 
L 431.824946 242.737154 
z
" style="fill:#da8bc3;opacity:0.4;stroke:#ffffff;stroke-linejoin:miter;"/>
   </g>
   <g id="line2d_1">
    <path clip-path="url(#p5047018469)" d="M 217.315322 251.824865 
L 219.914631 251.49358 
L 221.214285 251.172877 
L 222.513939 250.684554 
L 223.813594 249.962393 
L 225.113248 248.925132 
L 226.412902 247.478127 
L 227.712556 245.517542 
L 229.01221 242.937415 
L 230.311865 239.639445 
L 231.611519 235.544796 
L 232.911173 230.60656 
L 234.210827 224.821035 
L 235.510482 218.235735 
L 238.10979 203.122515 
L 244.608061 162.882682 
L 247.20737 149.503421 
L 249.806678 138.300036 
L 253.705641 123.63423 
L 256.304949 113.540448 
L 258.904258 102.369048 
L 264.102874 78.940717 
L 265.402529 73.887238 
L 266.702183 69.585592 
L 268.001837 66.230071 
L 269.301491 63.98112 
L 270.601146 62.957887 
L 271.9008 63.234741 
L 273.200454 64.840565 
L 274.500108 67.759477 
L 275.799762 71.931896 
L 277.099417 77.25556 
L 278.399071 83.586851 
L 280.998379 98.509312 
L 286.196996 130.742702 
L 287.496651 137.912536 
L 288.796305 144.359779 
L 290.095959 149.986412 
L 291.395613 154.750837 
L 292.695267 158.66404 
L 293.994922 161.780922 
L 295.294576 164.188442 
L 296.59423 165.992493 
L 297.893884 167.30538 
L 299.193539 168.235334 
L 300.493193 168.878937 
L 301.792847 169.316677 
L 304.392155 169.808675 
L 306.991464 170.021416 
L 309.590772 170.067705 
L 312.190081 169.945037 
L 314.789389 169.604748 
L 317.388698 169.012307 
L 321.28766 167.747722 
L 325.186623 166.489288 
L 327.785931 165.982841 
L 329.085586 165.885335 
L 330.38524 165.902325 
L 332.984548 166.274313 
L 335.583857 167.044404 
L 338.183165 168.121052 
L 342.082128 170.104426 
L 347.280745 173.05259 
L 349.880053 174.640208 
L 352.479362 176.49409 
L 353.779016 177.621221 
L 355.07867 178.953562 
L 356.378324 180.551143 
L 357.677979 182.472872 
L 358.977633 184.769971 
L 360.277287 187.47886 
L 361.576941 190.614354 
L 362.876595 194.164253 
L 365.475904 202.308507 
L 370.674521 220.010239 
L 371.974175 224.033918 
L 373.273829 227.690298 
L 374.573483 230.918089 
L 375.873138 233.687024 
L 377.172792 235.996843 
L 378.472446 237.873102 
L 379.7721 239.360753 
L 381.071755 240.516674 
L 382.371409 241.4023 
L 383.671063 242.07729 
L 386.270371 242.998846 
L 388.86968 243.590603 
L 392.768643 244.176672 
L 396.667605 244.51387 
L 400.566568 244.630847 
L 405.765185 244.551726 
L 413.56311 244.187348 
L 425.259998 243.528165 
L 439.556195 243.420282 
L 442.155503 243.512131 
L 444.754811 243.838136 
L 447.35412 244.486397 
L 449.953428 245.468079 
L 453.852391 247.357838 
L 457.751354 249.251344 
L 460.350662 250.266308 
L 462.949971 251.004946 
L 465.549279 251.48208 
L 468.148587 251.756205 
L 472.04755 251.935104 
L 475.946513 251.986373 
L 475.946513 251.986373 
" style="fill:none;stroke:#da8bc3;stroke-linecap:round;stroke-width:1.5;"/>
   </g>
   <g id="patch_13">
    <path d="M 180 252 
L 180 34.56 
" style="fill:none;stroke:#262626;stroke-linecap:square;stroke-linejoin:miter;stroke-width:1.25;"/>
   </g>
   <g id="patch_14">
    <path d="M 508.235294 252 
L 508.235294 34.56 
" style="fill:none;stroke:#262626;stroke-linecap:square;stroke-linejoin:miter;stroke-width:1.25;"/>
   </g>
   <g id="patch_15">
    <path d="M 180 252 
L 508.235294 252 
" style="fill:none;stroke:#262626;stroke-linecap:square;stroke-linejoin:miter;stroke-width:1.25;"/>
   </g>
   <g id="patch_16">
    <path d="M 180 34.56 
L 508.235294 34.56 
" style="fill:none;stroke:#262626;stroke-linecap:square;stroke-linejoin:miter;stroke-width:1.25;"/>
   </g>
   <g id="text_15">
    <!-- Female's Membership Duration Distribution -->
    <g style="fill:#262626;" transform="translate(181.200069 28.56)scale(0.15 -0.15)">
     <defs>
      <path d="M 9.8125 72.90625 
L 51.703125 72.90625 
L 51.703125 64.59375 
L 19.671875 64.59375 
L 19.671875 43.109375 
L 48.578125 43.109375 
L 48.578125 34.8125 
L 19.671875 34.8125 
L 19.671875 0 
L 9.8125 0 
z
" id="DejaVuSans-70"/>
      <path d="M 9.421875 75.984375 
L 18.40625 75.984375 
L 18.40625 0 
L 9.421875 0 
z
" id="DejaVuSans-108"/>
      <path d="M 17.921875 72.90625 
L 17.921875 45.796875 
L 9.625 45.796875 
L 9.625 72.90625 
z
" id="DejaVuSans-39"/>
     </defs>
     <use xlink:href="#DejaVuSans-70"/>
     <use x="52.019531" xlink:href="#DejaVuSans-101"/>
     <use x="113.542969" xlink:href="#DejaVuSans-109"/>
     <use x="210.955078" xlink:href="#DejaVuSans-97"/>
     <use x="272.234375" xlink:href="#DejaVuSans-108"/>
     <use x="300.017578" xlink:href="#DejaVuSans-101"/>
     <use x="361.541016" xlink:href="#DejaVuSans-39"/>
     <use x="389.03125" xlink:href="#DejaVuSans-115"/>
     <use x="441.130859" xlink:href="#DejaVuSans-32"/>
     <use x="472.917969" xlink:href="#DejaVuSans-77"/>
     <use x="559.197266" xlink:href="#DejaVuSans-101"/>
     <use x="620.720703" xlink:href="#DejaVuSans-109"/>
     <use x="718.132812" xlink:href="#DejaVuSans-98"/>
     <use x="781.609375" xlink:href="#DejaVuSans-101"/>
     <use x="843.132812" xlink:href="#DejaVuSans-114"/>
     <use x="884.246094" xlink:href="#DejaVuSans-115"/>
     <use x="936.345703" xlink:href="#DejaVuSans-104"/>
     <use x="999.724609" xlink:href="#DejaVuSans-105"/>
     <use x="1027.507812" xlink:href="#DejaVuSans-112"/>
     <use x="1090.984375" xlink:href="#DejaVuSans-32"/>
     <use x="1122.771484" xlink:href="#DejaVuSans-68"/>
     <use x="1199.773438" xlink:href="#DejaVuSans-117"/>
     <use x="1263.152344" xlink:href="#DejaVuSans-114"/>
     <use x="1304.265625" xlink:href="#DejaVuSans-97"/>
     <use x="1365.544922" xlink:href="#DejaVuSans-116"/>
     <use x="1404.753906" xlink:href="#DejaVuSans-105"/>
     <use x="1432.537109" xlink:href="#DejaVuSans-111"/>
     <use x="1493.71875" xlink:href="#DejaVuSans-110"/>
     <use x="1557.097656" xlink:href="#DejaVuSans-32"/>
     <use x="1588.884766" xlink:href="#DejaVuSans-68"/>
     <use x="1665.886719" xlink:href="#DejaVuSans-105"/>
     <use x="1693.669922" xlink:href="#DejaVuSans-115"/>
     <use x="1745.769531" xlink:href="#DejaVuSans-116"/>
     <use x="1784.978516" xlink:href="#DejaVuSans-114"/>
     <use x="1826.091797" xlink:href="#DejaVuSans-105"/>
     <use x="1853.875" xlink:href="#DejaVuSans-98"/>
     <use x="1917.351562" xlink:href="#DejaVuSans-117"/>
     <use x="1980.730469" xlink:href="#DejaVuSans-116"/>
     <use x="2019.939453" xlink:href="#DejaVuSans-105"/>
     <use x="2047.722656" xlink:href="#DejaVuSans-111"/>
     <use x="2108.904297" xlink:href="#DejaVuSans-110"/>
    </g>
   </g>
  </g>
  <g id="axes_2">
   <g id="patch_17">
    <path d="M 573.882353 252 
L 902.117647 252 
L 902.117647 34.56 
L 573.882353 34.56 
z
" style="fill:#ffffff;"/>
   </g>
   <g id="matplotlib.axis_3">
    <g id="xtick_6">
     <g id="text_16">
      <!-- 1000 -->
      <g style="fill:#262626;" transform="translate(609.510082 271.947852)scale(0.1375 -0.1375)">
       <use xlink:href="#DejaVuSans-49"/>
       <use x="63.623047" xlink:href="#DejaVuSans-48"/>
       <use x="127.246094" xlink:href="#DejaVuSans-48"/>
       <use x="190.869141" xlink:href="#DejaVuSans-48"/>
      </g>
     </g>
    </g>
    <g id="xtick_7">
     <g id="text_17">
      <!-- 1500 -->
      <g style="fill:#262626;" transform="translate(667.958235 271.947852)scale(0.1375 -0.1375)">
       <use xlink:href="#DejaVuSans-49"/>
       <use x="63.623047" xlink:href="#DejaVuSans-53"/>
       <use x="127.246094" xlink:href="#DejaVuSans-48"/>
       <use x="190.869141" xlink:href="#DejaVuSans-48"/>
      </g>
     </g>
    </g>
    <g id="xtick_8">
     <g id="text_18">
      <!-- 2000 -->
      <g style="fill:#262626;" transform="translate(726.406388 271.947852)scale(0.1375 -0.1375)">
       <use xlink:href="#DejaVuSans-50"/>
       <use x="63.623047" xlink:href="#DejaVuSans-48"/>
       <use x="127.246094" xlink:href="#DejaVuSans-48"/>
       <use x="190.869141" xlink:href="#DejaVuSans-48"/>
      </g>
     </g>
    </g>
    <g id="xtick_9">
     <g id="text_19">
      <!-- 2500 -->
      <g style="fill:#262626;" transform="translate(784.854542 271.947852)scale(0.1375 -0.1375)">
       <use xlink:href="#DejaVuSans-50"/>
       <use x="63.623047" xlink:href="#DejaVuSans-53"/>
       <use x="127.246094" xlink:href="#DejaVuSans-48"/>
       <use x="190.869141" xlink:href="#DejaVuSans-48"/>
      </g>
     </g>
    </g>
    <g id="xtick_10">
     <g id="text_20">
      <!-- 3000 -->
      <g style="fill:#262626;" transform="translate(843.302695 271.947852)scale(0.1375 -0.1375)">
       <use xlink:href="#DejaVuSans-51"/>
       <use x="63.623047" xlink:href="#DejaVuSans-48"/>
       <use x="127.246094" xlink:href="#DejaVuSans-48"/>
       <use x="190.869141" xlink:href="#DejaVuSans-48"/>
      </g>
     </g>
    </g>
    <g id="text_21">
     <!-- Days of Membership -->
     <g style="fill:#262626;" transform="translate(660.930469 290.205078)scale(0.15 -0.15)">
      <use xlink:href="#DejaVuSans-68"/>
      <use x="77.001953" xlink:href="#DejaVuSans-97"/>
      <use x="138.28125" xlink:href="#DejaVuSans-121"/>
      <use x="197.460938" xlink:href="#DejaVuSans-115"/>
      <use x="249.560547" xlink:href="#DejaVuSans-32"/>
      <use x="281.347656" xlink:href="#DejaVuSans-111"/>
      <use x="342.529297" xlink:href="#DejaVuSans-102"/>
      <use x="377.734375" xlink:href="#DejaVuSans-32"/>
      <use x="409.521484" xlink:href="#DejaVuSans-77"/>
      <use x="495.800781" xlink:href="#DejaVuSans-101"/>
      <use x="557.324219" xlink:href="#DejaVuSans-109"/>
      <use x="654.736328" xlink:href="#DejaVuSans-98"/>
      <use x="718.212891" xlink:href="#DejaVuSans-101"/>
      <use x="779.736328" xlink:href="#DejaVuSans-114"/>
      <use x="820.849609" xlink:href="#DejaVuSans-115"/>
      <use x="872.949219" xlink:href="#DejaVuSans-104"/>
      <use x="936.328125" xlink:href="#DejaVuSans-105"/>
      <use x="964.111328" xlink:href="#DejaVuSans-112"/>
     </g>
    </g>
   </g>
   <g id="matplotlib.axis_4">
    <g id="ytick_8"/>
    <g id="ytick_9"/>
    <g id="ytick_10"/>
    <g id="ytick_11"/>
    <g id="ytick_12"/>
    <g id="ytick_13"/>
    <g id="ytick_14"/>
   </g>
   <g id="patch_18">
    <path clip-path="url(#pde1a7f36d0)" d="M 634.020736 252 
L 655.330932 252 
L 655.330932 92.777676 
L 634.020736 92.777676 
z
" style="fill:#8c8c8c;opacity:0.4;stroke:#ffffff;stroke-linejoin:miter;"/>
   </g>
   <g id="patch_19">
    <path clip-path="url(#pde1a7f36d0)" d="M 655.330932 252 
L 676.641129 252 
L 676.641129 44.914286 
L 655.330932 44.914286 
z
" style="fill:#8c8c8c;opacity:0.4;stroke:#ffffff;stroke-linejoin:miter;"/>
   </g>
   <g id="patch_20">
    <path clip-path="url(#pde1a7f36d0)" d="M 676.641129 252 
L 697.951326 252 
L 697.951326 192.855675 
L 676.641129 192.855675 
z
" style="fill:#8c8c8c;opacity:0.4;stroke:#ffffff;stroke-linejoin:miter;"/>
   </g>
   <g id="patch_21">
    <path clip-path="url(#pde1a7f36d0)" d="M 697.951326 252 
L 719.261522 252 
L 719.261522 193.339144 
L 697.951326 193.339144 
z
" style="fill:#8c8c8c;opacity:0.4;stroke:#ffffff;stroke-linejoin:miter;"/>
   </g>
   <g id="patch_22">
    <path clip-path="url(#pde1a7f36d0)" d="M 719.261522 252 
L 740.571719 252 
L 740.571719 192.049894 
L 719.261522 192.049894 
z
" style="fill:#8c8c8c;opacity:0.4;stroke:#ffffff;stroke-linejoin:miter;"/>
   </g>
   <g id="patch_23">
    <path clip-path="url(#pde1a7f36d0)" d="M 740.571719 252 
L 761.881915 252 
L 761.881915 194.547815 
L 740.571719 194.547815 
z
" style="fill:#8c8c8c;opacity:0.4;stroke:#ffffff;stroke-linejoin:miter;"/>
   </g>
   <g id="patch_24">
    <path clip-path="url(#pde1a7f36d0)" d="M 761.881915 252 
L 783.192112 252 
L 783.192112 231.049694 
L 761.881915 231.049694 
z
" style="fill:#8c8c8c;opacity:0.4;stroke:#ffffff;stroke-linejoin:miter;"/>
   </g>
   <g id="patch_25">
    <path clip-path="url(#pde1a7f36d0)" d="M 783.192112 252 
L 804.502309 252 
L 804.502309 231.774897 
L 783.192112 231.774897 
z
" style="fill:#8c8c8c;opacity:0.4;stroke:#ffffff;stroke-linejoin:miter;"/>
   </g>
   <g id="patch_26">
    <path clip-path="url(#pde1a7f36d0)" d="M 804.502309 252 
L 825.812505 252 
L 825.812505 230.646804 
L 804.502309 230.646804 
z
" style="fill:#8c8c8c;opacity:0.4;stroke:#ffffff;stroke-linejoin:miter;"/>
   </g>
   <g id="patch_27">
    <path clip-path="url(#pde1a7f36d0)" d="M 825.812505 252 
L 847.122702 252 
L 847.122702 232.419522 
L 825.812505 232.419522 
z
" style="fill:#8c8c8c;opacity:0.4;stroke:#ffffff;stroke-linejoin:miter;"/>
   </g>
   <g id="line2d_2">
    <path clip-path="url(#pde1a7f36d0)" d="M 608.133677 251.779863 
L 610.795749 251.421958 
L 612.126784 251.093609 
L 613.45782 250.609288 
L 614.788855 249.911679 
L 616.119891 248.930448 
L 617.450927 247.582684 
L 618.781962 245.774908 
L 620.112998 243.406982 
L 621.444033 240.378037 
L 622.775069 236.594268 
L 624.106105 231.978102 
L 625.43714 226.477864 
L 626.768176 220.076791 
L 628.099211 212.80009 
L 629.430247 204.718751 
L 632.092318 186.647959 
L 638.747496 139.002743 
L 641.409567 122.649376 
L 642.740603 115.443826 
L 644.071638 108.886285 
L 645.402674 102.932571 
L 648.064745 92.55888 
L 650.726816 83.738162 
L 653.388888 76.071275 
L 654.719923 72.651368 
L 656.050959 69.552257 
L 657.381994 66.839527 
L 658.71303 64.599292 
L 660.044065 62.932709 
L 661.375101 61.949633 
L 662.706137 61.76156 
L 664.037172 62.473924 
L 665.368208 64.177849 
L 666.699243 66.941622 
L 668.030279 70.802373 
L 669.361315 75.758695 
L 670.69235 81.76513 
L 672.023386 88.72947 
L 674.685457 104.938819 
L 681.340635 148.920677 
L 682.671671 156.587363 
L 684.002706 163.50401 
L 685.333742 169.596158 
L 686.664777 174.835938 
L 687.995813 179.237515 
L 689.326848 182.849667 
L 690.657884 185.746656 
L 691.98892 188.018608 
L 693.319955 189.762431 
L 694.650991 191.074077 
L 695.982026 192.042614 
L 697.313062 192.746259 
L 698.644098 193.250296 
L 701.306169 193.854272 
L 703.96824 194.12678 
L 706.630311 194.194728 
L 709.292382 194.103078 
L 713.285489 193.696145 
L 717.278596 193.021267 
L 725.264809 191.490178 
L 727.926881 191.179361 
L 730.588952 191.080272 
L 733.251023 191.226979 
L 735.913094 191.620887 
L 738.575165 192.24055 
L 741.237237 193.06429 
L 743.899308 194.098477 
L 746.561379 195.401393 
L 749.22345 197.090053 
L 750.554486 198.126642 
L 751.885521 199.316712 
L 753.216557 200.675056 
L 754.547592 202.209915 
L 757.209664 205.795499 
L 759.871735 209.935335 
L 765.195877 218.567525 
L 767.857948 222.290167 
L 769.188984 223.875609 
L 770.52002 225.256983 
L 771.851055 226.434186 
L 773.182091 227.417608 
L 774.513126 228.225822 
L 775.844162 228.882781 
L 778.506233 229.848297 
L 781.168304 230.509702 
L 785.161411 231.208651 
L 789.154518 231.667133 
L 793.147625 231.831981 
L 797.140731 231.673422 
L 802.464874 231.139329 
L 807.789016 230.622924 
L 811.782123 230.439394 
L 815.77523 230.47736 
L 819.768336 230.738391 
L 823.761443 231.24216 
L 827.75455 232.016866 
L 831.747657 233.084158 
L 834.409728 233.994896 
L 837.071799 235.12848 
L 839.73387 236.5555 
L 842.395941 238.319625 
L 845.058013 240.393529 
L 853.044226 246.996445 
L 855.706297 248.71033 
L 858.368369 249.998375 
L 861.03044 250.876527 
L 863.692511 251.419769 
L 866.354582 251.724803 
L 870.347689 251.923633 
L 873.00976 251.970906 
L 873.00976 251.970906 
" style="fill:none;stroke:#8c8c8c;stroke-linecap:round;stroke-width:1.5;"/>
   </g>
   <g id="patch_28">
    <path d="M 573.882353 252 
L 573.882353 34.56 
" style="fill:none;stroke:#262626;stroke-linecap:square;stroke-linejoin:miter;stroke-width:1.25;"/>
   </g>
   <g id="patch_29">
    <path d="M 902.117647 252 
L 902.117647 34.56 
" style="fill:none;stroke:#262626;stroke-linecap:square;stroke-linejoin:miter;stroke-width:1.25;"/>
   </g>
   <g id="patch_30">
    <path d="M 573.882353 252 
L 902.117647 252 
" style="fill:none;stroke:#262626;stroke-linecap:square;stroke-linejoin:miter;stroke-width:1.25;"/>
   </g>
   <g id="patch_31">
    <path d="M 573.882353 34.56 
L 902.117647 34.56 
" style="fill:none;stroke:#262626;stroke-linecap:square;stroke-linejoin:miter;stroke-width:1.25;"/>
   </g>
   <g id="text_22">
    <!-- Male's Membership Distribution -->
    <g style="fill:#262626;" transform="translate(619.389844 28.56)scale(0.15 -0.15)">
     <use xlink:href="#DejaVuSans-77"/>
     <use x="86.279297" xlink:href="#DejaVuSans-97"/>
     <use x="147.558594" xlink:href="#DejaVuSans-108"/>
     <use x="175.341797" xlink:href="#DejaVuSans-101"/>
     <use x="236.865234" xlink:href="#DejaVuSans-39"/>
     <use x="264.355469" xlink:href="#DejaVuSans-115"/>
     <use x="316.455078" xlink:href="#DejaVuSans-32"/>
     <use x="348.242188" xlink:href="#DejaVuSans-77"/>
     <use x="434.521484" xlink:href="#DejaVuSans-101"/>
     <use x="496.044922" xlink:href="#DejaVuSans-109"/>
     <use x="593.457031" xlink:href="#DejaVuSans-98"/>
     <use x="656.933594" xlink:href="#DejaVuSans-101"/>
     <use x="718.457031" xlink:href="#DejaVuSans-114"/>
     <use x="759.570312" xlink:href="#DejaVuSans-115"/>
     <use x="811.669922" xlink:href="#DejaVuSans-104"/>
     <use x="875.048828" xlink:href="#DejaVuSans-105"/>
     <use x="902.832031" xlink:href="#DejaVuSans-112"/>
     <use x="966.308594" xlink:href="#DejaVuSans-32"/>
     <use x="998.095703" xlink:href="#DejaVuSans-68"/>
     <use x="1075.097656" xlink:href="#DejaVuSans-105"/>
     <use x="1102.880859" xlink:href="#DejaVuSans-115"/>
     <use x="1154.980469" xlink:href="#DejaVuSans-116"/>
     <use x="1194.189453" xlink:href="#DejaVuSans-114"/>
     <use x="1235.302734" xlink:href="#DejaVuSans-105"/>
     <use x="1263.085938" xlink:href="#DejaVuSans-98"/>
     <use x="1326.5625" xlink:href="#DejaVuSans-117"/>
     <use x="1389.941406" xlink:href="#DejaVuSans-116"/>
     <use x="1429.150391" xlink:href="#DejaVuSans-105"/>
     <use x="1456.933594" xlink:href="#DejaVuSans-111"/>
     <use x="1518.115234" xlink:href="#DejaVuSans-110"/>
    </g>
   </g>
  </g>
  <g id="axes_3">
   <g id="patch_32">
    <path d="M 967.764706 252 
L 1296 252 
L 1296 34.56 
L 967.764706 34.56 
z
" style="fill:#ffffff;"/>
   </g>
   <g id="matplotlib.axis_5">
    <g id="xtick_11">
     <g id="text_23">
      <!-- 1000 -->
      <g style="fill:#262626;" transform="translate(1003.392435 271.947852)scale(0.1375 -0.1375)">
       <use xlink:href="#DejaVuSans-49"/>
       <use x="63.623047" xlink:href="#DejaVuSans-48"/>
       <use x="127.246094" xlink:href="#DejaVuSans-48"/>
       <use x="190.869141" xlink:href="#DejaVuSans-48"/>
      </g>
     </g>
    </g>
    <g id="xtick_12">
     <g id="text_24">
      <!-- 1500 -->
      <g style="fill:#262626;" transform="translate(1061.840588 271.947852)scale(0.1375 -0.1375)">
       <use xlink:href="#DejaVuSans-49"/>
       <use x="63.623047" xlink:href="#DejaVuSans-53"/>
       <use x="127.246094" xlink:href="#DejaVuSans-48"/>
       <use x="190.869141" xlink:href="#DejaVuSans-48"/>
      </g>
     </g>
    </g>
    <g id="xtick_13">
     <g id="text_25">
      <!-- 2000 -->
      <g style="fill:#262626;" transform="translate(1120.288741 271.947852)scale(0.1375 -0.1375)">
       <use xlink:href="#DejaVuSans-50"/>
       <use x="63.623047" xlink:href="#DejaVuSans-48"/>
       <use x="127.246094" xlink:href="#DejaVuSans-48"/>
       <use x="190.869141" xlink:href="#DejaVuSans-48"/>
      </g>
     </g>
    </g>
    <g id="xtick_14">
     <g id="text_26">
      <!-- 2500 -->
      <g style="fill:#262626;" transform="translate(1178.736894 271.947852)scale(0.1375 -0.1375)">
       <use xlink:href="#DejaVuSans-50"/>
       <use x="63.623047" xlink:href="#DejaVuSans-53"/>
       <use x="127.246094" xlink:href="#DejaVuSans-48"/>
       <use x="190.869141" xlink:href="#DejaVuSans-48"/>
      </g>
     </g>
    </g>
    <g id="xtick_15">
     <g id="text_27">
      <!-- 3000 -->
      <g style="fill:#262626;" transform="translate(1237.185048 271.947852)scale(0.1375 -0.1375)">
       <use xlink:href="#DejaVuSans-51"/>
       <use x="63.623047" xlink:href="#DejaVuSans-48"/>
       <use x="127.246094" xlink:href="#DejaVuSans-48"/>
       <use x="190.869141" xlink:href="#DejaVuSans-48"/>
      </g>
     </g>
    </g>
    <g id="text_28">
     <!-- Days of Membership -->
     <g style="fill:#262626;" transform="translate(1054.812822 290.205078)scale(0.15 -0.15)">
      <use xlink:href="#DejaVuSans-68"/>
      <use x="77.001953" xlink:href="#DejaVuSans-97"/>
      <use x="138.28125" xlink:href="#DejaVuSans-121"/>
      <use x="197.460938" xlink:href="#DejaVuSans-115"/>
      <use x="249.560547" xlink:href="#DejaVuSans-32"/>
      <use x="281.347656" xlink:href="#DejaVuSans-111"/>
      <use x="342.529297" xlink:href="#DejaVuSans-102"/>
      <use x="377.734375" xlink:href="#DejaVuSans-32"/>
      <use x="409.521484" xlink:href="#DejaVuSans-77"/>
      <use x="495.800781" xlink:href="#DejaVuSans-101"/>
      <use x="557.324219" xlink:href="#DejaVuSans-109"/>
      <use x="654.736328" xlink:href="#DejaVuSans-98"/>
      <use x="718.212891" xlink:href="#DejaVuSans-101"/>
      <use x="779.736328" xlink:href="#DejaVuSans-114"/>
      <use x="820.849609" xlink:href="#DejaVuSans-115"/>
      <use x="872.949219" xlink:href="#DejaVuSans-104"/>
      <use x="936.328125" xlink:href="#DejaVuSans-105"/>
      <use x="964.111328" xlink:href="#DejaVuSans-112"/>
     </g>
    </g>
   </g>
   <g id="matplotlib.axis_6">
    <g id="ytick_15"/>
    <g id="ytick_16"/>
    <g id="ytick_17"/>
    <g id="ytick_18"/>
    <g id="ytick_19"/>
    <g id="ytick_20"/>
    <g id="ytick_21"/>
   </g>
   <g id="patch_33">
    <path clip-path="url(#pedd255fbe6)" d="M 1028.838259 252 
L 1049.447078 252 
L 1049.447078 85.280585 
L 1028.838259 85.280585 
z
" style="fill:#ccb974;opacity:0.4;stroke:#ffffff;stroke-linejoin:miter;"/>
   </g>
   <g id="patch_34">
    <path clip-path="url(#pedd255fbe6)" d="M 1049.447078 252 
L 1070.055897 252 
L 1070.055897 48.602314 
L 1049.447078 48.602314 
z
" style="fill:#ccb974;opacity:0.4;stroke:#ffffff;stroke-linejoin:miter;"/>
   </g>
   <g id="patch_35">
    <path clip-path="url(#pedd255fbe6)" d="M 1070.055897 252 
L 1090.664715 252 
L 1090.664715 158.637128 
L 1070.055897 158.637128 
z
" style="fill:#ccb974;opacity:0.4;stroke:#ffffff;stroke-linejoin:miter;"/>
   </g>
   <g id="patch_36">
    <path clip-path="url(#pedd255fbe6)" d="M 1090.664715 252 
L 1111.273534 252 
L 1111.273534 188.646622 
L 1090.664715 188.646622 
z
" style="fill:#ccb974;opacity:0.4;stroke:#ffffff;stroke-linejoin:miter;"/>
   </g>
   <g id="patch_37">
    <path clip-path="url(#pedd255fbe6)" d="M 1111.273534 252 
L 1131.882353 252 
L 1131.882353 205.318564 
L 1111.273534 205.318564 
z
" style="fill:#ccb974;opacity:0.4;stroke:#ffffff;stroke-linejoin:miter;"/>
   </g>
   <g id="patch_38">
    <path clip-path="url(#pedd255fbe6)" d="M 1131.882353 252 
L 1152.491172 252 
L 1152.491172 171.974681 
L 1131.882353 171.974681 
z
" style="fill:#ccb974;opacity:0.4;stroke:#ffffff;stroke-linejoin:miter;"/>
   </g>
   <g id="patch_39">
    <path clip-path="url(#pedd255fbe6)" d="M 1152.491172 252 
L 1173.09999 252 
L 1173.09999 225.324894 
L 1152.491172 225.324894 
z
" style="fill:#ccb974;opacity:0.4;stroke:#ffffff;stroke-linejoin:miter;"/>
   </g>
   <g id="patch_40">
    <path clip-path="url(#pedd255fbe6)" d="M 1173.09999 252 
L 1193.708809 252 
L 1193.708809 248.665612 
L 1173.09999 248.665612 
z
" style="fill:#ccb974;opacity:0.4;stroke:#ffffff;stroke-linejoin:miter;"/>
   </g>
   <g id="patch_41">
    <path clip-path="url(#pedd255fbe6)" d="M 1193.708809 252 
L 1214.317628 252 
L 1214.317628 238.662447 
L 1193.708809 238.662447 
z
" style="fill:#ccb974;opacity:0.4;stroke:#ffffff;stroke-linejoin:miter;"/>
   </g>
   <g id="patch_42">
    <path clip-path="url(#pedd255fbe6)" d="M 1214.317628 252 
L 1234.926447 252 
L 1234.926447 241.996835 
L 1214.317628 241.996835 
z
" style="fill:#ccb974;opacity:0.4;stroke:#ffffff;stroke-linejoin:miter;"/>
   </g>
   <g id="line2d_3">
    <path clip-path="url(#pedd255fbe6)" d="M 982.684492 251.847261 
L 987.18292 251.606231 
L 990.181872 251.29044 
L 993.180824 250.76371 
L 996.179776 249.916613 
L 997.679252 249.328774 
L 999.178728 248.603051 
L 1000.678204 247.715239 
L 1002.17768 246.638994 
L 1003.677156 245.346161 
L 1005.176632 243.807237 
L 1006.676108 241.991987 
L 1008.175584 239.870202 
L 1009.67506 237.412588 
L 1011.174536 234.591778 
L 1012.674012 231.383421 
L 1014.173488 227.767323 
L 1015.672964 223.728588 
L 1017.17244 219.258701 
L 1018.671916 214.356505 
L 1021.670868 203.292013 
L 1024.66982 190.698192 
L 1027.668772 176.882095 
L 1033.666676 147.433265 
L 1036.665628 132.928773 
L 1039.66458 119.362791 
L 1042.663532 107.285131 
L 1044.163008 101.953979 
L 1045.662484 97.161201 
L 1047.16196 92.947424 
L 1048.661436 89.345405 
L 1050.160912 86.379883 
L 1051.660387 84.067568 
L 1053.159863 82.41724 
L 1054.659339 81.429922 
L 1056.158815 81.099116 
L 1057.658291 81.411075 
L 1059.157767 82.345119 
L 1060.657243 83.873987 
L 1062.156719 85.964241 
L 1063.656195 88.576725 
L 1065.155671 91.66711 
L 1066.655147 95.186516 
L 1068.154623 99.082245 
L 1071.153575 107.777781 
L 1074.152527 117.289112 
L 1081.649907 141.67251 
L 1084.648859 150.664928 
L 1087.647811 158.819272 
L 1090.646763 166.00142 
L 1093.645715 172.171832 
L 1095.145191 174.887379 
L 1096.644667 177.369573 
L 1098.144143 179.631727 
L 1099.643619 181.688918 
L 1102.642571 185.252364 
L 1105.641523 188.184211 
L 1108.640475 190.588726 
L 1111.639427 192.536253 
L 1114.638379 194.059533 
L 1117.637331 195.16081 
L 1120.636283 195.82834 
L 1123.635235 196.058881 
L 1126.634187 195.881154 
L 1129.633139 195.374583 
L 1137.130519 193.713211 
L 1138.629995 193.529552 
L 1140.129471 193.464954 
L 1141.628947 193.547559 
L 1143.128423 193.802666 
L 1144.627899 194.251684 
L 1146.127375 194.911227 
L 1147.626851 195.792395 
L 1149.126327 196.900275 
L 1150.625803 198.233694 
L 1152.125279 199.785242 
L 1153.624755 201.54154 
L 1156.623707 205.588327 
L 1159.622659 210.17208 
L 1168.619515 224.648324 
L 1171.618467 228.940689 
L 1174.617419 232.687458 
L 1177.616371 235.808048 
L 1179.115847 237.124015 
L 1180.615323 238.278434 
L 1182.114799 239.27577 
L 1183.614275 240.122852 
L 1185.113751 240.828526 
L 1186.613227 241.403307 
L 1189.612179 242.208542 
L 1192.611131 242.643144 
L 1195.610082 242.816936 
L 1200.10851 242.814557 
L 1207.60589 242.757119 
L 1212.104318 242.915537 
L 1218.102222 243.388421 
L 1224.100126 244.097358 
L 1230.09803 245.024308 
L 1236.095934 246.193551 
L 1245.09279 248.262566 
L 1251.090694 249.579738 
L 1255.589122 250.393555 
L 1260.08755 251.011802 
L 1264.585978 251.437989 
L 1270.583882 251.766264 
L 1278.081262 251.936349 
L 1281.080214 251.964521 
L 1281.080214 251.964521 
" style="fill:none;stroke:#ccb974;stroke-linecap:round;stroke-width:1.5;"/>
   </g>
   <g id="patch_43">
    <path d="M 967.764706 252 
L 967.764706 34.56 
" style="fill:none;stroke:#262626;stroke-linecap:square;stroke-linejoin:miter;stroke-width:1.25;"/>
   </g>
   <g id="patch_44">
    <path d="M 1296 252 
L 1296 34.56 
" style="fill:none;stroke:#262626;stroke-linecap:square;stroke-linejoin:miter;stroke-width:1.25;"/>
   </g>
   <g id="patch_45">
    <path d="M 967.764706 252 
L 1296 252 
" style="fill:none;stroke:#262626;stroke-linecap:square;stroke-linejoin:miter;stroke-width:1.25;"/>
   </g>
   <g id="patch_46">
    <path d="M 967.764706 34.56 
L 1296 34.56 
" style="fill:none;stroke:#262626;stroke-linecap:square;stroke-linejoin:miter;stroke-width:1.25;"/>
   </g>
   <g id="text_29">
    <!-- Other's Membership Distribution -->
    <g style="fill:#262626;" transform="translate(1009.742509 28.56)scale(0.15 -0.15)">
     <defs>
      <path d="M 39.40625 66.21875 
Q 28.65625 66.21875 22.328125 58.203125 
Q 16.015625 50.203125 16.015625 36.375 
Q 16.015625 22.609375 22.328125 14.59375 
Q 28.65625 6.59375 39.40625 6.59375 
Q 50.140625 6.59375 56.421875 14.59375 
Q 62.703125 22.609375 62.703125 36.375 
Q 62.703125 50.203125 56.421875 58.203125 
Q 50.140625 66.21875 39.40625 66.21875 
z
M 39.40625 74.21875 
Q 54.734375 74.21875 63.90625 63.9375 
Q 73.09375 53.65625 73.09375 36.375 
Q 73.09375 19.140625 63.90625 8.859375 
Q 54.734375 -1.421875 39.40625 -1.421875 
Q 24.03125 -1.421875 14.8125 8.828125 
Q 5.609375 19.09375 5.609375 36.375 
Q 5.609375 53.65625 14.8125 63.9375 
Q 24.03125 74.21875 39.40625 74.21875 
z
" id="DejaVuSans-79"/>
     </defs>
     <use xlink:href="#DejaVuSans-79"/>
     <use x="78.710938" xlink:href="#DejaVuSans-116"/>
     <use x="117.919922" xlink:href="#DejaVuSans-104"/>
     <use x="181.298828" xlink:href="#DejaVuSans-101"/>
     <use x="242.822266" xlink:href="#DejaVuSans-114"/>
     <use x="283.935547" xlink:href="#DejaVuSans-39"/>
     <use x="311.425781" xlink:href="#DejaVuSans-115"/>
     <use x="363.525391" xlink:href="#DejaVuSans-32"/>
     <use x="395.3125" xlink:href="#DejaVuSans-77"/>
     <use x="481.591797" xlink:href="#DejaVuSans-101"/>
     <use x="543.115234" xlink:href="#DejaVuSans-109"/>
     <use x="640.527344" xlink:href="#DejaVuSans-98"/>
     <use x="704.003906" xlink:href="#DejaVuSans-101"/>
     <use x="765.527344" xlink:href="#DejaVuSans-114"/>
     <use x="806.640625" xlink:href="#DejaVuSans-115"/>
     <use x="858.740234" xlink:href="#DejaVuSans-104"/>
     <use x="922.119141" xlink:href="#DejaVuSans-105"/>
     <use x="949.902344" xlink:href="#DejaVuSans-112"/>
     <use x="1013.378906" xlink:href="#DejaVuSans-32"/>
     <use x="1045.166016" xlink:href="#DejaVuSans-68"/>
     <use x="1122.167969" xlink:href="#DejaVuSans-105"/>
     <use x="1149.951172" xlink:href="#DejaVuSans-115"/>
     <use x="1202.050781" xlink:href="#DejaVuSans-116"/>
     <use x="1241.259766" xlink:href="#DejaVuSans-114"/>
     <use x="1282.373047" xlink:href="#DejaVuSans-105"/>
     <use x="1310.15625" xlink:href="#DejaVuSans-98"/>
     <use x="1373.632812" xlink:href="#DejaVuSans-117"/>
     <use x="1437.011719" xlink:href="#DejaVuSans-116"/>
     <use x="1476.220703" xlink:href="#DejaVuSans-105"/>
     <use x="1504.003906" xlink:href="#DejaVuSans-111"/>
     <use x="1565.185547" xlink:href="#DejaVuSans-110"/>
    </g>
   </g>
  </g>
 </g>
 <defs>
  <clipPath id="p5047018469">
   <rect height="217.44" width="328.235294" x="180" y="34.56"/>
  </clipPath>
  <clipPath id="pde1a7f36d0">
   <rect height="217.44" width="328.235294" x="573.882353" y="34.56"/>
  </clipPath>
  <clipPath id="pedd255fbe6">
   <rect height="217.44" width="328.235294" x="967.764706" y="34.56"/>
  </clipPath>
 </defs>
</svg>
